SplineFontDB: 1.0
FontName: Ambrosia
FullName: Ambrosia
FamilyName: Ambrosia
Weight: Medium
Copyright: Generated by Fontographer 3.5
Version: 001.000
ItalicAngle: 0
UnderlinePosition: -133
UnderlineWidth: 20
Ascent: 800
Descent: 200
NeedsXUIDChange: 1
Encoding: mac
DisplaySize: -24
AntiAlias: 1
BeginPrivate: 1
BlueValues 23 [-19 0 502 517 750 768]
EndPrivate
BeginChars: 260 246
StartChar: Eth
Encoding: 1 208
Width: 471
HStem: 0 21G<39 155> 0.0956018 16.9044<162 180> 396 45<5 72 156 214> 737 13<36 42>
VStem: 72 84<49.5111 396 441 689> 350 80<288 356>
Fore
156 441 m 1
 215 441 l 1
 215 396 l 1
 156 396 l 1
 156 228 156 80 156 67 c 0
 156 12 160 17 174 17 c 0
 247 17 350 146 350 356 c 0
 350 497 274 676 178 718 c 0
 156 728 156 718 156 705 c 0
 156 626 156 532 156 441 c 1
72 396 m 1
 5 396 l 1
 5 441 l 1
 72 441 l 1
 72 566 72 676 72 683 c 0
 72 719 52 737 38 737 c 0
 34 737 32 739 32 743 c 0
 32 749 36 750 39 750 c 2
 122 750 l 2
 176 750 217 724 263 677 c 0
 346 593 430 457 430 288 c 0
 430 107 310 0 155 0 c 2
 39 0 l 2
 36 0 32 1 32 7 c 0
 32 11 34 13 38 13 c 0
 52 13 72 18 72 67 c 2
 72 67 72 235 72 396 c 1
EndSplineSet
MinimumDistance: x19,-1 x9,11 x9,10 x0,2 x0,1 
EndChar
StartChar: eth
Encoding: 2 240
Width: 356
HStem: 0 18<178 206> 488 14<193 199> 609 42<55 156 235 334> 720 30<39 56>
VStem: 24.7221 61.4607<222 256> 252 57<153 287>
Fore
55 651 m 1
 156 651 l 1
 124 696 86 720 48 720 c 0
 36 720 27 722 27 734 c 0
 27 748 34 750 51 750 c 0
 108 750 164 714 209 651 c 1
 334 651 l 1
 334 609 l 1
 235 609 l 1
 280 527 309 415 309 285 c 2
 309 183 l 2
 309 45 256 -1 226 -1 c 0
 190 -1 179 0 179 0 c 2
 101 2 47 76 32 155 c 1
 0 320 75 502 196 502 c 0
 204 502 204 498 204 494 c 0
 204 490 199 488 195 488 c 0
 129 488 71 310 89 196 c 0
 110 63 171 18 196 18 c 0
 227 18 252 48 252 171 c 2
 252 242 l 2
 252 402 224 527 182 609 c 1
 55 609 l 1
 55 651 l 1
EndSplineSet
MinimumDistance: x9,-1 
EndChar
StartChar: Lslash
Encoding: 3 321
Width: 435
HStem: 0 19<196 230> 730 20G<65 201>
VStem: 91 84<32.5387 396 462 685>
Fore
91 442 m 1
 91 527 91 612 91 683 c 0
 91 741 61 742 61 746 c 0
 61 750 63 748 65 750 c 1
 201 750 l 2
 204 749 205 748 205 746 c 0
 205 742 175 710 175 683 c 2
 175 462 l 1
 255 481 l 1
 255 436 l 1
 175 417 l 1
 175 42 l 2
 175 19 188 19 210 19 c 0
 247 19 281 28 326 60 c 0
 347 75 353 106 352 126 c 1
 383 112 407 94 426 67 c 0
 430 61 426 54 421 49 c 0
 386 13 327 0 309 0 c 2
 309 0 133 0 86 0 c 0
 79 0 72 -5 67 -5 c 0
 62 -5 53 0 53 4 c 0
 53 13 61 13 66 13 c 0
 68 13 73 9 76 10 c 0
 94 13 91 38 91 67 c 0
 91 78 91 230 91 397 c 1
 5 376 l 1
 5 421 l 1
 91 442 l 1
EndSplineSet
MinimumDistance: x6,-1 
EndChar
StartChar: lslash
Encoding: 4 322
Width: 165
HStem: 0 8<13 17 113 119> 741 9<13 24>
VStem: 36 57<33.0041 380 438 721>
Fore
36 425 m 1
 36 568 36 699 36 705 c 0
 36 746 23 741 13 741 c 0
 11 741 9 743 9 745 c 0
 9 749 13 749 14 750 c 2
 82 750 l 2
 88 750 93 750 93 740 c 0
 93 738 93 594 93 438 c 1
 150 451 l 1
 150 406 l 1
 93 393 l 1
 93 219 93 44 93 44 c 2
 93 20 106 8 115 8 c 0
 118 8 119 7 119 4 c 0
 119 0 116 0 115 0 c 2
 14 0 l 2
 13 1 10 0 10 4 c 0
 10 7 11 8 14 8 c 0
 23 8 36 20 36 44 c 0
 36 50 36 216 36 380 c 1
 -25 366 l 1
 -25 411 l 1
 36 425 l 1
EndSplineSet
MinimumDistance: x12,-1 x18,15 x18,17 x11,14 x11,12 
EndChar
StartChar: Thorn
Encoding: 11 222
Width: 375
HStem: -200 9<13 26> 0 14<147 153> 484 18<126.073 140> 742 8<10 16>
VStem: 9 83.0339<-197 -193 742 750> 36 57<-169 24 55 457 502 713> 256 56.0116<304 329>
Fore
256 306 m 0
 256 192 217 14 150 14 c 0
 127 14 93 37 93 63 c 2
 93 63 93 436 93 448 c 0
 93 472 115 484 137 484 c 0
 174 484 256 441 256 306 c 0
14 750 m 2
 13 750 10 750 10 746 c 0
 10 743 11 742 14 742 c 0
 23 742 36 730 36 706 c 0
 36 694 36 -141 36 -155 c 0
 36 -196 23 -191 13 -191 c 0
 11 -191 9 -193 9 -195 c 0
 9 -199 13 -199 14 -200 c 2
 82 -200 l 2
 88 -200 93 -200 93 -190 c 0
 93 -186 93 20 93 22 c 0
 93 30 103 18 107 15 c 0
 111 12 127 0 149 0 c 0
 270 0 313 187 313 347 c 0
 313 427 244 502 166 502 c 2
 93 502 l 1
 92 750 l 1
 14 750 l 2
EndSplineSet
MinimumDistance: x8,5 x8,7 
EndChar
StartChar: thorn
Encoding: 12 254
Width: 375
HStem: -200 9<13 26> 0 14<147 153> 397 18<126.073 153> 629 8<10 16>
VStem: 9 83.0339<-197 -193 629 637> 36 57<-169 24 55 363 415 601> 256 56.0065<253 265>
Fore
256 254 m 0
 256 140 217 14 150 14 c 0
 127 14 93 37 93 63 c 2
 93 63 93 349 93 361 c 0
 93 385 115 397 137 397 c 0
 174 397 256 389 256 254 c 0
14 637 m 2
 13 637 10 637 10 633 c 0
 10 630 11 629 14 629 c 0
 23 629 36 617 36 593 c 0
 36 581 36 -141 36 -155 c 0
 36 -196 23 -191 13 -191 c 0
 11 -191 9 -193 9 -195 c 0
 9 -199 13 -199 14 -200 c 2
 82 -200 l 2
 88 -200 93 -200 93 -190 c 0
 93 -186 93 20 93 22 c 0
 93 30 103 18 107 15 c 0
 111 12 127 0 149 0 c 0
 270 0 313 135 313 295 c 0
 313 375 244 415 166 415 c 2
 93 415 l 1
 92 637 l 1
 14 637 l 2
EndSplineSet
MinimumDistance: x8,5 x8,7 
EndChar
StartChar: onehalf
Encoding: 21 189
Width: 470
HStem: 2 21<295 329> 375 6<69 77 144 146 338 345> 730 20G<91 121>
VStem: 24 27<660 667> 87 42<398 720> 250 12<48 80> 380 40<324 336>
Fore
255 716 m 1
 258 730 288 732 285 714 c 1
 282 699 155 58 151 40 c 1
 149 28 117 20 121 42 c 0
 124 59 205 464 255 716 c 1
77 725 m 0
 67 716 62 710 56 699 c 0
 50 688 52 683 51 667 c 1
 51 656 48 642 37 642 c 0
 28 642 24 653 24 662 c 0
 24 675 30 687 40 699 c 0
 57 719 69 733 91 750 c 1
 121 750 l 2
 125 750 129 750 129 743 c 0
 129 684 129 419 129 409 c 0
 129 378 139 381 146 381 c 0
 148 381 149 381 149 379 c 0
 149 376 146 376 146 375 c 1
 70 375 l 1
 70 376 67 375 67 378 c 0
 67 381 68 381 70 381 c 0
 77 381 87 384 87 408 c 2
 87 716 l 2
 87 730 81 728 77 725 c 0
397 58 m 1
 396 59 l 2
 410 41 419 21 421 2 c 1
 386 2 328 2 272 2 c 0
 266 2 263 -1 257 -1 c 0
 246 -1 250 30 250 49 c 0
 250 107 252 137 287 194 c 0
 321 249 380 294 380 334 c 0
 380 354 358 373 340 373 c 0
 317 373 288 349 267 325 c 1
 253 345 239 381 239 381 c 1
 283 381 317 381 367 381 c 0
 401 381 420 360 420 332 c 0
 420 264 352 240 308 182 c 0
 282 148 262 113 262 64 c 0
 262 56 269 23 299 23 c 0
 332 23 354 23 380 43 c 0
 388 49 391 52 397 58 c 1
EndSplineSet
MinimumDistance: x34,-1 x20,17 x20,19 x13,16 x13,14 
EndChar
StartChar: onequarter
Encoding: 22 188
Width: 475
HStem: 3 6<348 355 415 425> 104 13<324 357> 356.678 21.322<358 364> 375 6<69 77 144 146> 730 20G<91 121>
VStem: 24 27<658 667> 87 42<402 724> 366 42<26 100 123 346>
Fore
255 716 m 1
 258 730 288 732 285 714 c 1
 282 699 155 58 151 40 c 1
 149 28 117 20 121 42 c 0
 124 59 205 464 255 716 c 1
77 725 m 0
 67 716 62 710 56 699 c 0
 50 688 52 683 51 667 c 1
 51 656 48 642 37 642 c 0
 28 642 24 653 24 662 c 0
 24 675 30 687 40 699 c 0
 57 719 69 733 91 750 c 1
 121 750 l 2
 125 750 129 750 129 743 c 0
 129 684 129 419 129 409 c 0
 129 378 139 381 146 381 c 0
 148 381 149 381 149 379 c 0
 149 376 146 376 146 375 c 1
 70 375 l 1
 70 376 67 375 67 378 c 0
 67 381 68 381 70 381 c 0
 77 381 87 384 87 408 c 2
 87 716 l 2
 87 730 81 728 77 725 c 0
326 372 m 0
 326 379 348 378 350 378 c 2
 400 378 l 2
 404 378 408 378 408 370 c 0
 408 333 408 215 408 130 c 0
 408 124 409 118 412 119 c 0
 426 124 433 129 444 144 c 1
 443 132 443 127 440 114 c 0
 439 110 438 104 432 104 c 1
 426 106 421 106 414 106 c 0
 409 106 408 100 408 95 c 0
 408 62 408 39 408 36 c 0
 408 5 418 9 425 9 c 0
 427 9 428 8 428 6 c 0
 428 3 425 3 425 3 c 1
 349 3 l 1
 349 3 346 3 346 6 c 0
 346 8 347 9 349 9 c 0
 356 9 366 11 366 36 c 2
 366 36 366 58 366 91 c 0
 366 99 366 105 356 104 c 0
 331 104 285 101 256 101 c 0
 246 101 239 106 240 123 c 1
 242 204 287 241 316 316 c 0
 323 335 324 346 330 364 c 1
 328 368 326 365 326 372 c 0
366 130 m 0
 366 219 366 338 366 344 c 0
 366 362 360 358 357 355 c 0
 305 297 281 227 281 168 c 0
 281 147 285 117 307 117 c 0
 323 117 337 117 355 117 c 0
 360 117 366 119 366 130 c 0
EndSplineSet
MinimumDistance: x34,-1 x40,37 x40,39 x33,36 x33,34 x20,17 x20,19 x13,16 x13,14 
EndChar
StartChar: onesuperior
Encoding: 23 185
Width: 178
HStem: 375 6<69 77 144 146> 730 20G<91 121>
VStem: 24 27<660 667> 87 42<396.434 718>
Fore
77 725 m 0
 67 716 62 710 56 699 c 0
 50 688 52 683 51 667 c 1
 51 656 48 642 37 642 c 0
 28 642 24 653 24 662 c 0
 24 675 30 687 40 699 c 0
 57 719 69 733 91 750 c 1
 121 750 l 2
 125 750 129 750 129 743 c 0
 129 684 129 419 129 409 c 0
 129 378 139 381 146 381 c 0
 148 381 149 381 149 379 c 0
 149 376 146 376 146 375 c 1
 70 375 l 1
 70 376 67 375 67 378 c 0
 67 381 68 381 70 381 c 0
 77 381 87 384 87 408 c 2
 87 716 l 2
 87 730 81 728 77 725 c 0
EndSplineSet
MinimumDistance: x10,-1 x16,13 x16,15 x9,12 x9,10 
EndChar
StartChar: threequarters
Encoding: 24 190
Width: 495
HStem: 3 6<353 360 420 430> 104 13<324 362> 367.162 12.838<93 112> 738 10.1678<103 128>
VStem: 78 28<527 544> 78.1762 16.8238<547 551> 371 42<26 100 123 346>
Fore
295 716 m 1
 298 730 328 732 325 714 c 1
 322 699 195 58 191 40 c 1
 189 28 157 20 161 42 c 0
 164 59 245 464 295 716 c 1
47 429 m 1
 49 401 74 380 103 380 c 0
 148 380 168 447 167 500 c 1
 167 545 153 575 119 605 c 1
 110 596 106 589 101 578 c 1
 97 567 95 560 95 548 c 1
 103 541 106 536 106 527 c 0
 106 523 101 518 96 518 c 0
 85 518 78 527 78 544 c 0
 78 567 96 593 118 618 c 0
 140 642 165 659 163 698 c 1
 162 721 148 738 117 738 c 0
 87 738 68 726 49 697 c 1
 31 713 22 721 15 741 c 0
 13 747 19 745 21 745 c 0
 80 747 103 751 154 745 c 0
 173 743 193 729 192 708 c 1
 190 663 163 655 141 632 c 0
 130 620 135 620 139 615 c 0
 166 575 204 518 204 459 c 0
 204 407 182 372 137 369 c 0
 92 366 69 367 25 369 c 0
 22 369 14 369 17 375 c 0
 28 397 31 409 47 429 c 1
331 372 m 0
 331 379 353 378 355 378 c 2
 405 378 l 2
 409 378 413 378 413 370 c 0
 413 333 413 215 413 130 c 0
 413 124 414 118 417 119 c 0
 431 124 438 129 449 144 c 1
 448 132 448 127 445 114 c 0
 444 110 443 104 437 104 c 1
 431 106 426 106 419 106 c 0
 414 106 413 100 413 95 c 0
 413 62 413 39 413 36 c 0
 413 5 423 9 430 9 c 0
 432 9 433 8 433 6 c 0
 433 3 430 3 430 3 c 1
 354 3 l 1
 354 3 351 3 351 6 c 0
 351 8 352 9 354 9 c 0
 361 9 371 11 371 36 c 2
 371 36 371 58 371 91 c 0
 371 99 371 105 361 104 c 0
 336 104 290 101 261 101 c 0
 251 101 244 106 245 123 c 1
 247 204 292 241 321 316 c 0
 328 335 329 346 335 364 c 1
 333 368 331 365 331 372 c 0
371 130 m 0
 371 219 371 338 371 344 c 0
 371 362 365 358 362 355 c 0
 310 297 286 227 286 168 c 0
 286 147 290 117 312 117 c 0
 328 117 342 117 360 117 c 0
 365 117 371 119 371 130 c 0
EndSplineSet
MinimumDistance: x39,-1 x45,42 x45,44 x38,41 x38,39 
EndChar
StartChar: threesuperior
Encoding: 25 179
Width: 230
HStem: 367.162 12.838<93 112> 738 10.1678<103 128>
VStem: 78 28<527 544> 78.1762 16.8238<547 551>
Fore
47 429 m 1
 49 401 74 380 103 380 c 0
 148 380 168 447 167 500 c 1
 167 545 153 575 119 605 c 1
 110 596 106 589 101 578 c 1
 97 567 95 560 95 548 c 1
 103 541 106 536 106 527 c 0
 106 523 101 518 96 518 c 0
 85 518 78 527 78 544 c 0
 78 567 96 593 118 618 c 0
 140 642 165 659 163 698 c 1
 162 721 148 738 117 738 c 0
 87 738 68 726 49 697 c 1
 31 713 22 721 15 741 c 0
 13 747 19 745 21 745 c 0
 80 747 103 751 154 745 c 0
 173 743 193 729 192 708 c 1
 190 663 163 655 141 632 c 0
 130 620 135 620 139 615 c 0
 166 575 204 518 204 459 c 0
 204 407 182 372 137 369 c 0
 92 366 69 367 25 369 c 0
 22 369 14 369 17 375 c 0
 28 397 31 409 47 429 c 1
EndSplineSet
MinimumDistance: x5,-1 
EndChar
StartChar: twosuperior
Encoding: 26 178
Width: 297
HStem: 370 21<107.405 138> 741 8<152 159>
VStem: 67 13<416 448> 197 40<692 704>
Fore
214 427 m 1
 228 409 237 389 238 370 c 1
 204 370 146 370 89 370 c 0
 83 370 80 367 74 367 c 0
 64 367 67 398 67 417 c 0
 67 475 70 505 104 562 c 1
 139 617 197 662 197 702 c 0
 197 722 176 741 157 741 c 0
 134 741 105 717 85 693 c 1
 70 713 57 749 57 749 c 1
 101 749 135 749 184 749 c 0
 218 749 237 728 237 700 c 0
 237 632 169 608 126 550 c 0
 100 516 80 481 80 432 c 0
 80 424 86 391 116 391 c 0
 150 391 172 391 198 411 c 0
 205 417 208 420 214 427 c 1
EndSplineSet
MinimumDistance: x11,-1 
EndChar
StartChar: brokenbar
Encoding: 27 166
Width: 164
VStem: 38 20<-18 325 441 785>
Fore
38 782 m 0
 38 789 58 790 58 781 c 0
 58 774 58 453 58 444 c 0
 58 438 38 434 38 445 c 0
 38 454 38 656 38 782 c 0
38 322 m 0
 38 329 58 330 58 321 c 0
 58 314 58 -7 58 -16 c 0
 58 -22 38 -26 38 -15 c 0
 38 -6 38 196 38 322 c 0
EndSplineSet
MinimumDistance: x1,-1 
EndChar
StartChar: multiply
Encoding: 29 215
Width: 355
Fore
189 333 m 1
 205 348 217 357 237 372 c 1
 208 402 l 1
 193 381 184 369 168 354 c 1
 152 369 143 381 128 402 c 1
 99 372 l 1
 119 357 131 348 147 333 c 1
 131 318 120 309 100 294 c 1
 130 265 l 1
 144 285 154 296 168 311 c 1
 182 296 192 285 206 265 c 1
 236 294 l 1
 216 309 205 318 189 333 c 1
EndSplineSet
EndChar
StartChar: exclam
Encoding: 33 33
Width: 258
HStem: -14 88<107.43 115> 736 13<38 46.3061 174 188>
VStem: 96 34<122.369 147>
Fore
195 742 m 0
 195 738 193 736 189 736 c 0
 175 736 155 743 155 682 c 0
 155 661 130 249 130 131 c 0
 130 100 96 99 96 131 c 0
 96 149 71 662 71 682 c 0
 71 731 51 736 37 736 c 0
 33 736 31 738 31 742 c 0
 31 748 36 747 38 749 c 1
 188 749 l 1
 190 747 195 748 195 742 c 0
80 32 m 0
 81 53 95 75 116 74 c 0
 137 73 150 53 150 32 c 0
 150 10 137 -14 115 -14 c 0
 93 -14 79 10 80 32 c 0
EndSplineSet
MinimumDistance: x3,-1 
EndChar
StartChar: quotedbl
Encoding: 34 34
Width: 343
HStem: 730 20G<43 123 166 246>
Fore
43 750 m 1
 63 625 l 1
 103 625 l 1
 123 750 l 1
 43 750 l 1
166 750 m 1
 186 625 l 1
 226 625 l 1
 246 750 l 1
 166 750 l 1
EndSplineSet
EndChar
StartChar: numbersign
Encoding: 35 35
Width: 402
HStem: 168 31<133 229> 318 30<174 268>
DStem: 268 317 299 316 248 237 278 237
Fore
299 316 m 1
 318 315 338 314 362 312 c 1
 362 354 l 1
 342 352 325 351 309 350 c 1
 318 379 327 407 339 444 c 1
 297 444 l 1
 289 407 283 378 276 348 c 1
 257 348 238 348 214 348 c 0
 199 348 186 348 174 348 c 1
 182 377 191 407 204 444 c 1
 162 444 l 1
 154 407 148 378 141 349 c 1
 119 350 97 351 70 354 c 1
 70 312 l 1
 94 314 114 316 133 316 c 1
 127 293 121 267 113 237 c 1
 109 224 106 212 103 200 c 1
 84 201 64 202 41 204 c 1
 41 162 l 1
 61 164 77 165 93 166 c 1
 81 124 73 98 56 47 c 1
 98 47 l 1
 108 98 114 125 124 167 c 1
 143 168 162 168 185 168 c 0
 201 168 215 168 229 168 c 1
 217 126 208 100 191 47 c 1
 233 47 l 1
 244 99 249 125 259 167 c 1
 282 166 304 165 333 162 c 1
 333 204 l 1
 308 202 288 200 268 199 c 1
 271 211 274 224 278 237 c 1
 286 267 293 293 299 316 c 1
165 318 m 1
 180 318 196 318 214 318 c 0
 235 318 252 318 268 317 c 1
 262 293 256 268 248 237 c 1
 244 223 241 210 237 198 c 1
 222 198 205 198 185 198 c 0
 166 198 149 198 133 199 c 1
 136 211 139 223 143 237 c 1
 151 268 158 293 165 318 c 1
EndSplineSet
MinimumDistance: x0,-1 
EndChar
StartChar: dollar
Encoding: 36 36
Width: 493
HStem: 462 25.7007<261 276>
VStem: 70.9528 29.0472<232 237> 84 40<550 574> 208 42<230 256> 216 20<70 120 170 191 328 442 484 637 680 718> 354 60<326 348>
Fore
236 448 m 1
 236 314 l 1
 247 294 250 276 250 256 c 0
 250 232 246 222 236 204 c 1
 236 170 l 1
 304 203 354 262 354 342 c 0
 354 400 311 462 266 462 c 0
 253 462 246 456 236 448 c 1
216 190 m 1
 208 192 202 206 202 206 c 1
 206 214 208 221 208 230 c 0
 208 261 182 286 150 286 c 0
 122 286 100 260 100 232 c 0
 100 188 141 156 186 154 c 0
 198 154 204 156 216 158 c 1
 216 190 l 1
216 478 m 1
 216 646 l 1
 204 650 198 652 186 652 c 0
 151 652 124 613 124 574 c 0
 124 523 165 478 216 478 c 1
84 550 m 0
 84 610 126 666 216 680 c 1
 216 690 216 706 216 716 c 0
 216 730 236 732 236 714 c 0
 236 699 236 690 236 678 c 1
 269 667 300 664 330 638 c 0
 346 624 334 609 326 596 c 0
 317 582 308 574 292 568 c 1
 291 587 286 600 274 614 c 0
 263 627 252 631 236 638 c 1
 236 484 l 1
 253 488 264 488 282 488 c 0
 347 488 414 421 414 346 c 0
 414 232 330 143 236 120 c 1
 236 101 236 90 236 72 c 0
 236 60 216 52 216 74 c 0
 216 91 216 104 216 120 c 1
 167 117 70 170 70 246 c 0
 70 298 116 336 168 338 c 0
 187 339 199 336 216 328 c 1
 216 442 l 1
 204 441 196 439 184 440 c 0
 126 445 84 492 84 550 c 0
EndSplineSet
MinimumDistance: x30,-1 
EndChar
StartChar: percent
Encoding: 37 37
Width: 510
VStem: 0 37.9269<555 581> 182 31.0068<525 545> 245 37.9269<200 225> 427 31.1775<170 193>
Fore
376 716 m 1
 382 730 413 732 405 714 c 0
 398 699 99 58 90 40 c 1
 85 28 51 20 61 42 c 0
 69 59 258 464 376 716 c 1
309 341 m 0
 318 352 332 355 346 350 c 0
 407 325 427 248 427 171 c 0
 427 116 422 66 388 34 c 0
 381 28 370 29 361 35 c 0
 287 81 282 183 282 234 c 0
 282 277 285 311 309 341 c 0
334 386 m 0
 272 350 245 282 245 202 c 0
 245 118 261 48 335 4 c 0
 346 -2 354 0 366 4 c 0
 441 30 459 138 459 223 c 0
 459 294 437 360 378 387 c 0
 362 394 348 395 334 386 c 0
64 696 m 0
 73 707 87 710 101 705 c 0
 162 680 182 603 182 526 c 0
 182 471 177 421 143 389 c 0
 136 383 125 384 116 390 c 0
 42 436 37 538 37 589 c 0
 37 632 40 666 64 696 c 0
89 741 m 0
 27 705 0 637 0 557 c 0
 0 473 16 403 90 359 c 0
 101 353 109 355 121 359 c 0
 196 385 214 493 214 578 c 0
 214 649 192 715 133 742 c 0
 117 749 103 750 89 741 c 0
EndSplineSet
EndChar
StartChar: ampersand
Encoding: 38 38
Width: 603
HStem: 0 13<449 458> 0 19<265 313> 458 17.0375<304.461 327> 732 18<198 267 291 324>
VStem: 67 80<160 214> 94 57<639 664> 280 17<663 689> 341 84<50.4268 433>
Fore
280 674 m 0
 280 697 281 712 267 732 c 1
 246 732 228 732 205 732 c 0
 197 732 191 728 185 722 c 0
 161 699 151 674 151 640 c 0
 151 605 165 567 200 534 c 0
 216 519 222 522 232 540 c 0
 258 587 280 635 280 674 c 0
425 420 m 2
 425 67 l 2
 425 18 445 13 459 13 c 0
 463 13 465 11 465 7 c 0
 465 1 460 2 458 0 c 1
 196 0 l 2
 116 0 67 81 67 160 c 0
 67 292 133 393 193 490 c 0
 198 498 200 507 193 513 c 0
 145 556 94 595 94 664 c 0
 94 710 135 750 179 750 c 2
 448 750 l 1
 441 737 426 722 416 672 c 1
 400 687 392 699 372 711 c 0
 350 724 336 732 311 732 c 2
 291 732 l 1
 295 712 297 702 297 682 c 0
 297 619 262 570 228 503 c 0
 177 402 147 329 147 214 c 0
 147 127 173 33 259 19 c 0
 278 16 303 19 307 19 c 0
 321 19 341 20 341 67 c 0
 341 79 341 429 341 429 c 2
 341 441 338 458 327 458 c 0
 314 458 301 460 284 459 c 0
 269 458 265 471 286 473 c 0
 348 479 403 468 444 491 c 0
 470 506 498 530 495 549 c 1
 533 531 l 2
 543 526 551 521 551 510 c 0
 551 501 545 496 537 491 c 0
 500 466 469 471 439 456 c 0
 425 449 425 435 425 420 c 2
EndSplineSet
MinimumDistance: x7,-1 
EndChar
StartChar: quotesingle
Encoding: 39 39
Width: 209
HStem: 730 20G<43 123>
Fore
43 750 m 1
 63 625 l 1
 103 625 l 1
 123 750 l 1
 43 750 l 1
EndSplineSet
EndChar
StartChar: parenleft
Encoding: 40 40
Width: 402
VStem: 153 42<312 378>
Fore
294 786 m 1
 175 679 153 448 153 360 c 0
 153 177 181 70 261 -96 c 0
 276 -127 288 -128 276 -90 c 0
 205 128 195 174 195 345 c 0
 195 468 220 550 294 648 c 1
 296 674 300 688 300 714 c 0
 300 742 299 758 294 786 c 1
EndSplineSet
MinimumDistance: x4,-1 
EndChar
StartChar: parenright
Encoding: 41 41
Width: 402
VStem: 173 42<312 378>
Fore
215 360 m 0
 215 177 187 70 107 -96 c 0
 92 -127 80 -128 92 -90 c 0
 163 128 173 174 173 345 c 0
 173 468 148 550 74 648 c 1
 72 674 68 688 68 714 c 0
 68 742 69 758 74 786 c 1
 193 679 215 448 215 360 c 0
EndSplineSet
MinimumDistance: x0,-1 
EndChar
StartChar: asterisk
Encoding: 42 42
Width: 355
VStem: 142 52<210 212>
Fore
152 308 m 1
 151 275 148 239 142 212 c 1
 142 194 156 189 167 187 c 0
 179 185 194 194 194 212 c 1
 186 242 185 273 184 303 c 1
 210 287 234 271 258 249 c 1
 273 240 286 249 290 260 c 1
 295 271 299 284 283 295 c 1
 251 302 224 317 196 333 c 1
 225 349 255 364 284 371 c 1
 300 380 295 396 290 406 c 1
 286 418 272 424 256 415 c 1
 233 394 210 378 184 363 c 1
 185 394 186 426 194 455 c 1
 194 473 179 478 167 477 c 0
 156 476 144 475 142 455 c 1
 148 424 151 391 152 358 c 1
 123 376 100 391 76 416 c 1
 60 426 47 415 42 406 c 1
 34 396 30 380 46 370 c 1
 81 361 105 348 132 333 c 1
 105 318 81 307 48 296 c 1
 32 287 32 270 39 260 c 0
 46 251 56 244 74 252 c 1
 97 274 124 290 152 308 c 1
EndSplineSet
MinimumDistance: x3,-1 
EndChar
StartChar: plus
Encoding: 43 43
Width: 355
HStem: 318 30<182.031 206.591>
VStem: 152 30<348.031 372.591>
Fore
182 318 m 1
 204 318 219 316 244 312 c 1
 244 354 l 1
 219 350 204 348 182 348 c 1
 182 370 184 385 188 410 c 1
 146 410 l 1
 150 385 152 370 152 348 c 1
 131 349 116 350 92 354 c 1
 92 312 l 1
 116 316 131 317 152 318 c 1
 151 297 150 282 146 258 c 1
 188 258 l 1
 184 282 183 297 182 318 c 1
EndSplineSet
MinimumDistance: x0,-1 
EndChar
StartChar: comma
Encoding: 44 44
Width: 264
Fore
88 -58 m 1
 78 -50 l 1
 87 -44 92 -39 98 -30 c 0
 105 -19 110 -10 108 2 c 1
 105 1 102 0 98 0 c 0
 76 0 62 24 63 46 c 0
 64 67 78 86 99 88 c 0
 126 91 143 62 143 36 c 0
 143 -5 129 -35 88 -58 c 1
EndSplineSet
EndChar
StartChar: hyphen
Encoding: 45 45
Width: 355
HStem: 318 30<139 189>
Fore
92 354 m 1
 92 312 l 1
 121 317 138 318 167 318 c 0
 197 318 214 317 244 312 c 1
 244 354 l 1
 214 349 197 348 167 348 c 0
 138 348 121 349 92 354 c 1
EndSplineSet
EndChar
StartChar: period
Encoding: 46 46
Width: 264
Fore
63 46 m 0
 64 67 78 89 99 88 c 0
 120 87 133 67 133 46 c 0
 133 24 120 0 98 0 c 0
 76 0 62 24 63 46 c 0
EndSplineSet
EndChar
StartChar: slash
Encoding: 47 47
Width: 510
Fore
366 716 m 1
 372 730 403 732 395 714 c 0
 388 699 89 58 80 40 c 1
 75 28 41 20 51 42 c 0
 59 59 248 464 366 716 c 1
EndSplineSet
EndChar
StartChar: zero
Encoding: 48 48
Width: 532
VStem: 38 74<397 462>
Fore
166 676 m 0
 118 617 112 548 112 462 c 0
 112 360 123 157 270 64 c 0
 289 52 310 49 324 62 c 0
 393 125 402 225 402 336 c 0
 402 489 363 644 240 694 c 0
 213 705 184 699 166 676 c 0
216 766 m 0
 245 783 273 782 304 768 c 0
 423 715 466 582 466 440 c 0
 466 271 430 53 280 2 c 0
 257 -6 240 -11 218 2 c 0
 69 90 38 229 38 398 c 0
 38 557 92 693 216 766 c 0
EndSplineSet
MinimumDistance: x1,-1 
EndChar
StartChar: one
Encoding: 49 49
Width: 355
HStem: 0 13<141 149.306 287 291> 730 20G<182 242>
VStem: 174 84<49.5111 689>
Fore
154 700 m 0
 133 682 124 670 112 648 c 0
 100 626 103 616 102 584 c 1
 101 562 96 534 74 534 c 0
 56 534 48 556 48 574 c 0
 48 600 60 624 80 648 c 0
 114 689 138 717 182 750 c 1
 242 750 l 2
 251 750 258 750 258 735 c 0
 258 617 258 88 258 67 c 0
 258 6 278 13 292 13 c 0
 296 13 298 11 298 7 c 0
 298 1 293 2 291 0 c 1
 141 0 l 1
 139 2 134 1 134 7 c 0
 134 11 136 13 140 13 c 0
 154 13 174 18 174 67 c 2
 174 683 l 2
 174 709 162 707 154 700 c 0
EndSplineSet
MinimumDistance: x8,-1 
EndChar
StartChar: two
Encoding: 50 50
Width: 593
HStem: 0 41<225 275> 742 16<305 323>
VStem: 135 25<94 139> 394 80<658 667>
Fore
428 113 m 1
 456 78 474 37 476 0 c 1
 407 0 291 0 178 0 c 0
 166 0 160 -6 148 -6 c 0
 128 -6 135 56 135 95 c 0
 135 211 139 270 209 384 c 0
 277 495 394 585 394 665 c 0
 394 704 351 742 314 742 c 0
 268 742 210 694 169 647 c 1
 140 687 114 758 114 758 c 1
 202 758 270 758 369 758 c 0
 437 758 474 715 474 660 c 0
 474 523 339 476 251 359 c 0
 200 291 160 222 160 124 c 0
 160 107 173 41 233 41 c 0
 300 41 343 43 396 83 c 0
 410 94 417 100 428 113 c 1
EndSplineSet
MinimumDistance: x11,-1 
EndChar
StartChar: three
Encoding: 51 51
Width: 460
HStem: -5.87643 25.8764<190 214> 736 20.0986<213 240>
VStem: 156 56<314 348> 156.33 33.6696<355 362>
Fore
94 118 m 1
 98 62 149 20 206 20 c 0
 297 20 335 154 334 260 c 1
 333 350 306 410 238 470 c 1
 220 452 211 439 202 416 c 0
 193 394 190 380 190 356 c 1
 206 342 212 332 212 314 c 0
 212 305 202 296 192 296 c 0
 170 296 156 315 156 348 c 0
 156 395 191 446 236 496 c 0
 280 545 330 579 326 656 c 1
 324 702 295 736 234 736 c 0
 173 736 136 711 98 654 c 1
 62 686 43 702 30 742 c 0
 26 754 37 750 42 750 c 0
 160 755 205 761 308 750 c 0
 345 746 386 717 384 676 c 1
 380 586 325 570 282 524 c 0
 259 500 271 501 278 490 c 0
 333 410 408 295 408 178 c 0
 408 74 364 4 274 -2 c 0
 184 -8 138 -7 50 -2 c 0
 44 -2 28 -2 34 10 c 0
 56 53 63 78 94 118 c 1
EndSplineSet
MinimumDistance: x5,-1 
EndChar
StartChar: four
Encoding: 52 52
Width: 510
HStem: 0 13<257 265.306 405 407> 204 26<245 274> 709.737 40.2629<279 283>
VStem: 290 84<49.5111 193 252 689>
Fore
210 739 m 0
 210 753 254 750 258 750 c 2
 358 750 l 2
 367 750 374 750 374 735 c 0
 374 661 374 425 374 254 c 0
 374 242 375 232 382 234 c 0
 409 243 424 253 446 282 c 1
 443 259 445 249 438 222 c 0
 436 214 434 202 422 204 c 0
 409 206 399 206 386 206 c 0
 376 206 374 195 374 184 c 0
 374 119 374 73 374 67 c 0
 374 6 394 13 408 13 c 0
 412 13 414 11 414 7 c 0
 414 1 409 2 407 0 c 1
 257 0 l 1
 255 2 250 1 250 7 c 0
 250 11 252 13 256 13 c 0
 270 13 290 18 290 67 c 2
 290 67 290 112 290 178 c 0
 290 193 290 204 270 204 c 0
 220 203 128 198 70 198 c 0
 49 198 37 208 38 242 c 1
 43 402 132 476 190 628 c 0
 204 664 207 687 218 724 c 1
 213 730 210 726 210 739 c 0
290 256 m 0
 290 433 290 672 290 683 c 0
 290 719 279 711 272 704 c 0
 169 589 120 449 120 330 c 0
 120 288 128 230 172 230 c 0
 205 230 232 230 268 230 c 0
 278 230 290 234 290 256 c 0
EndSplineSet
MinimumDistance: x3,-1 
EndChar
StartChar: five
Encoding: 53 53
Width: 514
HStem: -12 20<183 214> -12 103.396<84 90> 424.161 43.5253<245 251> 455.566 23.9856<146 169> 708 29.0513<198.508 256 256.031 266.815>
VStem: 346 84<204 232>
Fore
152 674 m 0
 139 610 130 567 118 502 c 0
 114 481 120 477 130 478 c 0
 169 482 190 482 228 472 c 0
 238 469 249 464 254 472 c 0
 296 537 320 586 322 638 c 1
 323 673 293 708 256 708 c 0
 215 708 160 714 152 674 c 0
160 738 m 0
 238 735 311 740 374 740 c 0
 397 740 396 729 392 720 c 0
 351 632 319 557 268 472 c 0
 264 466 271 459 276 456 c 0
 377 396 430 321 430 206 c 0
 430 95 357 -12 254 -12 c 0
 181 -12 127 -12 66 -12 c 0
 57 -12 41 -10 46 4 c 0
 58 35 61 51 76 80 c 0
 85 97 91 94 92 82 c 0
 95 46 148 8 198 8 c 0
 302 8 346 127 346 232 c 0
 346 311 325 371 264 418 c 0
 258 422 248 429 244 422 c 0
 223 383 184 314 184 260 c 0
 184 243 184 228 198 218 c 0
 203 214 207 216 212 212 c 0
 218 207 222 203 222 196 c 0
 222 177 207 162 188 162 c 0
 162 162 152 193 152 218 c 0
 152 296 185 350 226 418 c 0
 231 426 229 439 220 442 c 0
 180 457 157 457 110 454 c 0
 95 453 84 444 90 466 c 0
 112 548 127 631 140 726 c 1
 142 744 151 738 160 738 c 0
EndSplineSet
MinimumDistance: x12,-1 
EndChar
StartChar: six
Encoding: 54 54
Width: 514
HStem: 430 60<230 264>
VStem: 54 82<291 325>
Fore
136 310 m 0
 136 193 229 18 324 18 c 0
 386 18 396 87 396 144 c 0
 396 232 346 430 230 430 c 0
 170 430 136 378 136 310 c 0
142 410 m 1
 174 464 224 490 264 490 c 0
 383 490 448 322 448 206 c 0
 448 100 389 -12 286 -12 c 0
 185 -12 54 104 54 300 c 0
 54 509 167 739 408 756 c 0
 422 757 427 750 424 742 c 0
 416 718 413 707 398 688 c 0
 391 679 382 683 374 688 c 0
 353 702 341 710 318 710 c 0
 203 710 142 484 142 410 c 1
EndSplineSet
MinimumDistance: x0,-1 
EndChar
StartChar: seven
Encoding: 55 55
Width: 472
HStem: 627.688 115.523<91 98> 712 32.0466<362.016 370.431>
Fore
252 240 m 0
 252 152 276 80 310 22 c 0
 314 15 318 3 310 2 c 0
 278 -3 253 -4 218 -2 c 0
 210 -2 205 4 202 10 c 0
 179 57 178 90 178 142 c 0
 178 357 261 500 374 688 c 0
 379 696 382 713 362 712 c 0
 257 707 164 704 106 636 c 0
 94 621 88 629 82 636 c 0
 58 667 50 685 38 722 c 1
 35 730 27 742 44 742 c 0
 182 746 258 744 402 744 c 0
 422 744 422 737 418 730 c 0
 337 599 252 439 252 240 c 0
EndSplineSet
EndChar
StartChar: eight
Encoding: 56 56
Width: 514
HStem: -10 26<234 263> 734 22<229 250>
VStem: 54 68.6154<190 215> 86 72<658 672> 326 74<658 672> 360 74<165 203>
Fore
240 464 m 1
 169 419 122 326 122 220 c 0
 122 127 139 16 248 16 c 0
 352 16 360 117 360 200 c 0
 360 312 311 414 240 464 c 1
244 506 m 1
 293 545 326 604 326 660 c 0
 326 724 289 734 236 734 c 0
 179 734 158 707 158 662 c 0
 158 597 186 546 244 506 c 1
202 468 m 0
 217 484 225 486 202 510 c 0
 159 554 86 599 86 670 c 0
 86 741 155 756 246 756 c 0
 329 756 400 737 400 668 c 0
 400 596 329 547 278 496 c 0
 262 480 267 476 278 466 c 0
 365 387 434 304 434 176 c 0
 434 12 359 -10 244 -10 c 0
 93 -10 54 57 54 192 c 0
 54 313 122 383 202 468 c 0
EndSplineSet
MinimumDistance: x15,-1 
EndChar
StartChar: nine
Encoding: 57 57
Width: 514
HStem: 258 60<246 280>
VStem: 374 82<419 453>
Fore
374 434 m 0
 374 551 281 726 186 726 c 0
 124 726 114 657 114 600 c 0
 114 512 170 318 280 318 c 0
 340 318 374 366 374 434 c 0
368 334 m 1
 330 284 280 258 246 258 c 0
 127 258 62 422 62 538 c 0
 62 644 121 756 224 756 c 0
 325 756 456 640 456 444 c 0
 456 235 336 5 102 -12 c 0
 80 -14 83 -6 86 2 c 0
 94 26 97 37 112 56 c 0
 119 65 128 61 136 56 c 0
 157 42 169 36 192 36 c 0
 305 36 368 260 368 334 c 1
EndSplineSet
MinimumDistance: x8,-1 
EndChar
StartChar: less
Encoding: 60 60
Width: 420
VStem: 231.942 65.3193<522 530>
Fore
292 505 m 1
 264 430 191 386 114 344 c 0
 99 336 74 325 74 325 c 1
 82 317 112 307 122 301 c 0
 188 263 218 236 256 179 c 0
 281 141 284 103 291 67 c 1
 291 60 285 55 277 54 c 0
 230 45 264 51 216 43 c 1
 221 62 223 95 220 144 c 0
 216 210 168 246 114 286 c 0
 91 303 70 309 40 328 c 1
 40 328 90 349 112 362 c 0
 137 376 204 441 226 492 c 0
 240 525 226 541 222 560 c 1
 246 556 261 554 284 549 c 0
 292 548 306 541 292 505 c 1
EndSplineSet
EndChar
StartChar: equal
Encoding: 61 61
Width: 295
HStem: 273 28<111 177> 363 28<111 177>
Fore
64 307 m 1
 96 302 115 301 147 301 c 0
 180 301 199 302 232 307 c 1
 232 267 l 1
 199 272 180 273 147 273 c 0
 115 273 96 272 64 267 c 1
 64 307 l 1
64 397 m 1
 96 392 115 391 147 391 c 0
 180 391 199 392 232 397 c 1
 232 357 l 1
 199 362 180 363 147 363 c 0
 115 363 96 362 64 357 c 1
 64 397 l 1
EndSplineSet
EndChar
StartChar: greater
Encoding: 62 62
Width: 420
VStem: 84.7387 65.3193<522 530>
Fore
90 505 m 0
 76 541 90 548 98 549 c 0
 121 554 136 556 160 560 c 1
 156 541 142 525 156 492 c 0
 178 441 245 376 270 362 c 0
 292 349 342 328 342 328 c 1
 312 309 291 303 268 286 c 0
 214 246 166 210 162 144 c 0
 159 95 161 62 166 43 c 1
 118 51 152 45 105 54 c 0
 97 55 91 60 91 67 c 1
 98 103 101 141 126 179 c 0
 164 236 194 263 260 301 c 0
 270 307 300 317 308 325 c 1
 308 325 283 336 268 344 c 0
 191 386 118 430 90 505 c 0
EndSplineSet
EndChar
StartChar: question
Encoding: 63 63
Width: 495
HStem: 0 88<201 201.969> 497.788 18.2123<143 154> 737 24<193 218>
VStem: 57 17<607 625> 166 70<35.2737 45.9688> 186 24<159 177> 203 61<575 581> 359 60<543 561>
Fore
206 761 m 0
 354 761 419 670 419 546 c 0
 419 442 335 420 276 342 c 0
 242 297 210 233 210 168 c 0
 210 156 206 152 199 152 c 0
 192 152 186 150 186 167 c 0
 186 245 192 284 240 361 c 0
 280 425 359 477 359 549 c 0
 359 603 346 737 205 737 c 0
 134 737 74 674 74 610 c 0
 74 564 108 516 144 516 c 0
 177 516 203 545 203 578 c 0
 203 598 183 625 156 632 c 1
 170 640 179 645 195 645 c 0
 232 645 264 614 264 577 c 0
 264 524 215 497 166 497 c 0
 102 497 57 553 57 616 c 0
 57 697 136 761 206 761 c 0
166 46 m 0
 167 67 181 89 202 88 c 0
 223 87 236 67 236 46 c 0
 236 24 223 0 201 0 c 0
 179 0 165 24 166 46 c 0
EndSplineSet
MinimumDistance: x1,-1 
EndChar
StartChar: at
Encoding: 64 64
Width: 554
HStem: 60 40<257.479 491> 164 14<290 306> 164 35<391 402> 434 11<278 294> 520 21<261.149 282> 615 40<257.641 294>
VStem: 33 37<331 380> 168 43<279 311> 174.719 30.8546<480 482> 333 43<219 399 426 459> 482 37<355 399>
Fore
333 205 m 0
 333 214 333 397 333 397 c 2
 333 417 308 434 291 434 c 0
 240 434 211 389 211 311 c 0
 211 210 273 178 300 178 c 0
 317 178 333 187 333 205 c 0
276 60 m 0
 145 59 33 193 33 357 c 0
 33 521 145 655 276 655 c 0
 407 655 519 515 519 378 c 0
 519 252 442 164 393 164 c 2
 393 164 309 164 279 164 c 0
 220 164 168 220 168 280 c 0
 168 390 201 445 291 445 c 0
 308 445 320 436 323 433 c 0
 326 431 333 422 333 428 c 0
 333 430 333 454 333 469 c 0
 333 502 309 520 275 520 c 0
 240 520 177 497 220 457 c 1
 209 442 204 439 183 432 c 1
 146 518 231 541 276 541 c 0
 335 541 376 503 376 442 c 0
 376 432 376 235 376 226 c 0
 376 208 386 199 393 199 c 0
 431 199 482 270 482 378 c 0
 482 498 390 615 276 615 c 0
 162 615 70 499 70 357 c 0
 70 215 162 100 276 100 c 0
 304 100 491 100 491 100 c 1
 491 60 l 1
 491 60 360 60 276 60 c 0
EndSplineSet
MinimumDistance: x8,-1 
EndChar
StartChar: A
Encoding: 65 65
Width: 465
HStem: 0 21G<24 127 298 432> 491 21<231 267> 531 18<246 267> 734 18<246 315>
VStem: 70 77<561 610> 330 77<45 465 507 515 547 705>
Fore
154 274 m 0
 154 396 70 476 70 610 c 0
 70 692 98 709 98 722 c 0
 98 739 78 738 78 747 c 0
 78 751 85 752 88 753 c 1
 88 753 194 752 261 752 c 0
 320 752 348 753 413 753 c 1
 424 749 442 755 442 743 c 0
 442 732 407 732 407 703 c 0
 407 447 407 302 407 47 c 0
 407 8 437 16 437 6 c 0
 437 3 434 2 432 0 c 1
 298 0 l 1
 296 2 293 2 293 6 c 0
 293 20 330 5 330 51 c 0
 330 206 330 296 330 451 c 0
 330 477 327 478 309 483 c 0
 288 489 272 491 248 491 c 0
 215 491 191 488 164 475 c 0
 156 471 156 470 156 457 c 0
 156 376 178 337 178 196 c 0
 178 117 173 66 127 0 c 1
 24 0 l 1
 109 84 154 193 154 274 c 0
248 512 m 0
 275 512 291 507 318 501 c 0
 332 498 331 516 324 518 c 0
 297 526 275 531 255 531 c 0
 231 531 193 526 159 511 c 0
 148 506 152 488 168 494 c 0
 201 507 216 512 248 512 c 0
147 562 m 0
 147 540 144 522 164 530 c 0
 199 544 222 549 259 549 c 0
 281 549 294 546 315 540 c 0
 329 536 331 546 331 554 c 0
 331 594 331 641 331 696 c 0
 331 723 324 732 307 732 c 0
 292 732 281 734 264 734 c 0
 248 734 238 733 222 731 c 0
 159 724 147 641 147 562 c 0
EndSplineSet
MinimumDistance: x8,-1 
EndChar
StartChar: B
Encoding: 66 66
Width: 471
HStem: 0 13<39 47.3061> 0 19<178.296 232> 731 19<156 206 230 299> 737 13<36 42>
VStem: 72 84<50.4268 689> 200 17<663 689> 346 57<639 664> 350 80<160 214>
Fore
156 731 m 1
 156 613 156 88 156 67 c 0
 156 20 176 19 190 19 c 0
 194 19 219 16 238 19 c 0
 324 33 350 127 350 214 c 0
 350 329 320 402 269 503 c 0
 235 570 200 619 200 682 c 0
 200 702 202 711 206 731 c 5
 156 731 l 1
318 750 m 2
 362 750 403 710 403 664 c 0
 403 595 352 556 304 513 c 0
 297 507 299 498 304 490 c 0
 364 393 430 292 430 160 c 0
 430 81 381 0 301 0 c 2
 39 0 l 1
 37 2 32 1 32 7 c 0
 32 11 34 13 38 13 c 0
 52 13 72 18 72 67 c 2
 72 67 72 665 72 683 c 0
 72 719 52 737 38 737 c 0
 34 737 32 739 32 743 c 0
 32 749 36 750 39 750 c 2
 318 750 l 2
346 640 m 0
 346 674 336 699 312 722 c 0
 306 728 300 732 292 732 c 0
 269 732 251 732 230 732 c 1
 216 712 217 697 217 674 c 0
 217 635 239 587 265 540 c 0
 275 522 281 519 297 534 c 0
 332 567 346 605 346 640 c 0
EndSplineSet
MinimumDistance: x12,-1 
EndChar
StartChar: C
Encoding: 67 67
Width: 460
HStem: -10 28<348 367> 732 18<305 313>
VStem: 82 87<405 455>
Fore
439 750 m 1
 417 708 399 683 367 651 c 1
 363 669 367 680 358 696 c 0
 347 716 334 732 311 732 c 0
 199 732 169 532 169 425 c 0
 169 248 227 18 362 18 c 0
 396 18 415 21 445 37 c 1
 418 6 391 -10 350 -10 c 0
 317 -10 247 28 198 80 c 0
 124 158 82 295 82 432 c 0
 82 606 203 750 278 750 c 0
 341 750 376 750 439 750 c 1
EndSplineSet
MinimumDistance: x4,-1 
EndChar
StartChar: D
Encoding: 68 68
Width: 471
HStem: 0 21G<39 155> 0.0956018 16.9044<162 180> 737 13<36 42>
VStem: 72 84<49.5111 689> 350 80<288 356>
Fore
350 356 m 0
 350 497 274 676 178 718 c 0
 156 728 156 718 156 705 c 0
 156 467 156 88 156 67 c 0
 156 12 160 17 174 17 c 0
 247 17 350 146 350 356 c 0
430 288 m 0
 430 107 310 0 155 0 c 2
 39 0 l 2
 36 0 32 1 32 7 c 0
 32 11 34 13 38 13 c 0
 52 13 72 18 72 67 c 2
 72 67 72 665 72 683 c 0
 72 719 52 737 38 737 c 0
 34 737 32 739 32 743 c 0
 32 749 36 750 39 750 c 2
 122 750 l 2
 176 750 217 724 263 677 c 0
 346 593 430 457 430 288 c 0
EndSplineSet
MinimumDistance: x5,-1 
EndChar
StartChar: E
Encoding: 69 69
Width: 471
HStem: 474 21<166 241> 738.869 13.1307<39 43>
VStem: 72 84<121 466 503.296 697>
Fore
168 36 m 0
 186 28 198 27 218 27 c 0
 288 27 361 77 388 123 c 0
 390 126 393 135 400 129 c 0
 420 112 435 102 448 89 c 0
 453 84 453 75 448 70 c 0
 402 23 346 -15 292 -15 c 0
 226 -15 176 14 111 47 c 0
 94 56 83 64 63 64 c 0
 55 64 50 64 43 62 c 0
 34 60 28 66 40 73 c 0
 54 81 72 97 72 132 c 2
 72 132 72 665 72 683 c 0
 72 719 52 739 38 739 c 0
 34 739 32 741 32 745 c 0
 32 751 35 750 39 752 c 0
 45 755 51 751 58 751 c 0
 244 751 210 756 300 756 c 0
 348 756 396 735 412 701 c 0
 416 693 413 692 409 689 c 0
 387 673 375 663 352 648 c 0
 349 646 344 643 341 652 c 0
 332 679 327 696 304 713 c 0
 283 728 264 730 239 731 c 0
 218 732 190 732 173 731 c 0
 160 730 156 727 156 718 c 0
 156 680 156 602 156 513 c 0
 156 506 156 495 170 495 c 0
 192 495 205 495 233 495 c 0
 270 495 323 514 359 552 c 0
 362 556 365 563 369 560 c 0
 386 545 394 540 410 528 c 0
 413 526 412 522 409 519 c 0
 359 479 326 474 268 474 c 0
 230 474 208 474 171 474 c 0
 156 474 156 466 156 457 c 0
 156 279 156 212 156 67 c 0
 156 55 156 41 168 36 c 0
EndSplineSet
MinimumDistance: x25,-1 
EndChar
StartChar: F
Encoding: 70 70
Width: 393
HStem: -59 20<234 257> 415.185 23.8148<207 221> 735 17.8865<233.511 251 251.125 273.213> 738.869 13.1307<39 43>
VStem: 72 84<36 406 448 662> 328 12<324.02 353.973 354.031 372.224>
Fore
268 418 m 0
 230 414 208 414 171 418 c 0
 156 420 156 410 156 401 c 0
 156 223 156 196 156 51 c 0
 156 -7 205 -39 238 -39 c 0
 264 -39 266 -41 282 -34 c 0
 291 -30 294 -23 304 -20 c 0
 316 -17 328 -11 334 -22 c 0
 339 -31 334 -42 326 -46 c 0
 307 -56 303 -52 288 -54 c 0
 268 -57 256 -59 236 -59 c 0
 175 -59 161 -28 101 -28 c 0
 78 -28 50 -28 43 -30 c 0
 34 -32 28 -26 40 -19 c 0
 54 -11 72 5 72 40 c 2
 72 40 72 665 72 683 c 0
 72 719 52 739 38 739 c 0
 34 739 32 741 32 745 c 0
 32 751 35 750 39 752 c 0
 45 755 51 751 58 751 c 0
 244 751 340 756 430 756 c 0
 448 756 448 751 448 742 c 0
 448 714 440 683 428 648 c 1
 402 569 377 530 358 450 c 0
 349 413 340 392 340 354 c 0
 340 321 342 300 356 270 c 0
 360 261 363 256 369 247 c 0
 374 239 377 231 371 224 c 0
 364 216 351 229 345 238 c 0
 339 248 340 258 338 271 c 1
 332 302 327 322 328 354 c 1
 328 378 333 393 336 416 c 0
 337 424 331 434 324 432 c 0
 306 428 288 420 268 418 c 0
386 619 m 0
 386 646 374 735 251 735 c 0
 172 735 156 679 156 658 c 0
 156 620 156 546 156 457 c 0
 156 450 156 439 170 439 c 0
 192 439 195 437 221 439 c 0
 258 442 386 494 386 619 c 0
EndSplineSet
MinimumDistance: x24,-1 
EndChar
StartChar: G
Encoding: 71 71
Width: 502
HStem: 735 36<308 333>
VStem: 61 99<346 396> 373 85<138 444> 373 90.6361<-6 12>
Fore
61 374 m 0
 61 562 178 771 333 771 c 0
 383 771 438 748 480 691 c 0
 492 675 483 671 475 663 c 0
 451 641 434 632 399 612 c 1
 399 612 393 616 392 620 c 0
 391 624 396 627 396 631 c 1
 392 701 337 735 309 735 c 0
 216 735 160 528 160 377 c 0
 160 207 190 22 351 -17 c 0
 369 -21 373 -10 373 1 c 0
 373 170 373 293 373 438 c 0
 373 475 350 512 312 515 c 0
 292 517 277 510 262 498 c 0
 249 487 237 500 249 511 c 0
 272 532 293 536 324 536 c 0
 356 536 374 533 406 533 c 0
 423 533 438 534 449 538 c 0
 458 541 460 537 460 530 c 0
 460 522 458 515 458 505 c 1
 457 383 458 315 458 193 c 0
 458 101 464 48 464 -44 c 0
 464 -51 455 -53 450 -53 c 0
 223 -62 61 149 61 374 c 0
EndSplineSet
EndChar
StartChar: H
Encoding: 72 72
Width: 496
HStem: 0 21G<46 182 327 463> 730 20G<46 182 327 463>
VStem: 72 84<63 353 392 417 455 689> 353 84<63 424 463 491 527.826 689>
Fore
342 432 m 0
 331 427 322 425 308 422 c 0
 276 416 256 416 225 407 c 0
 200 400 186 388 169 372 c 0
 160 364 156 359 156 342 c 0
 156 236 156 85 156 67 c 0
 156 6 186 8 186 4 c 0
 186 2 185 1 182 0 c 2
 46 0 l 1
 44 2 42 2 42 4 c 0
 42 8 72 18 72 67 c 2
 72 67 72 665 72 683 c 0
 72 732 42 742 42 746 c 0
 42 748 44 748 46 750 c 1
 182 750 l 2
 185 749 186 748 186 746 c 0
 186 742 156 744 156 683 c 0
 156 665 156 490 156 472 c 0
 156 452 157 443 175 455 c 0
 196 469 212 475 236 478 c 0
 257 481 272 481 293 487 c 0
 316 493 329 500 349 518 c 0
 353 521 353 546 353 546 c 1
 353 564 353 665 353 683 c 0
 353 741 323 742 323 746 c 0
 323 750 325 748 327 750 c 1
 463 750 l 2
 466 749 467 748 467 746 c 0
 467 742 437 732 437 683 c 0
 437 665 437 67 437 67 c 2
 437 18 467 8 467 4 c 0
 467 2 466 1 463 0 c 2
 327 0 l 1
 325 2 323 0 323 4 c 0
 323 8 353 9 353 67 c 0
 353 85 353 281 353 413 c 0
 353 426 349 435 342 432 c 0
156 415 m 0
 156 408 156 402 156 395 c 0
 156 389 165 390 171 394 c 0
 193 410 204 417 228 423 c 0
 258 431 277 428 306 436 c 0
 323 441 332 445 347 455 c 0
 351 458 353 463 353 468 c 0
 353 475 353 480 353 485 c 0
 353 495 346 493 339 489 c 0
 323 480 317 476 299 471 c 0
 272 464 258 463 230 460 c 0
 201 457 185 446 164 426 c 0
 160 423 156 420 156 415 c 0
EndSplineSet
MinimumDistance: x28,-1 
EndChar
StartChar: I
Encoding: 73 73
Width: 216
HStem: 0 13<39 47.3061 175 189> 737 13<38 42>
VStem: 72 84<49.5111 689>
Fore
39 0 m 1
 37 2 32 1 32 7 c 0
 32 11 34 13 38 13 c 0
 52 13 72 18 72 67 c 2
 72 67 72 665 72 683 c 0
 72 719 52 737 38 737 c 0
 34 737 32 739 32 743 c 0
 32 749 37 748 39 750 c 1
 140 750 l 2
 149 750 156 750 156 735 c 0
 156 617 156 88 156 67 c 0
 156 6 176 13 190 13 c 0
 194 13 196 11 196 7 c 0
 196 1 191 2 189 0 c 1
 39 0 l 1
EndSplineSet
MinimumDistance: x9,-1 
EndChar
StartChar: J
Encoding: 74 74
Width: 192
HStem: 737 13<38 42>
VStem: 72 84<171 685>
Fore
45 11 m 0
 64 44 72 128 72 177 c 2
 72 177 72 665 72 683 c 0
 72 719 52 737 38 737 c 0
 34 737 32 739 32 743 c 0
 32 749 37 748 39 750 c 1
 140 750 l 2
 149 750 156 750 156 735 c 0
 156 617 156 210 156 189 c 0
 156 102 101 17 93 5 c 0
 88 -3 29 -83 -58 -114 c 0
 -62 -115 -63 -116 -67 -116 c 0
 -71 -116 -77 -113 -77 -108 c 0
 -77 -103 -74 -102 -72 -101 c 0
 -20 -76 13 -44 45 11 c 0
EndSplineSet
MinimumDistance: x7,-1 
EndChar
StartChar: K
Encoding: 75 75
Width: 465
HStem: 0 13<39 47.3061 158 163> 737 13<38 42>
VStem: 32 138<3 11> 72 84<49.5111 581 671 694> 337 67<648 692> 343.091 82.9088<65 97>
Fore
156 579 m 0
 156 380 156 83 156 67 c 0
 156 6 157 13 164 13 c 0
 168 13 170 11 170 7 c 0
 170 1 165 2 163 0 c 1
 39 0 l 1
 37 2 32 1 32 7 c 0
 32 11 34 13 38 13 c 0
 52 13 72 18 72 67 c 2
 72 67 72 665 72 683 c 0
 72 719 52 737 38 737 c 0
 34 737 32 739 32 743 c 0
 32 749 37 748 39 750 c 1
 140 750 l 2
 149 750 156 750 156 735 c 0
 156 722 156 703 156 681 c 0
 156 663 162 656 167 641 c 0
 185 583 199 547 232 498 c 0
 236 492 244 493 249 498 c 0
 294 539 337 586 337 648 c 0
 337 685 318 721 283 750 c 1
 385 750 l 1
 400 732 404 716 404 692 c 0
 404 595 332 534 258 486 c 0
 244 477 251 473 255 466 c 0
 336 333 426 211 426 74 c 0
 426 53 425 35 428 19 c 1
 429 12 439 10 444 8 c 0
 447 7 449 6 449 3 c 0
 449 1 444 0 440 0 c 2
 332 0 l 2
 329 0 326 3 326 7 c 0
 326 12 329 13 331 18 c 0
 346 54 344 78 344 117 c 1
 343 216 304 327 247 433 c 0
 225 475 197 520 172 570 c 0
 166 582 156 594 156 579 c 0
EndSplineSet
MinimumDistance: x25,-1 
EndChar
StartChar: L
Encoding: 76 76
Width: 435
HStem: 0 19<196 230> 730 20G<65 201>
VStem: 91 84<32.5387 685>
Fore
210 19 m 0
 247 19 281 28 326 60 c 0
 347 75 353 106 352 126 c 1
 383 112 407 94 426 67 c 0
 430 61 426 54 421 49 c 0
 386 13 327 0 309 0 c 2
 309 0 133 0 86 0 c 0
 79 0 72 -5 67 -5 c 0
 62 -5 53 0 53 4 c 0
 53 13 61 13 66 13 c 0
 68 13 73 9 76 10 c 0
 94 13 91 38 91 67 c 0
 91 85 91 462 91 683 c 0
 91 741 61 742 61 746 c 0
 61 750 63 748 65 750 c 1
 201 750 l 2
 204 749 205 748 205 746 c 0
 205 742 175 710 175 683 c 2
 175 42 l 2
 175 19 188 19 210 19 c 0
EndSplineSet
MinimumDistance: x17,-1 
EndChar
StartChar: M
Encoding: 77 77
Width: 575
HStem: 0 13<535 537> 737 13<386 392 531 537>
VStem: 86 32<76 641> 410.968 133.032<5 11> 420 84<63 609>
Fore
406 604 m 1
 377 511 345 429 310 326 c 1
 303 304 301 293 310 266 c 0
 332 201 344 160 344 90 c 0
 344 55 338 33 328 0 c 1
 228 0 l 1
 258 48 276 100 276 168 c 0
 276 249 220 409 136 632 c 1
 124 665 118 645 118 632 c 2
 118 94 l 2
 118 67 120 48 140 30 c 0
 149 22 166 19 166 8 c 0
 166 0 154 0 146 0 c 2
 54 0 l 2
 46 0 36 0 36 10 c 0
 36 21 55 18 64 26 c 0
 80 41 86 56 86 78 c 2
 86 654 l 2
 86 688 79 715 52 736 c 0
 48 739 41 739 40 744 c 0
 38 752 52 750 60 750 c 2
 136 750 l 2
 146 750 165 754 162 744 c 0
 160 737 153 739 148 734 c 0
 140 725 137 715 136 702 c 1
 134 683 141 671 148 654 c 0
 192 541 234 459 270 368 c 0
 281 340 289 349 296 366 c 0
 348 492 352 536 392 650 c 0
 400 673 404 697 404 714 c 0
 404 724 400 737 386 737 c 0
 382 737 380 739 380 743 c 0
 380 749 385 748 387 750 c 1
 537 750 l 1
 539 748 544 749 544 743 c 0
 544 739 542 737 538 737 c 0
 524 737 504 732 504 683 c 2
 504 683 504 85 504 67 c 0
 504 31 524 13 538 13 c 0
 542 13 544 11 544 7 c 0
 544 1 539 2 537 0 c 1
 428 0 l 2
 419 0 410 -2 410 13 c 0
 410 21 420 33 420 46 c 0
 420 187 420 604 420 604 c 2
 420 639 408 609 406 604 c 1
EndSplineSet
MinimumDistance: x36,-1 
EndChar
StartChar: N
Encoding: 78 78
Width: 508
HStem: 0 21G<71 163> 563.975 186.025<138 142>
VStem: 103 32<74 556> 401 32<8 124 314 674>
Fore
383 320 m 0
 397 288 401 307 401 320 c 2
 401 656 l 2
 401 683 399 702 379 720 c 0
 370 728 353 731 353 742 c 0
 353 750 365 750 373 750 c 2
 465 750 l 2
 473 750 483 750 483 740 c 0
 483 729 464 732 455 724 c 0
 439 709 433 694 433 672 c 2
 433 96 l 2
 433 62 433 45 433 14 c 0
 433 -10 401 -11 401 16 c 0
 401 35 401 87 401 104 c 0
 401 135 394 166 375 198 c 0
 295 331 227 398 150 554 c 0
 143 568 135 567 135 554 c 2
 135 94 l 2
 135 67 137 48 157 30 c 0
 166 22 183 19 183 8 c 0
 183 0 171 0 163 0 c 2
 71 0 l 2
 63 0 53 0 53 10 c 0
 53 21 72 18 81 26 c 0
 97 41 103 56 103 78 c 2
 103 654 l 2
 103 688 96 715 69 736 c 0
 65 739 58 739 57 744 c 0
 55 752 69 750 77 750 c 2
 153 750 l 2
 166 750 186 753 186 744 c 0
 186 738 177 737 174 732 c 0
 167 722 167 714 167 702 c 1
 166 682 174 671 181 654 c 0
 228 542 324 456 383 320 c 0
EndSplineSet
MinimumDistance: x9,-1 
EndChar
StartChar: O
Encoding: 79 79
Width: 496
VStem: 42 74<385 454>
Fore
116 454 m 0
 116 282 156 88 286 46 c 0
 368 19 404 207 404 326 c 0
 404 486 350 644 242 684 c 0
 139 722 116 555 116 454 c 0
42 386 m 0
 42 545 91 676 216 754 c 0
 250 775 283 770 318 750 c 0
 415 694 462 567 462 430 c 0
 462 343 468 91 298 0 c 0
 265 -18 244 -27 212 -8 c 0
 76 74 42 219 42 386 c 0
EndSplineSet
MinimumDistance: x0,-1 
EndChar
StartChar: P
Encoding: 80 80
Width: 430
HStem: 0 13<37 45.3061> 0 17<175 329> 0 23<343 361> 235 49<208 222> 733 17<175 201>
VStem: 70 84<49.5111 689> 333 71<514 579>
Fore
154 715 m 0
 154 567 154 87 154 67 c 0
 154 53 152 17 177 17 c 0
 230 17 285 17 309 17 c 0
 351 17 333 23 352 23 c 0
 374 23 372 13 372 9 c 0
 372 3 367 2 365 0 c 1
 37 0 l 1
 35 2 30 1 30 7 c 0
 30 11 32 13 36 13 c 0
 50 13 70 18 70 67 c 2
 70 67 70 665 70 683 c 0
 70 719 41 729 27 729 c 0
 23 729 8 721 8 738 c 0
 8 750 19 750 19 750 c 1
 311 750 l 2
 376 750 404 654 404 579 c 0
 404 427 296 235 222 235 c 0
 207 235 186 245 186 263 c 0
 186 275 194 284 208 284 c 0
 218 284 219 272 228 268 c 0
 233 266 235 264 240 264 c 0
 250 264 273 282 285 300 c 0
 316 345 333 430 333 514 c 0
 333 615 293 733 191 733 c 0
 181 733 176 734 166 731 c 0
 158 729 154 721 154 715 c 0
EndSplineSet
MinimumDistance: x16,-1 
EndChar
StartChar: Q
Encoding: 81 81
Width: 502
VStem: 42 74<385 454> 279.995 130.958<98 102>
Fore
382 131 m 1
 398 188 405 262 404 326 c 1
 400 486 350 644 242 684 c 0
 139 722 116 555 116 454 c 0
 116 282 156 80 286 38 c 0
 306 32 324 37 339 52 c 0
 349 61 342 69 337 76 c 0
 329 86 317 99 301 99 c 0
 296 99 293 99 289 96 c 0
 285 93 276 97 282 104 c 0
 295 120 311 128 332 128 c 0
 346 128 355 126 369 122 c 0
 375 120 380 125 382 131 c 1
415 92 m 0
 444 59 467 30 497 -5 c 0
 499 -7 492 -8 489 -8 c 0
 478 -8 473 -5 462 -5 c 0
 443 -5 433 -10 414 -10 c 0
 400 -10 391 -7 381 3 c 0
 373 11 368 25 358 25 c 0
 353 25 351 26 345 21 c 0
 333 11 318 0 302 -9 c 0
 269 -27 244 -35 212 -16 c 0
 76 66 42 219 42 386 c 0
 42 545 91 676 216 754 c 0
 250 775 283 770 318 750 c 0
 415 694 462 567 462 430 c 0
 462 369 466 222 412 111 c 0
 409 105 410 97 415 92 c 0
EndSplineSet
EndChar
StartChar: R
Encoding: 82 82
Width: 496
HStem: 0 13<37 45.3061> 730 20<173 268> 737 13<34 40>
VStem: 70 84<50 581 671 689> 340 94<652 680> 366 102<47 69>
Fore
358 750 m 2
 388 750 434 716 434 680 c 0
 434 609 323 510 256 458 c 0
 250 454 251 446 254 440 c 0
 272 405 294 392 318 358 c 0
 395 249 468 149 468 52 c 0
 468 32 466 20 462 0 c 1
 354 0 l 1
 361 23 366 36 366 60 c 0
 366 127 350 172 324 238 c 0
 306 283 287 305 266 348 c 0
 222 436 208 464 166 578 c 0
 164 583 154 602 154 578 c 0
 154 366 154 37 154 21 c 0
 154 0 146 0 137 0 c 2
 37 0 l 1
 35 2 30 1 30 7 c 0
 30 11 32 13 36 13 c 0
 50 13 70 18 70 67 c 2
 70 67 70 665 70 683 c 0
 70 719 50 737 36 737 c 0
 32 737 30 739 30 743 c 0
 30 749 34 750 37 750 c 2
 358 750 l 2
190 730 m 0
 173 730 154 729 154 714 c 0
 154 703 154 693 154 680 c 0
 154 631 192 553 226 480 c 0
 236 459 247 471 256 480 c 0
 316 540 340 623 340 652 c 0
 340 696 299 730 254 730 c 0
 230 730 214 730 190 730 c 0
EndSplineSet
MinimumDistance: x5,-1 
EndChar
StartChar: S
Encoding: 83 83
Width: 429
HStem: -29 23<190 200> 135 58<176 198> 318 36.1367<138 147> 473 87<160 213>
VStem: 18 19<170 191> 212 63<224 241>
Fore
241 771 m 0
 288 771 318 757 355 728 c 0
 363 722 358 717 353 712 c 0
 329 691 318 671 302 651 c 0
 299 647 295 646 290 652 c 0
 259 689 239 709 196 711 c 0
 125 715 78 645 76 574 c 1
 75 548 82 532 90 509 c 0
 92 503 101 504 105 509 c 0
 130 538 167 560 213 560 c 0
 331 560 399 420 399 293 c 0
 399 38 243 -29 192 -29 c 0
 163 -29 18 20 18 187 c 0
 18 270 88 355 150 355 c 0
 220 355 275 294 275 225 c 0
 275 186 244 135 198 135 c 0
 167 135 155 170 155 189 c 0
 155 196 158 198 165 196 c 0
 169 195 172 193 176 193 c 0
 197 193 212 216 212 239 c 0
 212 280 170 318 139 318 c 0
 81 318 37 241 37 172 c 0
 37 101 107 -6 192 -6 c 0
 265 -6 356 82 356 219 c 0
 356 354 284 473 160 473 c 0
 141 473 132 470 113 460 c 0
 107 457 102 456 98 461 c 0
 65 502 49 530 49 580 c 0
 49 685 162 771 241 771 c 0
EndSplineSet
MinimumDistance: x14,-1 
EndChar
StartChar: T
Encoding: 84 84
Width: 471
HStem: 0 13<171 179.306 315 321> 714 32.9099<299 303>
VStem: 204 84<49.5111 689>
Fore
188 714 m 0
 177 714 170 711 158 708 c 0
 115 697 87 680 58 653 c 0
 55 650 40 651 46 664 c 0
 58 689 66 710 76 734 c 0
 79 742 87 750 96 750 c 0
 146 750 190 746 250 746 c 0
 309 746 348 750 402 750 c 0
 410 750 418 752 422 740 c 0
 431 714 433 706 448 682 c 0
 457 668 459 659 438 672 c 0
 405 693 380 700 341 708 c 0
 326 711 315 714 302 714 c 0
 287 714 288 698 288 683 c 0
 288 565 288 88 288 67 c 0
 288 6 308 13 322 13 c 0
 326 13 328 11 328 7 c 0
 328 1 323 2 321 0 c 1
 171 0 l 1
 169 2 164 1 164 7 c 0
 164 11 166 13 170 13 c 0
 184 13 204 18 204 67 c 2
 204 67 204 467 204 683 c 0
 204 696 201 714 188 714 c 0
EndSplineSet
MinimumDistance: x13,-1 
EndChar
StartChar: U
Encoding: 85 85
Width: 489
HStem: 0 13<464 468> 0 19.161<326 332> 737 13<231 233 316 322>
VStem: 49 81<455 518> 70 170<737 743> 350 84<50.1585 689>
Fore
317 25 m 0
 328 12 350 18 350 67 c 2
 350 67 350 665 350 683 c 0
 350 719 330 737 316 737 c 0
 312 737 310 739 310 743 c 0
 310 749 315 748 317 750 c 1
 418 750 l 2
 427 750 434 750 434 735 c 0
 434 617 434 88 434 67 c 0
 434 6 454 13 468 13 c 0
 472 13 474 11 474 7 c 0
 474 1 469 2 467 0 c 1
 329 0 l 2
 308 0 295 6 278 22 c 0
 143 149 49 297 49 518 c 0
 49 594 88 693 88 708 c 0
 88 721 70 725 70 738 c 0
 70 745 78 749 86 750 c 2
 233 750 l 1
 235 748 240 749 240 743 c 0
 240 739 238 737 234 737 c 0
 224 737 207 707 187 680 c 0
 174 663 130 546 130 456 c 0
 130 286 198 166 317 25 c 0
EndSplineSet
MinimumDistance: x7,-1 
EndChar
StartChar: V
Encoding: 86 86
Width: 466
HStem: 730 20<193 219>
VStem: 55 102<571 656>
Fore
85 750 m 0
 136 750 168 750 217 750 c 0
 224 750 233 750 233 744 c 0
 233 736 224 728 215 728 c 0
 207 728 203 730 195 730 c 0
 180 730 176 714 171 700 c 0
 154 655 157 622 157 572 c 0
 157 420 227 317 311 162 c 0
 316 152 329 109 341 168 c 1
 384 373 403 554 403 580 c 0
 403 639 403 693 357 724 c 0
 347 731 323 725 323 738 c 0
 323 747 335 750 343 750 c 0
 404 750 428 750 489 750 c 0
 495 750 505 752 505 746 c 0
 505 742 498 740 495 736 c 0
 472 709 474 710 463 680 c 0
 437 610 437 541 423 470 c 1
 386 277 382 228 341 16 c 1
 336 -12 330 -5 321 16 c 0
 273 132 197 225 137 358 c 0
 85 473 52 535 55 656 c 1
 56 688 61 720 63 738 c 0
 64 748 76 750 85 750 c 0
EndSplineSet
MinimumDistance: x6,-1 
EndChar
StartChar: W
Encoding: 87 87
Width: 697
HStem: 730 20<193 219>
VStem: 55 98<571 656> 525 196<738 744>
Fore
85 750 m 0
 136 750 168 750 217 750 c 0
 224 750 233 750 233 744 c 0
 233 736 224 728 215 728 c 0
 207 728 203 730 195 730 c 0
 180 730 176 714 171 700 c 0
 154 655 153 622 153 572 c 0
 153 420 215 283 279 110 c 0
 283 99 297 57 309 116 c 0
 345 295 375 434 395 578 c 0
 399 607 409 603 417 576 c 0
 456 446 466 373 539 218 c 0
 543 209 553 212 559 238 c 0
 581 334 584 377 603 468 c 0
 612 512 609 536 609 580 c 0
 609 639 599 687 553 720 c 0
 543 727 525 725 525 738 c 0
 525 747 537 750 545 750 c 0
 606 750 644 750 705 750 c 0
 711 750 721 750 721 744 c 0
 721 740 715 740 711 736 c 0
 686 709 681 686 667 652 c 0
 639 584 641 541 625 470 c 0
 585 293 563 175 531 16 c 0
 527 -4 508 -27 505 2 c 1
 499 63 492 99 473 158 c 0
 447 237 419 285 397 354 c 0
 392 370 385 374 381 354 c 1
 355 235 331 154 311 16 c 0
 307 -12 300 -6 291 16 c 1
 247 132 187 219 131 354 c 0
 83 470 52 535 55 656 c 1
 56 688 61 720 63 738 c 0
 64 748 76 750 85 750 c 0
EndSplineSet
EndChar
StartChar: X
Encoding: 88 88
Width: 508
HStem: -1 21G<96 202> 0 21G<305 475> 729 20G<292 398> 738 17<8 16> 750 21G<39 156>
VStem: 296 188<7 9>
DStem: 82 691 172 668 207 390 242 501 241 307 277 418 330 95 431 53
Fore
431 53 m 2
 437 39 447 32 457 23 c 0
 466 15 484 15 484 7 c 1
 484 7 479 0 475 0 c 2
 305 0 l 2
 301 1 296 4 296 7 c 0
 296 13 328 14 335 27 c 0
 341 38 340 41 340 54 c 0
 340 67 343 63 330 95 c 2
 241 307 l 2
 235 322 223 367 207 335 c 0
 166 253 154 251 154 140 c 0
 154 67 192 25 202 -1 c 1
 166 -1 131 -1 96 -1 c 0
 89 -1 83 5 82 15 c 1
 78 69 75 136 96 190 c 0
 133 286 151 306 200 363 c 0
 207 371 211 381 207 390 c 2
 82 691 l 2
 77 703 57 722 46 729 c 0
 35 736 24 738 13 738 c 0
 6 738 -3 742 0 749 c 0
 2 753 6 755 10 755 c 0
 20 755 28 750 39 750 c 0
 85 750 111 750 156 750 c 0
 162 750 170 749 170 744 c 0
 170 735 164 725 163 713 c 1
 162 695 169 675 172 668 c 2
 242 501 l 2
 252 477 265 444 280 471 c 0
 324 549 335 569 339 650 c 1
 342 702 302 723 292 749 c 1
 328 749 363 749 398 749 c 0
 411 749 426 742 426 686 c 0
 426 622 335 508 282 445 c 0
 276 437 273 427 277 418 c 2
 431 53 l 2
EndSplineSet
MinimumDistance: x2,-1 
EndChar
StartChar: Y
Encoding: 89 89
Width: 508
HStem: -21 20G<132 249> -6 17<100 108> 729 20G<390 554> 737 13<186 207>
VStem: 69.6399 143.373<738 740> 381 182<740 742>
DStem: 275 298 516 696 175 58 265 81
Fore
106 11 m 0
 99 11 90 7 93 0 c 0
 95 -4 99 -6 103 -6 c 0
 113 -6 121 -1 132 -1 c 0
 178 -1 204 -1 249 -1 c 0
 255 -1 263 0 263 5 c 0
 263 14 257 24 256 36 c 1
 255 54 262 74 265 81 c 2
 516 696 l 2
 522 710 526 717 536 726 c 0
 545 734 563 734 563 742 c 1
 563 742 558 749 554 749 c 2
 390 749 l 2
 386 748 381 745 381 742 c 0
 381 736 399 731 406 718 c 0
 412 707 412 698 413 685 c 1
 414 662 413 660 401 628 c 2
 308 380 l 2
 302 365 296 328 274 351 c 0
 192 437 154 512 154 623 c 0
 154 669 172 737 188 737 c 0
 195 737 198 735 205 735 c 0
 209 735 214 738 214 742 c 0
 214 747 210 750 205 750 c 0
 169 750 118 750 83 750 c 0
 76 750 69 744 69 734 c 0
 69 680 81 627 105 563 c 0
 144 457 216 387 269 324 c 0
 275 316 279 307 275 298 c 2
 175 58 l 2
 170 47 150 27 139 20 c 0
 128 13 117 11 106 11 c 0
EndSplineSet
EndChar
StartChar: Z
Encoding: 90 90
Width: 526
HStem: 0 24<186.538 218> 0 27<162 170 186 188> 0 114.031<459 463>
DStem: 403 713 516 745 61 20 159 40
Fore
76 0 m 0
 57 0 53 5 61 20 c 1
 403 713 l 2
 406 720 410 734 395 732 c 0
 297 721 214 699 161 654 c 0
 156 649 151 651 155 660 c 0
 173 700 176 711 186 744 c 0
 189 753 195 753 201 753 c 0
 317 755 387 757 506 759 c 0
 525 759 519 751 516 745 c 2
 159 40 l 2
 154 31 162 27 168 27 c 0
 177 27 188 24 200 24 c 0
 292 24 381 61 454 111 c 0
 458 114 465 117 467 110 c 0
 478 72 484 52 509 17 c 0
 514 10 511 0 497 0 c 0
 340 0 211 0 76 0 c 0
EndSplineSet
MinimumDistance: x9,-1 
EndChar
StartChar: bracketleft
Encoding: 91 91
Width: 423
HStem: 0 19<196 230> 731 19<196 230> 737 18<64 68>
VStem: 91 84<33 716>
Fore
91 683 m 0
 91 712 94 737 76 740 c 0
 73 741 68 737 66 737 c 0
 61 737 53 737 53 746 c 0
 53 750 62 755 67 755 c 0
 72 755 79 750 86 750 c 0
 133 750 292 750 292 750 c 2
 305 750 346 741 371 716 c 0
 374 712 377 707 374 703 c 0
 361 684 344 672 322 662 c 1
 323 676 319 698 304 708 c 0
 273 730 234 731 208 731 c 0
 193 731 175 731 175 708 c 2
 175 42 l 2
 175 19 193 19 208 19 c 0
 234 19 273 20 304 42 c 0
 319 52 323 74 322 88 c 1
 344 78 361 66 374 47 c 0
 377 43 374 38 371 34 c 0
 346 9 305 0 292 0 c 2
 292 0 133 0 86 0 c 0
 79 0 72 -5 67 -5 c 0
 62 -5 53 0 53 4 c 0
 53 13 61 13 66 13 c 0
 68 13 73 9 76 10 c 0
 94 13 91 38 91 67 c 0
 91 85 91 462 91 683 c 0
EndSplineSet
MinimumDistance: x12,-1 
EndChar
StartChar: backslash
Encoding: 92 92
Width: 510
Fore
79 716 m 1
 73 730 42 732 50 714 c 0
 57 699 356 58 365 40 c 1
 370 28 404 20 394 42 c 0
 386 59 197 464 79 716 c 1
EndSplineSet
EndChar
StartChar: bracketright
Encoding: 93 93
Width: 423
HStem: 0 19<202 236> 731 19<202 236> 737 18<366 372>
VStem: 260 84<33 716>
Fore
382 4 m 0
 382 0 373 -5 368 -5 c 0
 363 -5 356 0 349 0 c 0
 302 0 143 0 143 0 c 2
 130 0 89 9 64 34 c 0
 61 38 58 43 61 47 c 0
 74 66 91 78 113 88 c 1
 112 74 116 52 131 42 c 0
 162 20 201 19 227 19 c 0
 242 19 260 19 260 42 c 2
 260 708 l 2
 260 731 242 731 227 731 c 0
 201 731 162 730 131 708 c 0
 116 698 112 676 113 662 c 1
 91 672 74 684 61 703 c 0
 58 707 61 712 64 716 c 0
 89 741 130 750 143 750 c 2
 143 750 302 750 349 750 c 0
 356 750 363 755 368 755 c 0
 373 755 382 750 382 746 c 0
 382 737 374 737 369 737 c 0
 367 737 362 741 359 740 c 0
 341 737 344 712 344 683 c 0
 344 462 344 85 344 67 c 0
 344 38 341 13 359 10 c 0
 362 9 367 13 369 13 c 0
 374 13 382 13 382 4 c 0
EndSplineSet
MinimumDistance: x22,-1 
EndChar
StartChar: asciicircum
Encoding: 94 94
Width: 337
Fore
35 500 m 1
 80 500 l 1
 160 590 l 1
 230 500 l 1
 280 500 l 1
 210 670 l 1
 115 670 l 1
 35 500 l 1
EndSplineSet
EndChar
StartChar: underscore
Encoding: 95 95
Width: 355
HStem: -38 32<21 340>
Fore
22 -6 m 1
 8 -38 l 1
 340 -38 l 1
 354 -6 l 1
 22 -6 l 1
EndSplineSet
EndChar
StartChar: grave
Encoding: 96 96
Width: 234
HStem: 730 20G<46 126>
Fore
141 625 m 1
 101 625 l 1
 46 750 l 1
 126 750 l 1
 126 750 126 716 128 695 c 1
 131 667 141 625 141 625 c 1
EndSplineSet
EndChar
StartChar: a
Encoding: 97 97
Width: 370
HStem: 0 8<329 335> 0 18<197 210> 360 14<180 199> 474 28<159 182>
VStem: 32 57<154 196> 252 57<45 313 350 385>
Fore
252 54 m 0
 252 66 252 311 252 311 c 2
 252 337 218 360 195 360 c 0
 128 360 89 300 89 196 c 0
 89 61 171 18 208 18 c 0
 230 18 252 30 252 54 c 0
174 474 m 0
 128 474 43 444 101 391 c 1
 86 371 79 367 52 357 c 1
 2 472 116 502 176 502 c 0
 254 502 309 452 309 371 c 0
 309 357 309 56 309 44 c 0
 309 20 322 8 331 8 c 0
 334 8 335 7 335 4 c 0
 335 0 332 0 331 0 c 2
 331 0 219 0 179 0 c 0
 101 0 32 75 32 155 c 0
 32 301 75 374 196 374 c 0
 218 374 234 362 238 359 c 0
 242 356 252 344 252 352 c 0
 252 354 252 386 252 406 c 0
 252 451 220 474 174 474 c 0
EndSplineSet
MinimumDistance: x11,-1 x10,13 x10,11 
EndChar
StartChar: b
Encoding: 98 98
Width: 370
HStem: 0 8<10 16> 0 18<126.073 140> 488 14<147 153> 741 9<13 26>
VStem: 36 57<45 441 478 721> 256 57<154 198>
Fore
256 196 m 0
 256 310 217 488 150 488 c 0
 127 488 93 465 93 439 c 2
 93 439 93 66 93 54 c 0
 93 30 115 18 137 18 c 0
 174 18 256 61 256 196 c 0
14 0 m 2
 13 0 10 0 10 4 c 0
 10 7 11 8 14 8 c 0
 23 8 36 20 36 44 c 0
 36 56 36 691 36 705 c 0
 36 746 23 741 13 741 c 0
 11 741 9 743 9 745 c 0
 9 749 13 749 14 750 c 2
 82 750 l 2
 88 750 93 750 93 740 c 0
 93 736 93 482 93 480 c 0
 93 472 103 484 107 487 c 0
 111 490 127 502 149 502 c 0
 270 502 313 315 313 155 c 0
 313 75 244 0 166 0 c 0
 126 0 14 0 14 0 c 2
EndSplineSet
MinimumDistance: x18,-1 x8,5 x8,7 
EndChar
StartChar: c
Encoding: 99 99
Width: 330
HStem: -7 19<212 230> 490 12<180 198>
VStem: 37 58<264 298>
Fore
276 502 m 1
 261 474 249 458 228 436 c 1
 225 448 228 456 222 466 c 0
 214 480 206 490 190 490 c 0
 115 490 95 356 95 285 c 0
 95 166 134 12 225 12 c 0
 247 12 260 14 280 25 c 1
 262 4 244 -7 216 -7 c 0
 194 -7 148 19 115 54 c 0
 66 106 37 198 37 289 c 0
 37 406 118 502 168 502 c 0
 210 502 234 502 276 502 c 1
EndSplineSet
MinimumDistance: x4,-1 
EndChar
StartChar: d
Encoding: 100 100
Width: 380
HStem: 0 8<329 335> 0 18<197 210> 488 14<191 199> 741 9<319 331>
VStem: 32 57<154 198> 252 57<45 441 478 721> 252 84<739 746>
Fore
336 745 m 0
 336 743 334 741 332 741 c 0
 322 741 309 746 309 705 c 0
 309 691 309 56 309 44 c 0
 309 20 322 8 331 8 c 0
 334 8 335 7 335 4 c 0
 335 0 332 0 331 0 c 2
 331 0 219 0 179 0 c 0
 101 0 32 75 32 155 c 0
 32 315 75 502 196 502 c 0
 218 502 234 490 238 487 c 0
 242 484 252 472 252 480 c 0
 252 482 252 736 252 740 c 0
 252 750 257 750 263 750 c 2
 331 750 l 2
 332 749 336 749 336 745 c 0
252 54 m 0
 252 66 252 439 252 439 c 2
 252 465 218 488 195 488 c 0
 128 488 89 310 89 196 c 0
 89 61 171 18 208 18 c 0
 230 18 252 30 252 54 c 0
EndSplineSet
MinimumDistance: x0,-1 x3,6 x3,4 
EndChar
StartChar: e
Encoding: 101 101
Width: 390
HStem: -7 19<222 240> 490 12<174 198>
VStem: 31.5677 59.4323<305 311>
Fore
184 490 m 0
 109 490 91 358 91 309 c 0
 91 304 102 294 110 296 c 0
 162 309 257 368 258 404 c 1
 259 447 236 490 184 490 c 0
318 418 m 1
 313 359 248 337 198 306 c 0
 159 282 89 273 94 230 c 1
 108 118 139 14 233 12 c 0
 279 11 326 38 344 55 c 1
 326 16 266 -7 224 -7 c 0
 83 -7 31 138 31 289 c 0
 31 406 112 502 162 502 c 0
 204 502 195 502 230 502 c 0
 263 502 322 468 318 418 c 1
EndSplineSet
MinimumDistance: x1,-1 
EndChar
StartChar: f
Encoding: 102 102
Width: 190
HStem: 0 8<13 17 113 119> 483 19<10 30 100 154> 739 11<136 154>
VStem: 36 57<33.0041 473 511 690>
Fore
-7 483 m 1
 -1 483 2 483 26 483 c 0
 36 483 36 477 36 471 c 0
 36 352 36 52 36 44 c 0
 36 20 23 8 14 8 c 0
 11 8 10 7 10 4 c 0
 10 0 13 1 14 0 c 2
 115 0 l 2
 116 0 119 0 119 4 c 0
 119 7 118 8 115 8 c 0
 106 8 93 20 93 44 c 2
 93 44 93 352 93 471 c 0
 93 477 93 483 103 483 c 0
 127 483 142 483 168 483 c 0
 207 483 232 489 265 516 c 0
 267 518 268 520 266 522 c 0
 255 530 247 535 235 545 c 0
 233 547 231 542 229 540 c 0
 205 514 169 502 144 502 c 0
 125 502 117 502 102 502 c 0
 93 502 93 509 93 514 c 0
 93 573 93 686 93 687 c 0
 93 714 120 739 145 739 c 0
 176 739 213 707 240 675 c 1
 259 702 274 716 277 750 c 1
 211 750 172 750 106 750 c 0
 60 750 36 721 36 684 c 0
 36 656 36 573 36 514 c 0
 36 509 36 502 27 502 c 0
 12 502 17 501 11 502 c 1
 -7 483 l 1
EndSplineSet
MinimumDistance: x7,-1 x10,7 x10,9 x3,6 x3,4 
EndChar
StartChar: g
Encoding: 103 103
Width: 390
HStem: -163 28<159 182> 0 14<191 199> 484 18<197 210> 494 8<329 335>
VStem: 32.9884 56.0116<304 318> 40.6203 40.9831<-84 -82> 252 57<-49.8416 24 60 450>
Fore
252 63 m 2
 252 63 252 436 252 448 c 0
 252 472 230 484 208 484 c 0
 171 484 89 441 89 306 c 0
 89 192 128 14 195 14 c 0
 218 14 252 37 252 63 c 2
252 -66 m 0
 252 -46 252 20 252 22 c 0
 252 30 242 18 238 15 c 0
 234 12 218 0 196 0 c 0
 75 0 32 187 32 347 c 0
 32 427 101 502 179 502 c 0
 219 502 331 502 331 502 c 2
 332 502 335 502 335 498 c 0
 335 495 334 494 331 494 c 0
 322 494 309 482 309 458 c 0
 309 446 309 -17 309 -31 c 0
 309 -112 254 -163 176 -163 c 0
 116 -163 2 -133 52 -18 c 1
 79 -28 86 -32 101 -52 c 1
 43 -105 128 -135 174 -135 c 0
 220 -135 252 -112 252 -66 c 0
EndSplineSet
MinimumDistance: x11,-1 x14,11 x14,13 
EndChar
StartChar: h
Encoding: 104 104
Width: 380
HStem: 0 8<13 17 113 119 186 190> 488 14<147 153> 741 9<13 26>
VStem: 36 57<33.0041 441 478 721> 182 113.316<4 6> 256 54<154 196>
Fore
149 502 m 0
 270 502 310 303 310 155 c 0
 310 104 284 38 284 28 c 0
 284 19 296 16 296 8 c 0
 296 3 291 0 285 0 c 2
 187 0 l 2
 186 1 182 0 182 4 c 0
 182 7 184 8 186 8 c 0
 193 8 205 28 218 46 c 0
 227 58 256 136 256 196 c 0
 256 310 217 488 150 488 c 0
 127 488 93 465 93 439 c 2
 93 439 93 56 93 44 c 0
 93 20 106 8 115 8 c 0
 118 8 119 7 119 4 c 0
 119 0 116 0 115 0 c 2
 14 0 l 2
 13 1 10 0 10 4 c 0
 10 7 11 8 14 8 c 0
 23 8 36 20 36 44 c 0
 36 56 36 691 36 705 c 0
 36 746 23 741 13 741 c 0
 11 741 9 743 9 745 c 0
 9 749 13 749 14 750 c 2
 82 750 l 2
 88 750 93 750 93 740 c 0
 93 736 93 482 93 480 c 0
 93 472 103 484 107 487 c 0
 111 490 127 502 149 502 c 0
EndSplineSet
MinimumDistance: x1,-1 x19,16 x19,18 x12,15 x12,13 
EndChar
StartChar: i
Encoding: 105 105
Width: 165
HStem: 0 8<13 17 113 119> 493 9<13 26> 591 78<63 67>
VStem: 36 57<33.0041 465 623 641>
Fore
93 44 m 2
 93 20 106 8 115 8 c 0
 118 8 119 7 119 4 c 0
 119 0 116 0 115 0 c 2
 14 0 l 2
 13 1 10 0 10 4 c 0
 10 7 11 8 14 8 c 0
 23 8 36 20 36 44 c 0
 36 56 36 443 36 457 c 0
 36 498 23 493 13 493 c 0
 11 493 9 495 9 497 c 0
 9 501 13 501 14 502 c 2
 82 502 l 2
 88 502 93 502 93 492 c 0
 93 488 93 44 93 44 c 2
36 630 m 0
 36 649 46 669 65 669 c 0
 84 669 94 649 94 630 c 0
 94 611 84 591 65 591 c 0
 46 591 36 611 36 630 c 0
EndSplineSet
MinimumDistance: x1,-1 x7,4 x7,6 x0,3 x0,1 
EndChar
StartChar: j
Encoding: 106 106
Width: 165
HStem: 494 9<12 18> 591 78<63 67>
VStem: 35 57<52 460 619.569 633>
Fore
36 630 m 0
 36 649 46 669 65 669 c 0
 84 669 94 649 94 630 c 0
 94 611 84 591 65 591 c 0
 46 591 36 611 36 630 c 0
17 -54 m 0
 30 -32 35 24 35 57 c 2
 35 57 35 446 35 458 c 0
 35 482 22 494 13 494 c 0
 10 494 9 495 9 498 c 0
 9 502 12 501 13 503 c 1
 81 503 l 2
 87 503 92 503 92 493 c 0
 92 414 92 79 92 65 c 0
 92 7 55 -50 50 -58 c 0
 46 -64 7 -117 -52 -138 c 0
 -54 -139 -55 -139 -58 -139 c 0
 -60 -139 -64 -137 -64 -134 c 0
 -64 -131 -62 -130 -61 -129 c 0
 -26 -113 -4 -91 17 -54 c 0
EndSplineSet
MinimumDistance: x11,-1 x6,9 x6,7 
EndChar
StartChar: k
Encoding: 107 107
Width: 395
HStem: 0 8<13 17 113 119> 491 11<184 202> 741 9<13 26>
VStem: 36 57<33.0041 101 191 421 502 721> 248 53<431 439>
Fore
124 249 m 0
 169 323 248 384 248 437 c 0
 248 463 219 491 194 491 c 0
 163 491 120 453 93 421 c 1
 93 348 93 256 93 191 c 1
 101 207 113 231 124 249 c 0
193 276 m 0
 189 272 180 265 188 254 c 0
 200 236 213 203 226 178 c 0
 243 146 277 68 329 60 c 0
 334 60 341 62 341 57 c 1
 338 34 339 25 338 5 c 1
 338 1 335 0 330 1 c 0
 269 19 253 86 224 135 c 0
 204 168 194 195 173 226 c 0
 164 238 155 235 150 228 c 0
 116 183 102 148 93 101 c 1
 93 44 l 2
 93 20 106 8 115 8 c 0
 118 8 119 7 119 4 c 0
 119 0 116 0 115 0 c 2
 14 0 l 2
 13 1 10 0 10 4 c 0
 10 7 11 8 14 8 c 0
 23 8 36 20 36 44 c 0
 36 56 36 691 36 705 c 0
 36 746 23 741 13 741 c 0
 11 741 9 743 9 745 c 0
 9 749 13 749 14 750 c 2
 82 750 l 2
 88 750 93 750 93 740 c 0
 93 739 93 622 93 502 c 1
 141 502 165 502 231 502 c 0
 277 502 301 471 301 434 c 0
 301 357 249 332 193 276 c 0
EndSplineSet
MinimumDistance: x32,-1 x23,20 x23,22 x16,19 x16,17 
EndChar
StartChar: l
Encoding: 108 108
Width: 165
HStem: 0 8<13 17 113 119> 741 9<13 26>
VStem: 36 57<33.0041 721>
Fore
93 44 m 2
 93 20 106 8 115 8 c 0
 118 8 119 7 119 4 c 0
 119 0 116 0 115 0 c 2
 14 0 l 2
 13 1 10 0 10 4 c 0
 10 7 11 8 14 8 c 0
 23 8 36 20 36 44 c 0
 36 56 36 691 36 705 c 0
 36 746 23 741 13 741 c 0
 11 741 9 743 9 745 c 0
 9 749 13 749 14 750 c 2
 82 750 l 2
 88 750 93 750 93 740 c 0
 93 736 93 44 93 44 c 2
EndSplineSet
MinimumDistance: x1,-1 x7,4 x7,6 x0,3 x0,1 
EndChar
StartChar: m
Encoding: 109 109
Width: 575
HStem: 0 8<13 17 113 119 186 190 378 382> 493 9<13 26>
VStem: 36 57<33.0041 441> 182 113.316<4 6> 256 54<154 198> 374 113.316<4 6> 448 54<154 198>
Fore
310 155 m 0
 310 104 284 38 284 28 c 0
 284 19 296 16 296 8 c 0
 296 3 291 0 285 0 c 2
 187 0 l 2
 186 1 182 0 182 4 c 0
 182 7 184 8 186 8 c 0
 193 8 205 28 218 46 c 0
 227 58 256 136 256 196 c 0
 256 310 217 488 150 488 c 0
 127 488 93 465 93 439 c 2
 93 439 93 56 93 44 c 0
 93 20 106 8 115 8 c 0
 118 8 119 7 119 4 c 0
 119 0 116 0 115 0 c 2
 14 0 l 2
 13 1 10 0 10 4 c 0
 10 7 11 8 14 8 c 0
 23 8 36 20 36 44 c 0
 36 56 36 443 36 457 c 0
 36 498 23 493 13 493 c 0
 11 493 9 495 9 497 c 0
 9 501 13 501 14 502 c 2
 82 502 l 2
 88 502 93 502 93 492 c 0
 93 488 93 482 93 480 c 0
 93 472 103 484 107 487 c 0
 111 490 127 502 149 502 c 0
 183 502 206 489 231 463 c 0
 236 458 243 463 247 466 c 0
 251 469 293 502 330 502 c 0
 468 502 502 303 502 155 c 0
 502 104 476 38 476 28 c 0
 476 19 488 16 488 8 c 0
 488 3 483 0 477 0 c 2
 379 0 l 2
 378 1 374 0 374 4 c 0
 374 7 376 8 378 8 c 0
 385 8 397 28 410 46 c 0
 419 58 448 136 448 196 c 0
 448 310 417 488 331 488 c 0
 302 488 248 446 264 410 c 0
 301 326 310 239 310 155 c 0
EndSplineSet
MinimumDistance: x31,-1 x18,15 x18,17 x11,14 x11,12 
EndChar
StartChar: n
Encoding: 110 110
Width: 375
HStem: 0 8<13 17 113 119 186 190> 493 9<13 26>
VStem: 36 57<33.0041 441> 182 113.316<4 6> 256 54<154 196>
Fore
149 502 m 0
 270 502 310 303 310 155 c 0
 310 104 284 38 284 28 c 0
 284 19 296 16 296 8 c 0
 296 3 291 0 285 0 c 2
 187 0 l 2
 186 1 182 0 182 4 c 0
 182 7 184 8 186 8 c 0
 193 8 205 28 218 46 c 0
 227 58 256 136 256 196 c 0
 256 310 217 488 150 488 c 0
 127 488 93 465 93 439 c 2
 93 439 93 56 93 44 c 0
 93 20 106 8 115 8 c 0
 118 8 119 7 119 4 c 0
 119 0 116 0 115 0 c 2
 14 0 l 2
 13 1 10 0 10 4 c 0
 10 7 11 8 14 8 c 0
 23 8 36 20 36 44 c 0
 36 56 36 443 36 457 c 0
 36 498 23 493 13 493 c 0
 11 493 9 495 9 497 c 0
 9 501 13 501 14 502 c 2
 82 502 l 2
 88 502 93 502 93 492 c 0
 93 488 93 482 93 480 c 0
 93 472 103 484 107 487 c 0
 111 490 127 502 149 502 c 0
EndSplineSet
MinimumDistance: x1,-1 x19,16 x19,18 x12,15 x12,13 
EndChar
StartChar: o
Encoding: 111 111
Width: 380
VStem: 28 50<258 304> 271 38.5506<217 244>
Fore
78 304 m 0
 78 189 105 59 192 31 c 0
 247 13 271 139 271 218 c 0
 271 326 234 431 162 458 c 0
 93 484 78 372 78 304 c 0
28 259 m 0
 28 365 61 453 145 505 c 0
 167 519 190 516 213 502 c 0
 278 464 310 380 310 288 c 0
 310 230 314 61 200 0 c 0
 178 -12 163 -18 142 -5 c 0
 51 50 28 147 28 259 c 0
EndSplineSet
EndChar
StartChar: p
Encoding: 112 112
Width: 375
HStem: -200 9<13 26> 0 14<147 153> 484 18<126.073 140> 494 8<10 16>
VStem: 9 83.0339<-197 -193> 36 57<-169 24 55 457> 256 56.0116<304 329>
Fore
256 306 m 0
 256 192 217 14 150 14 c 0
 127 14 93 37 93 63 c 2
 93 63 93 436 93 448 c 0
 93 472 115 484 137 484 c 0
 174 484 256 441 256 306 c 0
14 502 m 2
 13 502 10 502 10 498 c 0
 10 495 11 494 14 494 c 0
 23 494 36 482 36 458 c 0
 36 446 36 -141 36 -155 c 0
 36 -196 23 -191 13 -191 c 0
 11 -191 9 -193 9 -195 c 0
 9 -199 13 -199 14 -200 c 2
 82 -200 l 2
 88 -200 93 -200 93 -190 c 0
 93 -186 93 20 93 22 c 0
 93 30 103 18 107 15 c 0
 111 12 127 0 149 0 c 0
 270 0 313 187 313 347 c 0
 313 427 244 502 166 502 c 0
 126 502 14 502 14 502 c 2
EndSplineSet
MinimumDistance: x8,5 x8,7 
EndChar
StartChar: q
Encoding: 113 113
Width: 380
HStem: -200 9<319 331> 0 14<191 199> 484 18<197 210> 494 8<329 335>
VStem: 32.9884 56.0116<304 329> 252 57<-169 24 55 457> 252.966 83.0339<-197 -193>
Fore
336 -195 m 0
 336 -193 334 -191 332 -191 c 0
 322 -191 309 -196 309 -155 c 0
 309 -141 309 446 309 458 c 0
 309 482 322 494 331 494 c 0
 334 494 335 495 335 498 c 0
 335 502 332 502 331 502 c 2
 331 502 219 502 179 502 c 0
 101 502 32 427 32 347 c 0
 32 187 75 0 196 0 c 0
 218 0 234 12 238 15 c 0
 242 18 252 30 252 22 c 0
 252 20 252 -186 252 -190 c 0
 252 -200 257 -200 263 -200 c 2
 331 -200 l 2
 332 -199 336 -199 336 -195 c 0
252 448 m 0
 252 436 252 63 252 63 c 2
 252 37 218 14 195 14 c 0
 128 14 89 192 89 306 c 0
 89 441 171 484 208 484 c 0
 230 484 252 472 252 448 c 0
EndSplineSet
MinimumDistance: x0,-1 x3,6 x3,4 
EndChar
StartChar: r
Encoding: 114 114
Width: 370
HStem: 0 8<13 17 113 119> 474 28<155.799 186> 493 9<13 26>
VStem: 36 57<33.0041 417>
Fore
170 502 m 0
 230 502 344 472 294 357 c 1
 267 367 260 371 245 391 c 1
 303 444 218 474 172 474 c 0
 126 474 94 451 94 406 c 0
 94 386 93 44 93 44 c 1
 93 20 106 8 115 8 c 0
 118 8 119 7 119 4 c 0
 119 0 116 0 115 0 c 2
 14 0 l 2
 13 1 10 0 10 4 c 0
 10 7 11 8 14 8 c 0
 23 8 36 20 36 44 c 0
 36 56 36 443 36 457 c 0
 36 498 23 493 13 493 c 0
 11 493 9 495 9 497 c 0
 9 501 13 501 14 502 c 2
 82 502 l 2
 88 502 93 502 93 492 c 0
 93 491 93 487 93 483 c 1
 108 490 128 502 170 502 c 0
EndSplineSet
MinimumDistance: x5,-1 x12,9 x12,11 
EndChar
StartChar: s
Encoding: 115 115
Width: 340
HStem: -9 37<131 161> 291.215 32.0228<85 87> 301 58<125 161>
VStem: 45 18<385 391>
Fore
131 -9 m 0
 99 -9 39 20 13 62 c 0
 10 67 13 70 17 72 c 0
 38 79 49 89 64 98 c 0
 67 100 69 100 71 94 c 0
 87 52 132 28 161 28 c 0
 202 28 251 77 251 157 c 0
 251 237 208 301 125 301 c 0
 112 301 106 299 94 292 c 0
 90 290 86 290 84 293 c 0
 62 320 45 355 45 389 c 0
 45 459 121 517 173 517 c 0
 205 517 225 507 250 488 c 0
 255 484 252 480 249 477 c 0
 232 463 225 450 214 436 c 0
 212 433 210 433 206 437 c 0
 186 462 172 474 143 476 c 0
 96 478 64 432 63 385 c 1
 62 367 73 340 78 325 c 1
 80 321 86 322 88 325 c 0
 105 344 130 359 161 359 c 0
 240 359 279 285 279 210 c 0
 279 39 187 -9 131 -9 c 0
EndSplineSet
MinimumDistance: x17,-1 
EndChar
StartChar: t
Encoding: 116 116
Width: 250
HStem: 0 30<130 144> 483 19<10 30 100 154>
VStem: 36 57<78 473 511 554>
Fore
130 0 m 0
 168 0 202 22 216 60 c 1
 198 82 l 1
 196 51 173 30 142 30 c 0
 106 30 93 58 93 82 c 2
 93 82 93 352 93 471 c 0
 93 477 93 483 103 483 c 0
 127 483 142 483 168 483 c 0
 207 483 232 489 265 516 c 0
 267 518 268 520 266 522 c 0
 255 530 247 535 235 545 c 0
 233 547 231 542 229 540 c 0
 205 514 169 502 144 502 c 0
 125 502 117 502 102 502 c 0
 93 502 93 509 93 514 c 0
 93 573 93 574 93 595 c 1
 79 597 36 568 36 552 c 0
 36 526 36 573 36 514 c 0
 36 509 36 502 27 502 c 0
 12 502 17 501 11 502 c 1
 -7 483 l 1
 -1 483 2 483 26 483 c 0
 36 483 36 477 36 471 c 0
 36 352 36 231 36 80 c 0
 36 29 84 0 130 0 c 0
EndSplineSet
MinimumDistance: x4,-1 
EndChar
StartChar: u
Encoding: 117 117
Width: 370
HStem: 0 9<304 313> 0 12.9106<218 222> 494 8<154 156 211 215>
VStem: 33 54<305 347> 47 114<493 498> 234 57<31 465>
Fore
212 17 m 0
 220 8 234 12 234 45 c 2
 234 45 234 446 234 458 c 0
 234 482 221 494 212 494 c 0
 209 494 208 495 208 498 c 0
 208 502 211 501 212 502 c 2
 280 502 l 2
 286 502 291 502 291 492 c 0
 291 413 291 59 291 45 c 0
 291 4 304 9 314 9 c 0
 316 9 318 7 318 5 c 0
 318 1 314 1 313 0 c 2
 220 0 l 2
 206 0 198 4 186 15 c 0
 96 100 33 199 33 347 c 0
 33 398 59 464 59 474 c 0
 59 483 47 486 47 494 c 0
 47 499 52 502 58 502 c 2
 156 502 l 2
 157 501 161 502 161 498 c 0
 161 495 159 494 157 494 c 0
 150 494 138 474 125 456 c 0
 116 444 87 366 87 306 c 0
 87 192 133 111 212 17 c 0
EndSplineSet
MinimumDistance: x7,-1 x2,5 x2,3 
EndChar
StartChar: v
Encoding: 118 118
Width: 380
HStem: -0.503281 93.7603<220 222> 489 13<129 148>
VStem: 37 68<382 440>
Fore
57 502 m 0
 91 502 113 502 145 502 c 0
 150 502 156 502 156 498 c 0
 156 493 150 488 144 488 c 0
 139 488 136 489 131 489 c 0
 121 489 118 478 115 469 c 1
 103 439 105 417 105 383 c 0
 105 281 152 212 208 109 c 0
 212 102 220 73 228 113 c 1
 257 250 270 371 270 389 c 0
 270 428 270 464 239 484 c 0
 232 489 216 485 216 494 c 0
 216 500 224 502 230 502 c 0
 271 502 287 502 328 502 c 0
 332 502 338 503 338 499 c 1
 338 499 334 495 332 492 c 0
 316 473 318 476 310 454 c 0
 294 408 292 362 283 315 c 0
 258 186 255 153 228 11 c 1
 224 -8 221 -3 215 11 c 0
 183 88 132 151 92 240 c 0
 57 317 35 358 37 440 c 1
 38 461 41 482 42 494 c 1
 43 501 51 502 57 502 c 0
EndSplineSet
MinimumDistance: x6,-1 
EndChar
StartChar: w
Encoding: 119 119
Width: 500
HStem: 489 13<117 136>
VStem: 25 66<382 440>
Fore
45 502 m 0
 79 502 101 502 133 502 c 0
 138 502 144 502 144 498 c 0
 144 493 138 488 132 488 c 0
 127 488 124 489 119 489 c 0
 109 489 106 478 103 469 c 1
 91 439 91 417 91 383 c 0
 91 281 132 190 175 74 c 0
 178 66 187 38 195 78 c 0
 219 198 240 291 253 387 c 1
 256 407 262 404 267 386 c 1
 294 299 300 250 349 146 c 0
 352 140 359 142 363 159 c 1
 377 224 379 253 392 314 c 0
 398 343 396 359 396 389 c 0
 396 428 389 460 359 482 c 0
 352 486 340 485 340 494 c 0
 340 500 348 502 353 502 c 0
 394 502 419 502 460 502 c 0
 464 502 471 503 471 499 c 1
 471 499 467 495 464 492 c 0
 448 474 444 460 435 437 c 0
 416 391 417 362 407 315 c 1
 380 196 365 117 344 11 c 1
 341 -3 328 -18 326 1 c 1
 322 42 318 66 305 106 c 1
 287 159 269 191 254 237 c 1
 251 248 246 251 243 237 c 0
 226 157 209 103 196 11 c 1
 193 -8 189 -4 183 11 c 0
 153 88 113 147 76 237 c 0
 44 315 23 358 25 440 c 1
 26 461 29 482 30 494 c 1
 31 501 39 502 45 502 c 0
EndSplineSet
MinimumDistance: x6,-1 
EndChar
StartChar: x
Encoding: 120 120
Width: 365
HStem: -1 21G<64 135> 0 21G<204 318> 482 20G<196 267> 494 12<5 11> 502 21G<26 105>
VStem: 53.7798 50.0545<78 80> 198 126<5 7>
DStem: 55 463 115 448 139 261 162 336 161 206 186 280 221 64 289 36
Fore
289 36 m 2
 293 26 299 21 306 15 c 0
 312 10 324 10 324 5 c 1
 324 5 321 0 318 0 c 2
 204 0 l 2
 202 1 198 3 198 5 c 0
 198 9 220 9 224 18 c 1
 228 25 228 27 228 36 c 0
 228 45 230 42 221 64 c 2
 161 206 l 2
 157 216 150 246 139 224 c 0
 112 170 103 168 103 94 c 0
 103 45 129 17 135 -1 c 1
 111 -1 88 -1 64 -1 c 0
 60 -1 56 3 55 10 c 1
 52 46 50 91 64 127 c 0
 89 192 101 205 134 243 c 0
 139 249 141 255 139 261 c 1
 55 463 l 2
 52 471 38 484 31 488 c 0
 23 493 16 494 9 494 c 0
 4 494 -2 497 0 502 c 0
 1 505 4 506 7 506 c 0
 13 506 19 502 26 502 c 0
 57 502 74 502 105 502 c 0
 109 502 114 502 114 498 c 0
 114 492 110 486 109 478 c 1
 109 466 113 452 115 448 c 2
 162 336 l 2
 169 320 178 297 188 316 c 0
 217 368 224 381 227 435 c 0
 229 470 202 484 196 502 c 1
 220 502 243 502 267 502 c 0
 275 502 285 497 285 460 c 0
 285 417 224 340 189 298 c 0
 185 293 183 286 186 280 c 1
 289 36 l 2
EndSplineSet
MinimumDistance: x2,-1 
EndChar
StartChar: y
Encoding: 121 121
Width: 349
HStem: -153 28<148 166> 494 8<154 156 211 215>
VStem: 22.6203 40.9831<-74 -72> 33 54<306 347> 208 83<491 498> 234 56.0545<-40 -36 38 460>
Fore
234 -56 m 0
 234 -43 234 -50 234 -39 c 0
 234 -17 210 -7 186 15 c 0
 96 100 33 199 33 347 c 0
 33 398 59 464 59 474 c 0
 59 483 47 486 47 494 c 0
 47 499 52 502 58 502 c 2
 156 502 l 2
 157 501 161 502 161 498 c 0
 161 495 159 494 157 494 c 0
 150 494 138 474 125 456 c 0
 116 444 87 366 87 306 c 0
 87 192 133 111 212 17 c 0
 220 8 234 12 234 45 c 2
 234 45 234 446 234 458 c 0
 234 482 221 494 212 494 c 0
 209 494 208 495 208 498 c 0
 208 502 211 501 212 502 c 2
 280 502 l 2
 286 502 291 502 291 492 c 0
 291 413 291 -7 291 -21 c 0
 291 -102 236 -153 158 -153 c 0
 98 -153 -16 -123 34 -8 c 1
 61 -18 68 -22 83 -42 c 1
 25 -95 110 -125 156 -125 c 0
 202 -125 234 -102 234 -56 c 0
EndSplineSet
MinimumDistance: x14,17 x14,15 
EndChar
StartChar: z
Encoding: 122 122
Width: 392
HStem: 0 18<108 151> 0 76.2097<308 312>
DStem: 270 478 346 499 41 13 107 27
Fore
51 0 m 0
 38 0 36 3 41 13 c 2
 270 478 l 2
 272 482 275 492 265 490 c 0
 199 483 143 468 108 438 c 0
 105 435 101 436 104 442 c 0
 116 469 118 476 125 498 c 0
 127 505 131 505 135 505 c 0
 212 506 259 507 339 509 c 0
 352 509 348 503 346 499 c 2
 107 27 l 1
 103 21 109 18 113 18 c 0
 119 18 126 16 134 16 c 0
 196 16 255 41 304 74 c 0
 307 76 312 78 313 74 c 0
 320 48 324 35 341 11 c 0
 344 7 342 0 333 0 c 0
 228 0 141 0 51 0 c 0
EndSplineSet
MinimumDistance: x9,-1 
EndChar
StartChar: braceleft
Encoding: 123 123
Width: 308
HStem: -171 12<218 242> 733 12<218 242>
VStem: 93 58<-85 -55 629 658> 156 17.0244<120 134>
Fore
136 287 m 1
 170 247 174 215 174 168 c 0
 174 81 166 58 158 8 c 0
 157 1 151 -41 151 -55 c 0
 151 -104 160 -152 207 -157 c 0
 219 -158 228 -159 239 -159 c 0
 242 -159 248 -160 248 -165 c 0
 248 -167 247 -171 238 -171 c 0
 191 -171 107 -171 107 -171 c 2
 104 -170 99 -169 99 -167 c 0
 99 -162 114 -162 114 -152 c 0
 114 -145 93 -133 93 -84 c 0
 93 -2 156 47 156 121 c 0
 156 169 122 236 59 287 c 1
 122 338 156 405 156 453 c 0
 156 527 93 576 93 658 c 0
 93 707 114 719 114 726 c 0
 114 736 99 736 99 741 c 0
 99 743 104 744 107 745 c 2
 107 745 191 745 238 745 c 0
 247 745 248 742 248 740 c 0
 248 735 242 733 239 733 c 0
 228 733 219 732 207 731 c 0
 160 726 151 678 151 629 c 0
 151 615 157 573 158 566 c 0
 165 517 174 493 174 406 c 0
 174 359 170 327 136 287 c 1
EndSplineSet
EndChar
StartChar: bar
Encoding: 124 124
Width: 164
VStem: 38 20<38 718>
Fore
38 716 m 0
 38 730 58 732 58 714 c 0
 58 699 58 58 58 40 c 0
 58 28 38 20 38 42 c 0
 38 59 38 464 38 716 c 0
EndSplineSet
MinimumDistance: x1,-1 
EndChar
StartChar: braceright
Encoding: 125 125
Width: 308
HStem: -171 12<79 89> 733 12<79 89>
VStem: 146.976 17.0244<120 134> 169 58<-85 -55 629 658>
Fore
261 287 m 1
 198 236 164 169 164 121 c 0
 164 47 227 -2 227 -84 c 0
 227 -133 206 -145 206 -152 c 0
 206 -162 221 -162 221 -167 c 0
 221 -169 216 -170 213 -171 c 2
 213 -171 129 -171 82 -171 c 0
 73 -171 72 -167 72 -165 c 0
 72 -160 78 -159 81 -159 c 0
 92 -159 101 -158 113 -157 c 0
 160 -152 169 -104 169 -55 c 0
 169 -41 163 1 162 8 c 0
 154 58 146 81 146 168 c 0
 146 215 150 247 184 287 c 1
 150 327 146 359 146 406 c 0
 146 493 155 517 162 566 c 0
 163 573 169 615 169 629 c 0
 169 678 160 726 113 731 c 0
 101 732 92 733 81 733 c 0
 78 733 72 735 72 740 c 0
 72 742 73 745 82 745 c 0
 129 745 213 745 213 745 c 2
 216 744 221 743 221 741 c 0
 221 736 206 736 206 726 c 0
 206 719 227 707 227 658 c 0
 227 576 164 527 164 453 c 0
 164 405 198 338 261 287 c 1
EndSplineSet
MinimumDistance: x2,-1 
EndChar
StartChar: asciitilde
Encoding: 126 126
Width: 435
HStem: 353 20<89 166>
Fore
26 348 m 0
 41 372 53 402 78 402 c 0
 112 402 131 373 165 373 c 0
 186 373 205 384 223 395 c 0
 238 404 235 390 231 383 c 0
 217 358 205 324 175 324 c 0
 140 324 125 353 90 353 c 0
 69 353 57 347 36 334 c 0
 14 320 17 333 26 348 c 0
EndSplineSet
EndChar
StartChar: dagger
Encoding: 160 8224
Width: 355
HStem: 617 38<186.031 211.899> 730 20G<141 193>
VStem: 130 74<331 413> 150 34<-7 29 655.031 690.883>
Fore
186 617 m 1
 213 617 289 610 289 610 c 1
 289 662 l 1
 289 662 213 655 186 655 c 1
 186 683 188 718 193 750 c 1
 141 750 l 1
 146 718 148 683 148 655 c 1
 122 656 45 662 45 662 c 1
 45 610 l 1
 45 610 122 615 148 617 c 1
 147 590 130 462 130 372 c 0
 130 282 148 106 150 -5 c 1
 150 -12 159 -20 167 -20 c 0
 175 -20 184 -12 184 -5 c 1
 185 108 204 282 204 372 c 0
 204 462 187 590 186 617 c 1
EndSplineSet
MinimumDistance: x13,-1 
EndChar
StartChar: degree
Encoding: 161 176
Width: 343
HStem: 590.775 35.3994<44 62> 728.369 35.4347<44 62>
VStem: -33.8835 35.3731<669 687> 104.274 35.5098<669 687>
Fore
-2 745 m 0
 35 775 91 769 121 732 c 0
 151 695 145 640 108 610 c 0
 71 580 15 585 -15 622 c 0
 -45 659 -39 715 -2 745 c 0
18 715 m 0
 -3 695 -5 663 15 642 c 0
 35 621 67 620 88 640 c 0
 109 660 111 691 91 712 c 0
 71 733 39 735 18 715 c 0
EndSplineSet
EndChar
StartChar: cent
Encoding: 162 162
Width: 426
VStem: 60 64<431 465> 228 24<719 728> 228 28<72 118 207 630>
Fore
228 726 m 0
 228 744 252 743 252 726 c 0
 252 710 254 696 256 676 c 1
 279 672 291 669 312 660 c 0
 339 649 351 637 376 622 c 1
 370 605 364 594 354 580 c 0
 341 562 328 556 312 542 c 1
 315 549 318 553 316 560 c 0
 305 596 295 623 264 638 c 0
 259 640 256 631 256 626 c 0
 256 474 256 164 256 164 c 1
 289 144 309 133 346 124 c 0
 359 121 367 122 380 120 c 1
 361 111 349 108 328 106 c 0
 300 104 256 118 256 118 c 1
 255 101 256 86 256 74 c 0
 256 39 228 41 228 78 c 0
 228 100 229 112 228 134 c 1
 157 174 58 297 60 446 c 1
 61 550 116 640 210 670 c 0
 222 674 228 679 228 694 c 0
 228 705 228 718 228 726 c 0
228 628 m 0
 228 635 222 644 214 644 c 0
 157 644 124 532 124 448 c 0
 124 330 194 202 216 202 c 0
 222 202 228 206 228 212 c 0
 228 359 228 503 228 628 c 0
EndSplineSet
MinimumDistance: x2,-1 
EndChar
StartChar: sterling
Encoding: 163 163
Width: 435
HStem: -5 18<60 64> 0 33<210 260> 722 28<242 260>
VStem: 71.4669 78.9834<490 524> 120.887 77.9556<154 188> 345.896 41.893<666 668>
Fore
81 402 m 1
 69 471 64 545 91 633 c 0
 119 724 210 750 252 750 c 0
 312 750 426 720 376 605 c 1
 349 615 342 619 327 639 c 1
 385 692 300 722 254 722 c 0
 208 722 191 694 176 654 c 1
 137 546 149 458 167 373 c 1
 187 374 206 384 223 395 c 0
 238 404 235 390 231 383 c 0
 218 359 206 327 178 324 c 1
 197 241 213 156 181 56 c 1
 176 42 192 33 214 33 c 0
 251 33 281 28 326 60 c 0
 347 75 353 106 352 126 c 1
 383 112 407 94 426 67 c 0
 430 61 426 54 421 49 c 0
 386 13 327 0 309 0 c 2
 309 0 129 0 82 0 c 0
 75 0 68 -5 63 -5 c 0
 58 -5 49 0 49 4 c 0
 49 13 57 13 62 13 c 0
 64 13 69 9 72 10 c 0
 90 13 99 50 107 77 c 1
 138 176 112 261 91 353 c 1
 74 354 57 347 36 334 c 0
 14 320 17 333 26 348 c 0
 42 373 52 403 81 402 c 1
EndSplineSet
EndChar
StartChar: section
Encoding: 164 167
Width: 350
HStem: -69 13<111 176> -69 55<68 87> 737 12<153 219>
VStem: 57 38<-37 -26> 63.3877 54.5228<692 708> 211.384 56.0611<-31 -12> 235 38<706 716 717 719>
Fore
154 525 m 1
 123 564 92 604 73 656 c 1
 54 710 67 721 64 729 c 1
 61 740 47 739 45 746 c 1
 44 748 49 749 51 749 c 2
 51 749 120 749 164 749 c 0
 204 749 222 749 265 749 c 1
 273 747 283 751 286 743 c 0
 289 736 266 736 273 716 c 1
 273 700 267 694 254 694 c 0
 242 694 235 695 235 712 c 0
 235 729 222 736 211 736 c 0
 201 736 183 737 171 737 c 0
 161 737 154 736 144 735 c 0
 105 731 116 676 135 624 c 0
 149 584 160 568 166 555 c 0
 193 501 208 475 243 382 c 0
 262 331 297 242 176 155 c 1
 207 116 238 76 257 24 c 0
 276 -29 263 -40 266 -49 c 0
 270 -60 283 -59 285 -66 c 1
 286 -68 282 -69 279 -69 c 2
 279 -69 210 -69 166 -69 c 0
 127 -69 108 -69 65 -69 c 1
 57 -67 47 -71 44 -62 c 1
 41 -56 64 -56 57 -36 c 1
 57 -20 63 -14 76 -14 c 0
 88 -14 95 -15 95 -32 c 0
 95 -49 108 -56 119 -56 c 0
 129 -56 148 -57 160 -57 c 0
 169 -57 176 -56 186 -55 c 0
 226 -50 213 5 195 56 c 1
 180 96 171 112 164 126 c 0
 138 180 122 205 87 298 c 0
 68 349 33 438 154 525 c 1
145 197 m 1
 221 250 229 381 209 434 c 1
 202 451 194 467 184 482 c 1
 109 430 101 299 121 247 c 0
 128 229 137 214 145 197 c 1
EndSplineSet
MinimumDistance: x8,-1 
EndChar
StartChar: bullet
Encoding: 165 8226
Width: 422
Fore
110 425 m 0
 155 473 232 474 280 429 c 0
 328 384 330 308 285 260 c 0
 240 212 162 210 114 255 c 0
 66 300 65 377 110 425 c 0
EndSplineSet
EndChar
StartChar: paragraph
Encoding: 166 182
Width: 582
HStem: 0 13<505 511> 0 17<105 255 365.501 381> 0 23<73 80> 235 49<208 222> 733 17<223 255>
VStem: 26 71<514 579> 276 63<51.2662 689> 411 63<66 689>
Fore
65 0 m 2
 62 0 58 3 58 9 c 0
 58 13 56 23 78 23 c 0
 97 23 79 17 121 17 c 0
 145 17 200 17 253 17 c 0
 278 17 276 53 276 67 c 0
 276 87 276 567 276 715 c 0
 276 721 272 729 264 731 c 0
 254 734 249 733 239 733 c 0
 137 733 97 615 97 514 c 0
 97 430 114 345 145 300 c 0
 157 282 180 264 190 264 c 0
 195 264 197 266 202 268 c 0
 211 272 212 284 222 284 c 0
 236 284 244 275 244 263 c 0
 244 245 223 235 208 235 c 0
 134 235 26 427 26 579 c 0
 26 654 54 750 119 750 c 2
 119 750 370 750 525 750 c 0
 530 750 536 750 536 738 c 0
 536 721 521 729 517 729 c 0
 503 729 474 719 474 683 c 0
 474 665 474 67 474 67 c 2
 474 18 494 13 508 13 c 0
 512 13 514 11 514 7 c 0
 514 1 510 0 507 0 c 2
 65 0 l 2
411 67 m 1
 412 87 411 535 411 683 c 0
 411 719 388 729 376 729 c 0
 362 729 339 719 339 683 c 0
 339 665 339 67 339 67 c 2
 339 18 364 17 378 17 c 0
 397 17 409 18 411 67 c 1
EndSplineSet
MinimumDistance: x21,-1 
EndChar
StartChar: germandbls
Encoding: 167 223
Width: 458
HStem: 0 8<13 17 113 119> 301 58<245 281> 739 11<136 171>
VStem: 36 57<38 696> 130 18<400 408>
Fore
228 491 m 0
 185 510 149 447 148 400 c 1
 147 382 183 340 188 325 c 1
 190 321 206 322 208 325 c 0
 225 344 250 359 281 359 c 0
 360 359 399 285 399 210 c 0
 399 39 307 -9 251 -9 c 0
 219 -9 159 20 133 62 c 0
 130 67 133 70 137 72 c 0
 158 79 169 89 184 98 c 0
 187 100 189 100 191 94 c 0
 207 52 252 28 281 28 c 0
 322 28 371 77 371 157 c 0
 371 237 328 301 245 301 c 0
 232 301 226 299 214 292 c 0
 210 290 207 292 204 293 c 0
 172 310 130 370 130 404 c 0
 130 474 208 548 258 532 c 0
 335 507 333 590 310 650 c 0
 284 718 241 739 145 739 c 0
 120 739 93 714 93 687 c 0
 93 684 93 44 93 44 c 2
 93 20 106 8 115 8 c 0
 118 8 119 7 119 4 c 0
 119 0 116 0 115 0 c 2
 14 0 l 2
 13 1 10 0 10 4 c 0
 10 7 11 8 14 8 c 0
 23 8 36 20 36 44 c 0
 36 53 36 684 36 684 c 2
 36 721 60 750 106 750 c 0
 172 750 164 750 227 750 c 0
 304 750 420 688 420 610 c 0
 420 480 322 449 228 491 c 0
EndSplineSet
MinimumDistance: x1,-1 x28,25 x28,27 x21,24 x21,22 
EndChar
StartChar: registered
Encoding: 168 174
Width: 545
HStem: 125 40<221 258> 230 7<143 147> 595 10<208 260> 599 6<140 146> 680 40<221 258>
VStem: -3 37<396 446> 140 61.1105<233 237> 160 42<252 521 559.372 575> 295 47<556 570> 308 51<252 270> 446 37<396 446>
Fore
304 605 m 2
 319 605 342 588 342 570 c 0
 342 535 287 485 253 459 c 0
 250 457 251 453 252 450 c 1
 261 433 272 426 284 409 c 0
 323 355 359 305 359 256 c 0
 359 246 358 240 356 230 c 1
 302 230 l 1
 306 242 308 248 308 260 c 0
 308 294 300 316 287 349 c 0
 278 372 269 383 258 404 c 0
 236 448 229 462 208 519 c 0
 207 522 202 531 202 519 c 0
 202 413 202 249 202 241 c 0
 202 230 198 230 194 230 c 2
 144 230 l 2
 143 231 140 231 140 234 c 0
 140 236 141 237 143 237 c 0
 150 237 160 239 160 264 c 2
 160 264 160 563 160 572 c 0
 160 590 150 599 143 599 c 0
 141 599 140 600 140 602 c 0
 140 605 142 605 144 605 c 2
 304 605 l 2
220 595 m 0
 212 595 202 595 202 587 c 0
 202 582 202 577 202 570 c 0
 202 546 221 507 238 470 c 0
 243 460 249 466 253 470 c 0
 283 500 295 542 295 556 c 0
 295 578 275 595 252 595 c 0
 240 595 232 595 220 595 c 0
240 680 m 0
 126 680 34 564 34 422 c 0
 34 280 126 165 240 165 c 0
 354 165 446 280 446 422 c 0
 446 564 354 680 240 680 c 0
240 720 m 0
 371 720 483 586 483 422 c 0
 483 258 371 125 240 125 c 0
 109 125 -3 258 -3 422 c 0
 -3 586 109 720 240 720 c 0
EndSplineSet
MinimumDistance: x35,-1 
EndChar
StartChar: copyright
Encoding: 169 169
Width: 230
HStem: 125 40<234 258> 230 14<252 266> 601 9<226.528 243> 680 40<234 258>
VStem: -3 37<396 448> 121 44<428 462> 446 37<396 448>
Fore
300 610 m 1
 289 589 280 577 264 561 c 1
 262 570 264 575 259 583 c 0
 254 593 247 601 236 601 c 0
 180 601 165 501 165 448 c 0
 165 359 194 244 261 244 c 0
 278 244 288 246 303 254 c 1
 289 238 276 230 255 230 c 0
 239 230 204 249 179 275 c 0
 142 314 121 383 121 451 c 0
 121 538 182 610 219 610 c 0
 251 610 268 610 300 610 c 1
240 680 m 0
 126 680 34 564 34 422 c 0
 34 280 126 165 240 165 c 0
 354 165 446 280 446 422 c 0
 446 564 354 680 240 680 c 0
240 720 m 0
 371 720 483 586 483 422 c 0
 483 258 371 125 240 125 c 0
 109 125 -3 258 -3 422 c 0
 -3 586 109 720 240 720 c 0
EndSplineSet
EndChar
StartChar: trademark
Encoding: 170 8482
Width: 570
HStem: 369 8<102 107.992 166 177 508 510> 739 5<431.536 438 508 510>
VStem: 118 42<391 720> 284 16<402 694> 451 42<400 673>
Fore
110 726 m 0
 105 726 101 726 95 723 c 1
 74 719 60 709 45 697 c 1
 44 694 36 696 39 701 c 1
 45 715 49 724 54 736 c 0
 56 740 60 744 64 744 c 0
 89 744 111 742 141 742 c 0
 171 742 190 744 217 744 c 0
 221 744 225 745 227 739 c 0
 232 726 233 722 240 710 c 0
 245 703 246 700 235 705 c 1
 219 717 206 720 187 723 c 1
 179 726 174 726 167 726 c 0
 160 726 160 718 160 712 c 0
 160 653 160 413 160 404 c 0
 160 372 170 377 177 377 c 0
 179 377 180 376 180 374 c 0
 180 371 178 370 177 369 c 2
 102 369 l 2
 101 370 98 371 98 374 c 0
 98 376 99 377 101 377 c 0
 108 377 118 378 118 404 c 2
 118 404 118 604 118 712 c 0
 118 717 117 726 110 726 c 0
444 671 m 0
 430 626 413 585 396 532 c 1
 392 521 391 517 396 502 c 0
 406 471 413 449 413 414 c 0
 413 398 410 387 405 369 c 1
 355 369 l 1
 370 393 379 419 379 453 c 0
 379 495 350 575 309 685 c 0
 302 703 300 693 300 685 c 2
 300 416 l 2
 300 404 301 393 311 384 c 0
 316 380 324 380 324 373 c 0
 324 369 318 369 314 369 c 2
 268 369 l 2
 264 369 259 369 259 374 c 0
 259 381 269 378 273 382 c 0
 281 391 284 397 284 408 c 2
 284 696 l 2
 284 713 281 728 267 737 c 1
 265 740 262 740 261 741 c 1
 260 745 267 744 271 744 c 2
 309 744 l 2
 314 744 324 746 322 741 c 0
 321 739 318 740 315 736 c 1
 311 733 310 728 309 720 c 0
 308 712 312 706 315 696 c 1
 337 641 358 600 376 553 c 1
 382 539 386 545 389 552 c 0
 415 615 417 637 437 694 c 1
 441 707 443 719 443 726 c 0
 443 731 441 739 434 739 c 0
 432 739 431 740 431 742 c 0
 431 745 434 743 435 744 c 2
 510 744 l 2
 511 743 513 745 513 742 c 0
 513 740 512 739 510 739 c 0
 503 739 493 735 493 712 c 2
 493 712 493 413 493 404 c 0
 493 386 503 377 510 377 c 0
 512 377 513 376 513 374 c 0
 513 371 511 370 510 369 c 2
 455 369 l 2
 451 369 446 368 446 377 c 0
 446 381 451 387 451 392 c 0
 451 464 451 671 451 671 c 2
 451 690 445 675 444 671 c 0
EndSplineSet
MinimumDistance: x56,-1 x60,63 x60,61 x59,56 x59,58 x14,17 x14,15 
EndChar
StartChar: acute
Encoding: 171 180
Width: 234
HStem: 730 20G<72 152>
Fore
152 750 m 1
 97 625 l 1
 57 625 l 1
 57 625 67 667 70 695 c 1
 72 716 72 750 72 750 c 1
 152 750 l 1
EndSplineSet
EndChar
StartChar: dieresis
Encoding: 172 168
Width: 544
VStem: 116 58<622 640> 276 58<622 640>
Fore
116 630 m 0
 116 649 126 669 145 669 c 0
 164 669 174 649 174 630 c 0
 174 611 164 591 145 591 c 0
 126 591 116 611 116 630 c 0
276 630 m 0
 276 649 286 669 305 669 c 0
 324 669 334 649 334 630 c 0
 334 611 324 591 305 591 c 0
 286 591 276 611 276 630 c 0
EndSplineSet
MinimumDistance: x6,-1 
EndChar
StartChar: notequal
Encoding: 173 8800
Width: 331
HStem: 272.996 28.0035<169.031 203.798> 363 28<134 169>
Fore
169 363 m 1
 168 363 168 363 167 363 c 0
 138 363 121 362 92 357 c 1
 92 397 l 1
 121 392 138 391 167 391 c 0
 182 391 l 1
 190 408 199 426 208 447 c 0
 214 461 245 463 237 445 c 0
 235 441 225 420 212 393 c 1
 222 394 232 395 244 397 c 1
 244 357 l 1
 226 360 213 362 198 362 c 1
 188 342 178 321 169 301 c 1
 198 301 215 302 244 307 c 1
 244 267 l 1
 214 272 197 273 167 273 c 0
 163 273 159 273 156 273 c 1
 146 252 138 237 136 232 c 0
 131 220 97 212 107 234 c 0
 112 244 104 227 125 271 c 1
 115 271 105 269 92 267 c 1
 92 307 l 1
 111 304 124 302 139 301 c 1
 147 317 157 337 169 363 c 1
EndSplineSet
EndChar
StartChar: AE
Encoding: 174 198
Width: 550
HStem: -23 20G<231 338> -3 21G<12 94> 474 21<323 382> 488 21<173.402 207> 528 18<187 207> 731 18<187 245>
VStem: 49 61<558 607> 257 61<47 466 501 512 544 706>
Fore
252 515 m 0
 230 523 213 528 197 528 c 0
 177 528 147 523 120 508 c 0
 111 503 114 485 127 491 c 0
 153 504 165 509 191 509 c 0
 213 509 225 504 247 498 c 0
 258 495 257 513 252 515 c 0
257 551 m 0
 257 591 257 638 257 693 c 0
 257 720 252 729 238 729 c 0
 226 729 217 731 204 731 c 0
 191 731 183 730 170 728 c 0
 120 721 110 638 110 559 c 0
 110 537 108 519 124 527 c 0
 152 541 170 546 200 546 c 0
 217 546 228 543 245 537 c 0
 256 533 257 543 257 551 c 0
323 750 m 0
 401 752 368 756 426 756 c 0
 462 756 498 735 510 701 c 0
 513 693 510 692 507 689 c 0
 491 673 482 663 465 648 c 0
 462 646 459 643 456 652 c 1
 450 679 446 696 429 713 c 0
 413 728 399 730 380 731 c 0
 367 732 352 732 339 732 c 1
 331 726 318 720 318 700 c 0
 318 626 318 561 318 500 c 1
 320 497 324 495 328 495 c 0
 345 495 354 495 375 495 c 0
 403 495 443 514 470 552 c 1
 472 556 474 563 477 560 c 0
 490 545 496 540 508 528 c 0
 510 526 510 522 507 519 c 0
 470 479 445 474 402 474 c 0
 373 474 357 474 329 474 c 0
 324 474 321 472 318 470 c 1
 318 335 318 214 318 47 c 1
 320 42 323 38 327 36 c 0
 340 28 349 27 364 27 c 0
 417 27 471 77 492 123 c 0
 493 126 495 135 501 129 c 0
 516 112 527 102 537 89 c 0
 540 84 540 75 537 70 c 0
 502 23 460 -15 420 -15 c 0
 399 -15 355 -1 338 -3 c 1
 231 -3 l 1
 229 -1 227 -1 227 3 c 0
 227 17 257 2 257 48 c 0
 257 203 257 293 257 448 c 0
 257 474 254 475 240 480 c 0
 223 486 210 488 191 488 c 0
 165 488 145 485 124 472 c 0
 117 468 117 467 117 454 c 0
 117 373 135 334 135 193 c 0
 135 114 131 63 94 -3 c 1
 12 -3 l 1
 80 81 116 190 116 271 c 0
 116 393 49 473 49 607 c 0
 49 689 71 706 71 719 c 0
 71 736 55 735 55 744 c 0
 55 748 61 749 63 750 c 1
 63 750 148 749 201 749 c 0
 249 749 271 748 323 750 c 0
EndSplineSet
MinimumDistance: x24,-1 
EndChar
StartChar: Oslash
Encoding: 175 216
Width: 496
VStem: 42 74<385 454>
DStem: 336 602 355 568 144 227 159 183
Fore
355 568 m 1
 294 449 217 298 159 183 c 1
 185 117 226 65 286 46 c 0
 368 19 404 207 404 326 c 0
 404 414 388 500 355 568 c 1
144 227 m 1
 201 337 271 475 336 602 c 1
 312 641 280 670 242 684 c 0
 139 722 116 555 116 454 c 0
 116 378 124 297 144 227 c 1
91 123 m 1
 54 197 42 288 42 386 c 0
 42 545 91 676 216 754 c 0
 250 775 283 770 318 750 c 0
 343 736 365 716 383 694 c 1
 396 718 409 742 420 765 c 0
 428 781 465 783 455 763 c 0
 453 759 433 721 404 664 c 1
 443 601 462 518 462 430 c 0
 462 343 468 91 298 0 c 0
 265 -18 244 -27 212 -8 c 0
 169 18 135 51 110 89 c 1
 88 45 73 16 71 12 c 0
 65 -2 23 -11 35 14 c 1
 38 19 59 60 91 123 c 1
EndSplineSet
MinimumDistance: x0,-1 
EndChar
StartChar: infinity
Encoding: 176 8734
Width: 816
HStem: 92 20<272 298> 92 42<591 610> 350 21<590 610>
VStem: 129 31<219 237> 728 32<219 237>
Fore
418 200 m 1
 377 262 347 329 280 328 c 0
 220 327 160 286 160 231 c 0
 160 176 214 112 280 112 c 0
 349 112 388 151 418 200 c 1
473 263 m 1
 514 201 541 134 608 134 c 0
 668 134 728 176 728 231 c 0
 728 286 674 350 608 350 c 0
 542 350 504 311 473 263 c 1
464 278 m 1
 494 329 528 371 592 371 c 0
 705 370 760 299 760 231 c 0
 760 156 704 92 592 92 c 0
 509 92 463 136 428 186 c 1
 396 135 360 93 296 92 c 0
 183 92 129 156 129 231 c 0
 129 299 182 370 296 371 c 0
 383 371 429 328 464 278 c 1
EndSplineSet
MinimumDistance: x10,-1 
EndChar
StartChar: plusminus
Encoding: 177 177
Width: 355
HStem: 352 30<182.031 201.735>
VStem: 152 30<382.031 406.591>
Fore
147 301 m 1
 150 320 151 334 152 352 c 1
 131 351 92 346 92 346 c 1
 92 388 l 1
 92 388 131 383 152 382 c 1
 152 404 150 419 146 444 c 1
 188 444 l 1
 184 419 182 404 182 382 c 1
 204 382 244 388 244 388 c 1
 244 346 l 1
 244 346 204 352 182 352 c 1
 183 334 184 320 186 301 c 1
 206 302 221 303 244 307 c 1
 244 267 l 1
 214 272 197 273 167 273 c 0
 138 273 121 272 92 267 c 1
 92 307 l 1
 114 303 129 302 147 301 c 1
EndSplineSet
MinimumDistance: x7,-1 
EndChar
StartChar: lessequal
Encoding: 178 8804
Width: 420
HStem: 152 29<124 210>
VStem: 215.997 48.3606<473 481>
Fore
261 466 m 0
 240 426 185 402 128 379 c 0
 116 375 97 369 97 369 c 1
 103 365 126 359 133 356 c 0
 183 335 206 321 234 290 c 0
 253 270 255 249 260 230 c 1
 260 226 256 223 250 223 c 0
 214 218 240 221 204 217 c 1
 208 227 209 245 207 271 c 1
 204 307 168 326 128 348 c 0
 110 357 95 360 72 371 c 1
 72 371 109 382 126 389 c 0
 145 397 195 432 211 459 c 0
 222 477 212 486 208 496 c 1
 226 494 238 493 255 490 c 0
 261 489 271 485 261 466 c 0
72 186 m 1
 72 146 l 1
 108 151 129 152 164 152 c 0
 201 152 222 151 260 146 c 1
 260 186 l 1
 222 182 201 181 164 181 c 0
 129 181 108 182 72 186 c 1
EndSplineSet
EndChar
StartChar: greaterequal
Encoding: 179 8805
Width: 420
HStem: 152 29<124 213>
VStem: 69.6426 48.3574<473 481> 74 52.9573<229 231>
Fore
73 466 m 0
 94 426 149 402 206 379 c 0
 218 375 237 369 237 369 c 1
 231 365 208 359 201 356 c 0
 151 335 128 321 100 290 c 0
 81 270 79 249 74 230 c 1
 74 226 78 223 84 223 c 0
 120 218 94 221 130 217 c 1
 126 227 125 245 127 271 c 1
 130 307 166 326 206 348 c 0
 224 357 239 360 262 371 c 1
 262 371 225 382 208 389 c 0
 189 397 139 432 123 459 c 0
 112 477 122 486 126 496 c 1
 108 494 96 493 79 490 c 0
 73 489 63 485 73 466 c 0
262 186 m 1
 262 146 l 1
 226 151 205 152 170 152 c 0
 133 152 112 151 74 146 c 1
 74 186 l 1
 112 182 133 181 170 181 c 0
 205 181 226 182 262 186 c 1
EndSplineSet
MinimumDistance: x13,-1 
EndChar
StartChar: yen
Encoding: 180 165
Width: 594
HStem: -6 17<99 109> -1 21G<132 249> 463 33<190 339 435 446> 586 32<186 385> 729 20G<390 554> 737 13<186 207>
VStem: 69.6399 143.373<738 740> 381 182<740 742>
DStem: 275 298 421 463 175 58 265 81 385 585 470 583 352 496 435 498
Fore
190 463 m 1
 210 425 238 389 274 351 c 0
 296 328 302 365 308 380 c 1
 339 464 l 1
 324 464 308 464 291 464 c 0
 253 464 221 464 190 463 c 1
156 584 m 1
 158 553 165 524 175 497 c 1
 210 496 247 496 291 496 c 0
 313 496 333 496 352 496 c 1
 385 585 l 1
 356 586 326 586 291 586 c 0
 239 586 197 586 156 584 c 1
13 625 m 1
 40 624 63 623 86 622 c 1
 75 661 69 697 69 734 c 0
 69 744 76 750 83 750 c 2
 205 750 l 2
 210 750 214 747 214 742 c 0
 214 738 209 735 205 735 c 0
 198 735 195 737 188 737 c 0
 172 737 154 669 154 623 c 2
 154 620 l 1
 196 618 238 618 291 618 c 0
 331 618 365 618 398 619 c 1
 401 628 l 2
 413 660 414 662 413 685 c 1
 412 698 412 707 406 718 c 0
 399 731 381 736 381 742 c 0
 381 745 386 748 390 749 c 2
 554 749 l 2
 558 749 563 742 563 742 c 1
 563 734 545 734 536 726 c 0
 526 717 522 710 516 696 c 2
 485 621 l 1
 514 622 543 623 578 625 c 1
 578 579 l 1
 537 581 503 582 470 583 c 1
 435 498 l 1
 479 499 522 501 578 503 c 1
 578 457 l 1
 516 460 469 462 421 463 c 1
 265 81 l 2
 262 74 255 54 256 36 c 1
 257 24 263 14 263 5 c 0
 263 0 255 -1 249 -1 c 2
 132 -1 l 2
 121 -1 113 -6 103 -6 c 0
 99 -6 95 -4 93 0 c 0
 90 7 99 11 106 11 c 0
 117 11 128 13 139 20 c 0
 150 27 170 47 175 58 c 2
 275 298 l 2
 279 307 275 316 269 324 c 0
 235 365 193 408 157 463 c 1
 113 461 69 460 13 457 c 1
 13 503 l 1
 60 501 98 499 135 498 c 1
 124 518 114 540 105 563 c 1
 103 570 100 576 98 583 c 1
 72 582 44 580 13 579 c 1
 13 625 l 1
EndSplineSet
MinimumDistance: x29,-1 
EndChar
StartChar: mu
Encoding: 181 181
Width: 375
HStem: -250 8<15 19 115 121> -2 9<330 335> -2 14<197 203> 491 9<15 28 230 236 330 335>
VStem: 38 57<-216.996 70 293 439 455 490> 256 57<53 459> 256.966 83.0339<1 5>
Fore
95 256 m 1
 99 146 141 12 199 12 c 0
 222 12 256 35 256 61 c 2
 256 61 256 444 256 456 c 0
 256 480 243 492 234 492 c 0
 231 492 230 493 230 496 c 0
 230 500 233 500 234 500 c 2
 335 500 l 2
 336 499 339 500 339 496 c 0
 339 493 338 492 335 492 c 0
 326 492 313 480 313 456 c 0
 313 444 313 57 313 43 c 0
 313 2 326 7 336 7 c 0
 338 7 340 5 340 3 c 0
 340 -1 336 -1 335 -2 c 2
 267 -2 l 2
 261 -2 256 -2 256 8 c 0
 256 12 256 18 256 20 c 0
 256 28 246 16 242 13 c 0
 238 10 222 -2 200 -2 c 0
 154 -2 120 27 95 70 c 1
 95 -77 95 -206 95 -206 c 2
 95 -230 108 -242 117 -242 c 0
 120 -242 121 -243 121 -246 c 0
 121 -250 118 -250 117 -250 c 2
 16 -250 l 2
 15 -249 12 -250 12 -246 c 0
 12 -243 13 -242 16 -242 c 0
 25 -242 38 -230 38 -206 c 0
 38 -194 38 441 38 455 c 0
 38 496 25 491 15 491 c 0
 13 491 11 493 11 495 c 0
 11 499 15 499 16 500 c 2
 84 500 l 2
 90 500 95 500 95 490 c 0
 95 488 90 384 95 256 c 1
EndSplineSet
MinimumDistance: x8,-1 y7,9 x10,7 x10,9 y6,4 x3,6 x3,4 x28,25 x28,27 x21,24 x21,22 
EndChar
StartChar: partialdiff
Encoding: 182 8706
Width: 356
HStem: 0 18<178 206> 488 14<186 199> 720 30<42 60>
VStem: 32 57<154 198> 252 57<153 287>
Fore
195 488 m 0
 129 488 89 310 89 196 c 0
 89 61 171 18 196 18 c 0
 227 18 252 48 252 171 c 2
 252 242 l 2
 252 542 153 720 48 720 c 0
 36 720 27 722 27 734 c 0
 27 748 34 750 51 750 c 0
 183 750 309 556 309 285 c 2
 309 285 309 195 309 183 c 0
 309 45 256 -1 226 -1 c 0
 190 -1 179 0 179 0 c 2
 101 2 32 75 32 155 c 0
 32 315 75 502 196 502 c 0
 204 502 204 498 204 494 c 0
 204 490 199 488 195 488 c 0
EndSplineSet
MinimumDistance: x8,-1 
EndChar
StartChar: summation
Encoding: 183 8721
Width: 471
HStem: 731 20.8824<172 226.618> 739 13<39 43>
VStem: 33.6946 122.305<63 67>
DStem: 87 683 156 718 257 435 346 440 257 435 346 440 111 150 156 67
Fore
168 36 m 0
 186 28 198 27 218 27 c 0
 288 27 361 77 388 123 c 0
 390 126 393 135 400 129 c 0
 420 112 435 102 448 89 c 0
 453 84 453 75 448 70 c 0
 402 23 346 -15 292 -15 c 0
 226 -15 176 14 111 47 c 0
 94 56 83 64 63 64 c 0
 55 64 50 64 43 62 c 0
 34 60 28 66 40 73 c 0
 54 81 83 96 111 150 c 2
 257 435 l 1
 87 683 l 1
 72 716 52 739 38 739 c 0
 34 739 32 741 32 745 c 0
 32 751 35 750 39 752 c 0
 45 755 51 751 58 751 c 0
 244 751 246 756 336 756 c 0
 384 756 432 735 448 701 c 0
 452 693 449 692 445 689 c 0
 423 673 411 663 388 648 c 0
 385 646 380 643 377 652 c 0
 368 679 363 696 340 713 c 0
 319 728 300 730 275 731 c 0
 254 732 190 732 173 731 c 0
 160 730 156 727 156 718 c 1
 346 440 l 1
 156 67 l 1
 156 55 156 41 168 36 c 0
EndSplineSet
MinimumDistance: x27,-1 
EndChar
StartChar: product
Encoding: 184 8719
Width: 824
HStem: 0 13<171 179.306 315 321 501 509.306 635 651> 714 34.7203<177.359 188 626.337 632 632.016 645.511>
VStem: 204 84<49.5111 689> 534 84<49.5111 689>
Fore
415 719 m 1
 371 717 315 716 302 714 c 0
 287 712 288 698 288 683 c 0
 288 565 288 88 288 67 c 0
 288 6 308 13 322 13 c 0
 326 13 328 11 328 7 c 0
 328 1 323 2 321 0 c 1
 171 0 l 1
 169 2 164 1 164 7 c 0
 164 11 166 13 170 13 c 0
 184 13 204 18 204 67 c 2
 204 67 204 467 204 683 c 0
 204 696 201 714 188 714 c 0
 177 714 170 711 158 708 c 0
 115 697 87 680 58 653 c 0
 55 650 40 651 46 664 c 0
 58 689 66 710 76 734 c 0
 79 742 87 750 96 750 c 0
 146 750 291 746 415 746 c 0
 539 746 678 750 732 750 c 0
 740 750 748 752 752 740 c 0
 761 714 763 706 778 682 c 0
 787 668 789 659 768 672 c 0
 735 693 710 700 671 708 c 0
 656 711 645 714 632 714 c 0
 617 714 618 698 618 683 c 0
 618 565 618 88 618 67 c 0
 618 6 638 13 652 13 c 0
 656 13 658 11 658 7 c 0
 658 1 653 2 651 0 c 1
 501 0 l 1
 499 2 494 1 494 7 c 0
 494 11 496 13 500 13 c 0
 514 13 534 18 534 67 c 2
 534 67 534 467 534 683 c 0
 534 696 531 713 518 714 c 0
 478 717 415 719 415 719 c 1
EndSplineSet
MinimumDistance: x25,-1 
EndChar
StartChar: pi
Encoding: 185 960
Width: 668
HStem: 0 9<139 147.109 245 260 406 414.519 513 527> 478 23.4067<146 154 510 516>
VStem: 166 67<32.4523 465> 433 67<32.1293 465>
Fore
336 482 m 1
 301 480 255 480 245 478 c 0
 232 477 233 468 233 458 c 0
 233 379 233 59 233 45 c 0
 233 4 249 9 261 9 c 0
 264 9 265 7 265 5 c 0
 265 1 262 1 260 0 c 2
 139 0 l 2
 137 1 133 1 133 5 c 0
 133 7 134 9 138 9 c 0
 149 9 166 12 166 45 c 2
 166 45 166 313 166 458 c 0
 166 466 163 478 152 478 c 0
 143 478 138 476 128 474 c 0
 93 467 70 456 47 438 c 0
 44 435 32 436 37 445 c 0
 47 462 53 476 61 492 c 0
 64 497 70 502 77 502 c 0
 118 502 236 500 336 500 c 0
 436 500 549 502 593 502 c 0
 599 502 606 504 609 496 c 0
 616 478 618 473 630 457 c 0
 637 448 639 442 622 450 c 0
 595 464 575 469 544 474 c 0
 531 476 522 478 512 478 c 0
 499 478 500 468 500 458 c 0
 500 379 500 59 500 45 c 0
 500 4 517 9 528 9 c 0
 531 9 533 7 533 5 c 0
 533 1 529 1 527 0 c 2
 406 0 l 2
 404 1 400 1 400 5 c 0
 400 7 401 9 405 9 c 0
 417 9 433 12 433 45 c 2
 433 45 433 313 433 458 c 0
 433 466 430 477 419 478 c 0
 387 479 336 482 336 482 c 1
EndSplineSet
MinimumDistance: x25,-1 
EndChar
StartChar: integral
Encoding: 186 8747
Width: 166
HStem: -201 11<-21 -14> 739 11<139 147>
VStem: 36 57<-140 696>
Fore
36 -138 m 0
 36 -165 9 -190 -16 -190 c 0
 -47 -190 -84 -158 -111 -126 c 1
 -130 -153 -145 -167 -148 -201 c 1
 -82 -201 -43 -201 23 -201 c 0
 69 -201 93 -172 93 -135 c 2
 93 -135 93 684 93 687 c 0
 93 714 120 739 145 739 c 0
 176 739 213 707 240 675 c 1
 259 702 274 716 277 750 c 1
 211 750 172 750 106 750 c 0
 60 750 36 721 36 684 c 2
 36 684 36 -129 36 -138 c 0
EndSplineSet
MinimumDistance: x5,-1 
EndChar
StartChar: ordfeminine
Encoding: 187 170
Width: 278
HStem: 158 30<85 199> 250 6<245 251> 250 13<146 158> 520 11<133 150> 606 21<117 144>
VStem: 24 43<365 397> 30.3129 30.8576<566 568> 189 43<283 489 512 543>
Fore
189 291 m 2
 189 290 l 2
 189 299 189 483 189 483 c 2
 189 503 164 520 146 520 c 0
 96 520 67 475 67 397 c 0
 67 296 128 263 156 263 c 0
 172 263 189 272 189 291 c 2
130 606 m 2
 131 606 l 2
 96 606 32 583 76 543 c 1
 65 528 59 525 39 518 c 1
 1 604 87 627 132 627 c 0
 190 627 232 589 232 528 c 0
 232 518 232 292 232 283 c 0
 232 265 241 256 248 256 c 0
 251 256 251 255 251 253 c 0
 251 250 249 250 248 250 c 2
 248 250 164 250 134 250 c 0
 76 250 24 306 24 366 c 0
 24 476 56 531 147 531 c 0
 163 531 175 522 178 519 c 0
 181 517 189 508 189 514 c 0
 189 515 189 539 189 554 c 0
 189 588 165 606 130 606 c 2
22 194 m 1
 22 152 l 1
 69 157 96 158 142 158 c 0
 190 158 217 157 264 152 c 1
 264 194 l 1
 217 189 190 188 142 188 c 0
 96 188 69 189 22 194 c 1
EndSplineSet
MinimumDistance: x13,-1 x12,15 x12,13 
EndChar
StartChar: ordmasculine
Encoding: 188 186
Width: 285
HStem: 158 30<100 198>
VStem: 21 37<453 488> 203 28.5799<422 441>
Fore
59 488 m 1
 58 488 l 1
 58 402 79 304 144 283 c 0
 185 270 203 364 203 423 c 0
 203 504 175 583 122 603 c 0
 70 623 59 539 59 488 c 1
21 454 m 0
 21 534 46 600 109 639 c 0
 125 649 142 647 160 637 c 0
 208 608 232 545 232 476 c 0
 232 433 235 306 150 260 c 0
 133 251 122 247 107 256 c 0
 38 298 21 370 21 454 c 0
22 194 m 1
 22 152 l 1
 69 157 96 158 142 158 c 0
 190 158 217 157 264 152 c 1
 264 194 l 1
 217 189 190 188 142 188 c 0
 96 188 69 189 22 194 c 1
EndSplineSet
EndChar
StartChar: ae
Encoding: 190 230
Width: 541
HStem: 0 18<184 196> 360 14<168 186> 474 28<148.928 170> 490 12<355.137 375>
VStem: 35 51<154 196> 42.335 38.0074<417 421> 233 51<45 65> 233 57<305 313>
Fore
233 54 m 0
 233 66 233 311 233 311 c 2
 233 337 202 360 182 360 c 0
 122 360 86 300 86 196 c 0
 86 61 160 18 194 18 c 0
 213 18 233 30 233 54 c 0
364 490 m 0
 304 490 290 358 290 309 c 0
 290 304 299 294 305 296 c 0
 347 309 423 368 423 404 c 1
 424 447 406 490 364 490 c 0
273 432 m 1
 296 475 326 502 347 502 c 0
 380 502 373 502 401 502 c 0
 427 502 480 468 476 418 c 1
 472 359 415 337 375 306 c 0
 344 282 288 273 292 230 c 1
 303 118 328 14 403 12 c 0
 440 11 478 38 492 55 c 1
 478 16 430 -7 396 -7 c 0
 346 -7 310 21 284 65 c 1
 284 53 284 46 284 44 c 0
 284 -1 273 0 269 0 c 2
 269 0 203 0 167 0 c 0
 97 0 35 75 35 155 c 0
 35 301 74 374 183 374 c 0
 202 374 217 362 220 359 c 0
 224 356 233 344 233 352 c 0
 233 354 233 386 233 406 c 0
 233 451 204 474 163 474 c 0
 122 474 45 444 97 391 c 1
 84 371 77 367 53 357 c 1
 8 472 111 502 165 502 c 0
 215 502 254 476 273 432 c 1
EndSplineSet
MinimumDistance: x6,-1 
EndChar
StartChar: oslash
Encoding: 191 248
Width: 377
VStem: 28 50<258 304> 271 38.4816<217 242>
DStem: 226 401 242 372 98 149 110 115 311 567 340 565 258 463 275 437
Fore
242 372 m 1
 200 289 151 194 110 115 c 1
 128 74 154 43 192 31 c 0
 247 13 271 139 271 218 c 0
 271 274 261 329 242 372 c 1
98 149 m 1
 137 225 182 315 226 401 c 1
 210 428 188 448 162 458 c 0
 93 484 78 372 78 304 c 0
 78 252 84 197 98 149 c 1
62 79 m 1
 37 130 28 192 28 259 c 0
 28 365 61 453 145 505 c 0
 167 519 190 516 213 502 c 0
 230 492 245 479 258 463 c 1
 276 499 294 534 311 567 c 0
 317 579 348 581 340 565 c 0
 338 561 312 509 275 437 c 1
 299 396 310 343 310 288 c 0
 310 230 314 61 200 0 c 0
 178 -12 163 -18 142 -5 c 0
 115 11 95 31 79 53 c 1
 49 -6 27 -47 25 -51 c 0
 20 -62 -14 -70 -4 -50 c 0
 -1 -45 25 6 62 79 c 1
EndSplineSet
MinimumDistance: x14,-1 
EndChar
StartChar: questiondown
Encoding: 192 191
Width: 495
HStem: -26 24<250 269> 218.096 19.904<295 309> 647 88<263.031 264>
VStem: 43 60<165 199> 198 61<149 167> 252 24<549 571> 388 17<117 135>
Fore
256 -26 m 0
 108 -26 43 65 43 189 c 0
 43 308 127 315 186 393 c 0
 220 438 252 502 252 567 c 0
 252 579 256 583 263 583 c 0
 270 583 276 585 276 568 c 0
 276 490 270 451 222 374 c 0
 182 310 103 258 103 186 c 0
 103 132 116 -2 257 -2 c 0
 328 -2 388 61 388 125 c 0
 388 171 354 219 318 219 c 0
 285 219 259 190 259 157 c 0
 259 137 279 110 306 103 c 1
 292 95 283 90 267 90 c 0
 230 90 198 121 198 158 c 0
 198 211 247 238 296 238 c 0
 360 238 405 182 405 119 c 0
 405 38 326 -26 256 -26 c 0
299 689 m 0
 298 668 284 646 263 647 c 0
 242 648 229 668 229 689 c 0
 229 711 242 735 264 735 c 0
 286 735 300 711 299 689 c 0
EndSplineSet
MinimumDistance: x16,-1 
EndChar
StartChar: exclamdown
Encoding: 193 161
Width: 258
HStem: -21 13<57 72.8652 205 207> 658 88<132.031 133>
VStem: 115 34<570 604>
Fore
50 -14 m 0
 50 -10 52 -8 56 -8 c 0
 70 -8 90 -15 90 46 c 0
 90 67 115 479 115 597 c 0
 115 628 149 629 149 597 c 0
 149 579 174 66 174 46 c 0
 174 -3 194 -8 208 -8 c 0
 212 -8 214 -10 214 -14 c 0
 214 -20 209 -19 207 -21 c 1
 57 -21 l 1
 55 -19 50 -20 50 -14 c 0
168 700 m 0
 167 679 153 657 132 658 c 0
 111 659 98 679 98 700 c 0
 98 722 111 746 133 746 c 0
 155 746 169 722 168 700 c 0
EndSplineSet
MinimumDistance: x4,-1 
EndChar
StartChar: logicalnot
Encoding: 194 172
Width: 449
HStem: 204 20<41 367>
VStem: 367 20<83 204>
Fore
43 204 m 2
 36 204 35 224 44 224 c 2
 381 224 l 2
 385 224 387 216 387 213 c 2
 387 85 l 2
 387 79 367 75 367 86 c 2
 367 204 l 1
 43 204 l 2
EndSplineSet
MinimumDistance: x3,-1 
EndChar
StartChar: radical
Encoding: 195 8730
Width: 756
HStem: 0 21G<174 244> 524 36<479 690>
DStem: 81 189 119 291 174 0 233 60 464 556 480 524 233 60 244 0
Fore
480 524 m 1
 244 0 l 1
 174 0 l 1
 81 189 l 1
 54 161 l 1
 26 197 l 1
 119 291 l 1
 233 60 l 1
 464 556 l 1
 464 560 l 1
 690 560 l 1
 690 524 l 1
 480 524 l 1
EndSplineSet
MinimumDistance: x0,-1 
EndChar
StartChar: florin
Encoding: 196 402
Width: 204
HStem: -201 11<-61 -52> 483 19<57 75 145 197> 739 11<212 229>
DStem: 79 471 136 471 4 -136 61 -136
Fore
61 -136 m 1
 61 -136 121 352 136 471 c 1
 137 477 137 483 147 483 c 0
 171 483 186 483 212 483 c 0
 251 483 277 489 313 516 c 0
 316 518 317 520 315 522 c 0
 305 530 298 535 287 545 c 0
 285 547 283 542 280 540 c 0
 253 514 216 502 191 502 c 0
 172 502 164 502 149 502 c 0
 140 502 140 509 141 514 c 1
 148 573 162 686 162 687 c 1
 166 714 196 739 221 739 c 0
 252 739 285 707 308 675 c 1
 330 702 347 716 354 750 c 1
 288 750 249 750 183 750 c 0
 137 750 110 721 105 684 c 1
 102 656 91 573 84 514 c 1
 83 509 83 502 74 502 c 0
 59 502 64 501 58 502 c 1
 37 483 l 1
 43 483 46 483 70 483 c 0
 80 483 80 477 79 471 c 1
 64 352 5 -128 4 -136 c 0
 1 -160 -29 -190 -54 -190 c 0
 -85 -190 -118 -158 -141 -126 c 1
 -164 -153 -181 -167 -188 -201 c 1
 -122 -201 -83 -201 -17 -201 c 0
 29 -201 57 -172 61 -136 c 1
EndSplineSet
MinimumDistance: x2,-1 x21,2 
EndChar
StartChar: approxequal
Encoding: 197 8776
Width: 331
HStem: 262.079 49.9207<116 124> 263 20<129 206> 382.079 49.9207<116 124> 383 20<129 206>
Fore
66 258 m 0
 57 243 54 230 76 244 c 0
 97 257 109 263 130 263 c 0
 165 263 180 234 215 234 c 0
 245 234 257 268 271 293 c 0
 275 300 278 314 263 305 c 0
 245 294 226 283 205 283 c 0
 171 283 152 312 118 312 c 0
 93 312 81 282 66 258 c 0
66 378 m 0
 57 363 54 350 76 364 c 0
 97 377 109 383 130 383 c 0
 165 383 180 354 215 354 c 0
 245 354 257 388 271 413 c 0
 275 420 278 434 263 425 c 0
 245 414 226 403 205 403 c 0
 171 403 152 432 118 432 c 0
 93 432 81 402 66 378 c 0
EndSplineSet
EndChar
StartChar: Delta
Encoding: 198 8710
Width: 713
HStem: 0 45<50 535>
DStem: 290 530 315 680 535 45 627 45 315 680 290 530 0 45 50 45
Fore
315 680 m 1
 0 45 l 1
 0 0 l 1
 627 0 l 1
 627 45 l 1
 315 680 l 1
535 45 m 1
 50 45 l 1
 290 530 l 1
 535 45 l 1
EndSplineSet
MinimumDistance: x3,-1 
EndChar
StartChar: guillemotleft
Encoding: 199 171
Width: 420
VStem: 154.201 51.6578<436 444> 309.201 51.6578<436 444>
Fore
202 424 m 0
 213 453 202 459 196 459 c 0
 177 463 165 465 146 468 c 1
 149 453 161 440 149 414 c 1
 132 373 78 321 58 310 c 0
 40 300 1 283 1 283 c 1
 25 267 41 263 60 249 c 0
 103 217 141 188 145 135 c 1
 147 96 145 70 141 55 c 1
 180 61 153 57 190 63 c 0
 197 65 201 68 201 74 c 1
 196 103 193 133 173 163 c 0
 143 209 119 230 66 261 c 0
 58 266 34 274 28 280 c 1
 28 280 48 289 60 295 c 0
 121 329 179 364 202 424 c 0
357 424 m 0
 368 453 357 459 351 459 c 0
 332 463 320 465 301 468 c 1
 304 453 316 440 304 414 c 1
 287 373 233 321 213 310 c 0
 195 300 156 283 156 283 c 1
 180 267 196 263 215 249 c 0
 258 217 296 188 300 135 c 1
 302 96 300 70 296 55 c 1
 335 61 308 57 345 63 c 0
 352 65 356 68 356 74 c 1
 351 103 348 133 328 163 c 0
 298 209 274 230 221 261 c 0
 213 266 189 274 183 280 c 1
 183 280 203 289 215 295 c 0
 276 329 334 364 357 424 c 0
EndSplineSet
EndChar
StartChar: guillemotright
Encoding: 200 187
Width: 420
VStem: 31.1409 51.6578<436 444> 186.141 51.6578<436 444>
Fore
190 424 m 0
 179 453 190 459 196 459 c 0
 215 463 227 465 246 468 c 1
 243 453 231 440 243 414 c 1
 260 373 314 321 334 310 c 0
 352 300 391 283 391 283 c 1
 367 267 351 263 332 249 c 0
 289 217 251 188 247 135 c 1
 245 96 247 70 251 55 c 1
 212 61 239 57 202 63 c 0
 195 65 191 68 191 74 c 1
 196 103 198 133 219 163 c 1
 249 209 273 230 326 261 c 0
 334 266 358 274 364 280 c 1
 364 280 344 289 332 295 c 0
 271 329 213 364 190 424 c 0
35 424 m 0
 24 453 35 459 41 459 c 0
 60 463 72 465 91 468 c 1
 88 453 76 440 88 414 c 1
 105 373 159 321 179 310 c 0
 197 300 236 283 236 283 c 1
 212 267 196 263 177 249 c 0
 134 217 96 188 92 135 c 1
 90 96 92 70 96 55 c 1
 57 61 84 57 47 63 c 0
 40 65 36 68 36 74 c 1
 41 103 43 133 64 163 c 1
 94 209 118 230 171 261 c 0
 179 266 203 274 209 280 c 1
 209 280 189 289 177 295 c 0
 116 329 58 364 35 424 c 0
EndSplineSet
MinimumDistance: x20,-1 
EndChar
StartChar: ellipsis
Encoding: 201 8230
Width: 645
VStem: 63 70<35.2737 45.9688> 233 70<35.2737 45.9688> 413 70<35.2737 45.9688>
Fore
63 46 m 0
 64 67 78 89 99 88 c 0
 120 87 133 67 133 46 c 0
 133 24 120 0 98 0 c 0
 76 0 62 24 63 46 c 0
233 46 m 0
 234 67 248 89 269 88 c 0
 290 87 303 67 303 46 c 0
 303 24 290 0 268 0 c 0
 246 0 232 24 233 46 c 0
413 46 m 0
 414 67 428 89 449 88 c 0
 470 87 483 67 483 46 c 0
 483 24 470 0 448 0 c 0
 426 0 412 24 413 46 c 0
EndSplineSet
MinimumDistance: x10,-1 
EndChar
StartChar: OE
Encoding: 206 338
Width: 669
HStem: 474 21<418 485>
VStem: 52 59.6161<385 414> 341 70<300 366>
Fore
341 326 m 0
 341 486 298 644 212 684 c 0
 129 722 111 555 111 454 c 0
 111 282 143 88 247 46 c 0
 312 19 341 207 341 326 c 0
316 62 m 1
 300 37 280 16 256 0 c 0
 230 -18 213 -27 188 -8 c 0
 79 74 52 219 52 386 c 0
 52 545 91 676 191 754 c 0
 218 775 244 770 272 750 c 0
 276 747 302 742 317 752 c 0
 322 755 327 751 332 751 c 0
 481 751 454 756 526 756 c 0
 564 756 603 735 616 701 c 0
 619 693 616 692 613 689 c 0
 596 673 586 663 568 648 c 0
 565 646 561 643 559 652 c 1
 552 679 548 696 529 713 c 0
 512 728 497 730 477 731 c 0
 460 732 438 732 424 731 c 0
 414 730 411 727 411 718 c 0
 411 680 411 602 411 513 c 0
 411 506 411 495 422 495 c 0
 440 495 450 495 472 495 c 0
 502 495 544 514 573 552 c 0
 576 556 578 563 581 560 c 0
 595 545 601 540 614 528 c 0
 616 526 616 522 613 519 c 0
 573 479 547 474 500 474 c 0
 470 474 452 474 423 474 c 0
 411 474 411 466 411 457 c 0
 411 279 411 212 411 67 c 0
 411 55 411 41 420 36 c 0
 435 28 444 27 460 27 c 0
 516 27 575 77 596 123 c 1
 598 126 600 135 606 129 c 0
 622 112 634 102 644 89 c 0
 648 84 648 75 644 70 c 0
 608 23 563 -15 520 -15 c 0
 467 -15 427 14 375 47 c 0
 361 56 352 64 336 64 c 0
 330 64 326 64 320 62 c 0
 319 62 317 62 316 62 c 1
EndSplineSet
MinimumDistance: x20,-1 
EndChar
StartChar: oe
Encoding: 207 339
Width: 565
HStem: 490 16.4507<398 410>
VStem: 28 50<258 304>
Fore
399 490 m 0
 339 490 325 358 325 309 c 0
 325 304 334 294 340 296 c 0
 382 309 458 368 458 404 c 1
 459 447 441 490 399 490 c 0
78 304 m 0
 78 189 105 59 192 31 c 0
 247 13 271 139 271 218 c 0
 271 326 234 431 162 458 c 0
 93 484 78 372 78 304 c 0
293 127 m 1
 278 76 251 27 200 0 c 0
 178 -12 163 -18 142 -5 c 0
 51 50 28 147 28 259 c 0
 28 365 61 453 145 505 c 0
 167 519 190 516 213 502 c 0
 250 481 277 444 292 398 c 1
 316 460 356 497 382 502 c 0
 415 508 408 508 436 502 c 0
 462 496 515 468 511 418 c 1
 507 359 450 337 410 306 c 0
 379 282 323 273 327 230 c 1
 338 118 363 14 438 12 c 0
 475 11 513 38 527 55 c 1
 513 16 465 -7 431 -7 c 0
 361 -7 317 49 293 127 c 1
EndSplineSet
MinimumDistance: x4,-1 
EndChar
StartChar: endash
Encoding: 208 8211
Width: 496
HStem: 315 32<171 317>
Fore
60 354 m 1
 60 308 l 1
 132 313 175 315 247 315 c 0
 322 315 365 313 440 308 c 1
 440 354 l 1
 365 349 322 347 247 347 c 0
 175 347 132 349 60 354 c 1
EndSplineSet
EndChar
StartChar: emdash
Encoding: 209 8212
Width: 605
HStem: 315 32<168.206 401>
Fore
48 354 m 1
 48 308 l 1
 145 313 203 315 300 315 c 0
 402 315 460 313 561 308 c 1
 561 354 l 1
 460 349 402 347 300 347 c 0
 203 347 145 349 48 354 c 1
EndSplineSet
EndChar
StartChar: quotedblleft
Encoding: 210 8220
Width: 319
Fore
131 711 m 0
 132 689 118 665 96 665 c 0
 92 665 89 666 86 667 c 1
 84 655 89 646 96 635 c 0
 102 626 107 621 116 615 c 1
 106 607 l 1
 65 630 51 660 51 701 c 0
 51 727 68 756 95 753 c 0
 116 751 130 732 131 711 c 0
249 693 m 0
 250 671 236 647 214 647 c 0
 210 647 207 648 204 649 c 1
 202 637 207 628 214 617 c 0
 220 608 225 603 234 597 c 1
 224 589 l 1
 183 612 169 642 169 683 c 0
 169 709 186 738 213 735 c 0
 234 733 248 714 249 693 c 0
EndSplineSet
EndChar
StartChar: quotedblright
Encoding: 211 8221
Width: 319
Fore
58 583 m 1
 48 591 l 1
 57 597 62 602 68 611 c 0
 75 622 80 631 78 643 c 1
 75 642 72 641 68 641 c 0
 46 641 32 665 33 687 c 0
 34 708 48 727 69 729 c 0
 96 732 113 703 113 677 c 0
 113 636 99 606 58 583 c 1
168 607 m 1
 158 615 l 1
 167 621 172 626 178 635 c 0
 185 646 190 655 188 667 c 1
 185 666 182 665 178 665 c 0
 156 665 142 689 143 711 c 0
 144 732 158 751 179 753 c 0
 206 756 223 727 223 701 c 0
 223 660 209 630 168 607 c 1
EndSplineSet
EndChar
StartChar: quoteleft
Encoding: 212 8216
Width: 179
Fore
131 711 m 0
 132 689 118 665 96 665 c 0
 92 665 89 666 86 667 c 1
 84 655 89 646 96 635 c 0
 102 626 107 621 116 615 c 1
 106 607 l 1
 65 630 51 660 51 701 c 0
 51 727 68 756 95 753 c 0
 116 751 130 732 131 711 c 0
EndSplineSet
EndChar
StartChar: quoteright
Encoding: 213 8217
Width: 179
Fore
58 607 m 1
 48 615 l 1
 57 621 62 626 68 635 c 0
 75 646 80 655 78 667 c 1
 75 666 72 665 68 665 c 0
 46 665 32 689 33 711 c 0
 34 732 48 751 69 753 c 0
 96 756 113 727 113 701 c 0
 113 660 99 630 58 607 c 1
EndSplineSet
EndChar
StartChar: divide
Encoding: 214 247
Width: 355
HStem: 211 66<159.629 166> 318 30<138 194> 387 66<159.629 166>
Fore
140 247 m 1
 141 261 151 278 167 277 c 0
 183 276 192 261 192 247 c 0
 192 229 183 211 166 211 c 0
 150 211 139 229 140 247 c 1
140 423 m 1
 141 437 151 454 167 453 c 0
 183 452 192 437 192 423 c 0
 192 405 183 387 166 387 c 0
 150 387 139 405 140 423 c 1
92 354 m 1
 92 312 l 1
 121 317 138 318 167 318 c 0
 197 318 214 317 244 312 c 1
 244 354 l 1
 214 349 197 348 167 348 c 0
 138 348 121 349 92 354 c 1
EndSplineSet
EndChar
StartChar: lozenge
Encoding: 215 9674
Width: 377
Fore
173 162 m 1
 174 162 174 163 174 163 c 2
 204 209 228 231 281 261 c 0
 289 266 313 274 319 280 c 1
 319 280 299 289 287 295 c 0
 238 322 201 344 173 379 c 1
 146 344 108 322 60 295 c 0
 48 289 28 280 28 280 c 1
 34 274 58 266 66 261 c 0
 119 231 143 209 173 163 c 1
 173 163 173 163 173 162 c 1
173 450 m 1
 197 410 l 2
 225 364 269 322 289 310 c 0
 306 300 346 283 346 283 c 1
 322 267 306 263 287 249 c 0
 244 217 226 200 200 158 c 2
 174 116 l 1
 147 158 l 2
 121 199 103 217 60 249 c 0
 41 263 25 267 1 283 c 1
 1 283 41 300 58 310 c 0
 78 322 121 363 149 410 c 2
 173 450 l 1
EndSplineSet
EndChar
StartChar: fraction
Encoding: 218 8260
Width: 510
Fore
366 716 m 1
 372 730 403 732 395 714 c 0
 388 699 89 58 80 40 c 1
 75 28 41 20 51 42 c 0
 59 59 248 464 366 716 c 1
EndSplineSet
EndChar
StartChar: guilsinglleft
Encoding: 220 8249
Width: 250
VStem: 154.201 51.6578<436 444>
Fore
202 424 m 0
 179 364 121 329 60 295 c 0
 48 289 28 280 28 280 c 1
 34 274 58 266 66 261 c 0
 119 230 143 209 173 163 c 0
 193 133 196 103 201 74 c 1
 201 68 197 65 190 63 c 0
 153 57 180 61 141 55 c 1
 145 70 147 96 145 135 c 1
 141 188 103 217 60 249 c 0
 41 263 25 267 1 283 c 1
 1 283 40 300 58 310 c 0
 78 321 132 373 149 414 c 1
 161 440 149 453 146 468 c 1
 165 465 177 463 196 459 c 0
 202 459 213 453 202 424 c 0
EndSplineSet
EndChar
StartChar: guilsinglright
Encoding: 221 8250
Width: 250
VStem: 31.1409 51.6578<436 444>
Fore
35 424 m 0
 58 364 116 329 177 295 c 0
 189 289 209 280 209 280 c 1
 203 274 179 266 171 261 c 0
 118 230 94 209 64 163 c 1
 43 133 41 103 36 74 c 1
 36 68 40 65 47 63 c 0
 84 57 57 61 96 55 c 1
 92 70 90 96 92 135 c 1
 96 188 134 217 177 249 c 0
 196 263 212 267 236 283 c 1
 236 283 197 300 179 310 c 0
 159 321 105 373 88 414 c 1
 76 440 88 453 91 468 c 1
 72 465 60 463 41 459 c 0
 35 459 24 453 35 424 c 0
EndSplineSet
EndChar
StartChar: fi
Encoding: 222 64257
Width: 310
HStem: 0 8<13 17 113 119 179 183 276 284> 483 19<10 30 100 154> 591 78<227 237> 739 11<136 154>
VStem: 36 57<33.0041 473 511 690> 202 57<33.0041 473 623 641>
Fore
202 630 m 0
 202 649 212 669 231 669 c 0
 250 669 260 649 260 630 c 0
 260 611 250 591 231 591 c 0
 212 591 202 611 202 630 c 0
259 526 m 1
 259 44 l 2
 259 20 272 8 281 8 c 0
 284 8 285 7 285 4 c 0
 285 0 282 0 281 0 c 2
 180 0 l 2
 179 1 176 0 176 4 c 0
 176 7 177 8 180 8 c 0
 189 8 202 20 202 44 c 0
 202 56 202 443 202 457 c 0
 202 469 201 480 198 485 c 1
 189 484 179 483 168 483 c 0
 142 483 127 483 103 483 c 0
 93 483 93 477 93 471 c 0
 93 352 93 44 93 44 c 2
 93 20 106 8 115 8 c 0
 118 8 119 7 119 4 c 0
 119 0 116 0 115 0 c 2
 14 0 l 2
 13 1 10 0 10 4 c 0
 10 7 11 8 14 8 c 0
 23 8 36 20 36 44 c 0
 36 52 36 352 36 471 c 0
 36 477 36 483 26 483 c 0
 2 483 -1 483 -7 483 c 1
 11 502 l 1
 17 501 12 502 27 502 c 0
 36 502 36 509 36 514 c 0
 36 573 36 656 36 684 c 0
 36 721 60 750 106 750 c 0
 172 750 211 750 277 750 c 1
 274 716 259 702 240 675 c 1
 213 707 176 739 145 739 c 0
 120 739 93 714 93 687 c 0
 93 686 93 573 93 514 c 0
 93 509 93 502 102 502 c 0
 117 502 125 502 144 502 c 0
 169 502 205 514 229 540 c 0
 231 542 233 547 235 545 c 0
 258 526 252 533 259 526 c 1
EndSplineSet
MinimumDistance: x6,-1 x12,9 x12,11 x5,8 x5,6 x25,22 x25,24 x18,21 x18,19 
Ligature: f i
Comment: "+BCEEKgQ1BEgETAAA +BDUESQRR +BE0EQgQ9BEUA +BDwETwQzBDoEOARFAAoA-This character needs work!" 
Colour: ff0000
EndChar
StartChar: fl
Encoding: 223 64258
Width: 350
HStem: 0 8<13 17 113 119 213 217 312 318> 483 19<10 30 100 154> 739 11<136 154>
VStem: 36 57<33.0041 473 511 690> 236 57<33.0041 496 545 680>
Fore
236 496 m 1
 236 436 236 52 236 44 c 0
 236 20 223 8 214 8 c 0
 211 8 210 7 210 4 c 0
 210 0 213 1 214 0 c 2
 315 0 l 2
 316 0 319 0 319 4 c 0
 319 7 318 8 315 8 c 0
 306 8 293 20 293 44 c 2
 293 44 293 736 293 740 c 0
 293 750 288 750 282 750 c 2
 282 750 172 750 106 750 c 0
 60 750 36 721 36 684 c 0
 36 656 36 573 36 514 c 0
 36 509 36 502 27 502 c 0
 12 502 17 501 11 502 c 1
 -7 483 l 1
 -1 483 2 483 26 483 c 0
 36 483 36 477 36 471 c 0
 36 352 36 52 36 44 c 0
 36 20 23 8 14 8 c 0
 11 8 10 7 10 4 c 0
 10 0 13 1 14 0 c 2
 115 0 l 2
 116 0 119 0 119 4 c 0
 119 7 118 8 115 8 c 0
 106 8 93 20 93 44 c 2
 93 44 93 352 93 471 c 0
 93 477 93 483 103 483 c 0
 127 483 142 483 168 483 c 0
 207 483 211 487 236 496 c 1
236 545 m 1
 234 547 231 542 229 540 c 0
 205 514 169 502 144 502 c 0
 125 502 117 502 102 502 c 0
 93 502 93 509 93 514 c 0
 93 573 93 686 93 687 c 0
 93 714 120 739 145 739 c 0
 176 739 209 709 236 680 c 1
 236 676 236 616 236 545 c 1
EndSplineSet
MinimumDistance: x5,-1 x8,5 x8,7 x1,4 x1,2 x26,23 x26,25 x19,22 x19,20 
Ligature: f l
EndChar
StartChar: daggerdbl
Encoding: 224 8225
Width: 337
HStem: 0 21G<141 193> 730 20G<141 193>
VStem: 130 74<335 417> 147 39<81 95 655 667>
Fore
189 617 m 1
 195 529 204 469 204 375 c 0
 204 281 195 221 189 133 c 1
 218 134 289 140 289 140 c 1
 289 88 l 1
 289 88 215 95 186 95 c 1
 186 91 186 87 186 82 c 1
 187 57 189 27 193 0 c 1
 141 0 l 1
 145 25 147 53 148 77 c 1
 148 83 147 89 147 95 c 1
 120 94 45 88 45 88 c 1
 45 140 l 1
 45 140 115 135 144 133 c 1
 138 221 130 281 130 375 c 0
 130 469 138 529 144 617 c 1
 115 615 45 610 45 610 c 1
 45 662 l 1
 45 662 120 656 147 655 c 1
 147 661 147 666 148 672 c 1
 147 697 145 724 141 750 c 1
 193 750 l 1
 189 723 187 693 186 667 c 1
 186 663 186 659 187 655 c 1
 214 655 289 662 289 662 c 1
 289 610 l 1
 289 610 218 616 189 617 c 1
EndSplineSet
MinimumDistance: x5,-1 
EndChar
StartChar: periodcentered
Encoding: 225 183
Width: 215
Fore
63 336 m 0
 64 357 78 379 99 378 c 0
 120 377 133 357 133 336 c 0
 133 314 120 290 98 290 c 0
 76 290 62 314 63 336 c 0
EndSplineSet
EndChar
StartChar: quotesinglbase
Encoding: 226 8218
Width: 179
Fore
58 -51 m 1
 48 -43 l 1
 57 -37 62 -32 68 -23 c 0
 75 -12 80 -3 78 9 c 1
 75 8 72 7 68 7 c 0
 46 7 32 31 33 53 c 0
 34 74 48 93 69 95 c 0
 96 98 113 69 113 43 c 0
 113 2 99 -28 58 -51 c 1
EndSplineSet
EndChar
StartChar: quotedblbase
Encoding: 227 8222
Width: 319
Fore
58 -72 m 1
 48 -64 l 1
 57 -58 62 -53 68 -44 c 0
 75 -33 80 -24 78 -12 c 1
 75 -13 72 -14 68 -14 c 0
 46 -14 32 10 33 32 c 0
 34 53 48 72 69 74 c 0
 96 77 113 48 113 22 c 0
 113 -19 99 -49 58 -72 c 1
168 -48 m 1
 158 -40 l 1
 167 -34 172 -29 178 -20 c 0
 185 -9 190 0 188 12 c 1
 185 11 182 10 178 10 c 0
 156 10 142 34 143 56 c 0
 144 77 158 96 179 98 c 0
 206 101 223 72 223 46 c 0
 223 5 209 -25 168 -48 c 1
EndSplineSet
EndChar
StartChar: perthousand
Encoding: 228 8240
Width: 790
VStem: 0 37.9269<555 581> 245 37.9269<200 225> 427 31.1623<170 193> 510 37.9269<200 225> 692 31.1624<170 193>
Fore
376 716 m 1
 382 730 413 732 405 714 c 0
 398 699 99 58 90 40 c 1
 85 28 51 20 61 42 c 0
 69 59 258 464 376 716 c 1
309 341 m 0
 285 311 282 277 282 234 c 0
 282 183 287 81 361 35 c 0
 370 29 381 28 388 34 c 0
 422 66 427 115 427 171 c 0
 427 247 407 325 346 350 c 0
 332 355 318 352 309 341 c 0
334 386 m 0
 348 395 362 394 378 387 c 0
 437 360 459 294 459 223 c 0
 459 139 441 30 366 4 c 0
 354 0 346 -2 335 4 c 0
 261 48 245 117 245 202 c 0
 245 281 272 350 334 386 c 0
64 696 m 0
 40 666 37 632 37 589 c 0
 37 538 42 436 116 390 c 0
 125 384 136 383 143 389 c 0
 177 421 182 470 182 526 c 0
 182 602 162 680 101 705 c 0
 87 710 73 707 64 696 c 0
89 741 m 0
 103 750 117 749 133 742 c 0
 192 715 214 649 214 578 c 0
 214 494 196 385 121 359 c 0
 109 355 101 353 90 359 c 0
 16 403 0 472 0 557 c 0
 0 636 27 705 89 741 c 0
574 341 m 0
 550 311 547 277 547 234 c 0
 547 183 552 81 626 35 c 0
 635 29 646 28 653 34 c 0
 687 66 692 115 692 171 c 0
 692 247 672 325 611 350 c 0
 597 355 583 352 574 341 c 0
599 386 m 0
 613 395 627 394 643 387 c 0
 702 360 724 294 724 223 c 0
 724 139 706 30 631 4 c 0
 619 0 611 -2 600 4 c 0
 526 48 510 117 510 202 c 0
 510 281 537 350 599 386 c 0
EndSplineSet
EndChar
StartChar: dotlessi
Encoding: 245 305
Width: 142
HStem: 0 8<13 17 113 119> 493 9<13 26>
VStem: 36 57<33.0041 465>
Fore
93 44 m 2
 93 20 106 8 115 8 c 0
 118 8 119 7 119 4 c 0
 119 0 116 0 115 0 c 2
 14 0 l 2
 13 1 10 0 10 4 c 0
 10 7 11 8 14 8 c 0
 23 8 36 20 36 44 c 0
 36 56 36 443 36 457 c 0
 36 498 23 493 13 493 c 0
 11 493 9 495 9 497 c 0
 9 501 13 501 14 502 c 2
 82 502 l 2
 88 502 93 502 93 492 c 0
 93 488 93 44 93 44 c 2
EndSplineSet
MinimumDistance: x1,-1 x7,4 x7,6 x0,3 x0,1 
EndChar
StartChar: circumflex
Encoding: 246 710
Width: 373
Fore
50 545 m 1
 95 545 l 1
 175 611 l 1
 245 545 l 1
 295 545 l 1
 225 670 l 1
 130 670 l 1
 50 545 l 1
EndSplineSet
EndChar
StartChar: tilde
Encoding: 247 732
Width: 496
HStem: 808 20<229 306>
Fore
166 803 m 0
 181 827 193 857 218 857 c 0
 252 857 271 828 305 828 c 0
 326 828 345 839 363 850 c 0
 378 859 375 845 371 838 c 0
 357 813 345 779 315 779 c 0
 280 779 265 808 230 808 c 0
 209 808 197 802 176 789 c 0
 154 775 157 788 166 803 c 0
EndSplineSet
EndChar
StartChar: macron
Encoding: 248 175
Width: 355
HStem: 769 30<139 189>
Fore
92 805 m 1
 92 763 l 1
 121 768 138 769 167 769 c 0
 197 769 214 768 244 763 c 1
 244 805 l 1
 214 800 197 799 167 799 c 0
 138 799 121 800 92 805 c 1
EndSplineSet
EndChar
StartChar: breve
Encoding: 249 728
Width: 0
Fore
140 585 m 0
 98 585 67 606 50 645 c 1
 25 620 l 1
 45 568 87 540 142 540 c 0
 196 540 237 569 257 620 c 1
 231 645 l 1
 215 606 183 585 140 585 c 0
EndSplineSet
EndChar
StartChar: dotaccent
Encoding: 250 729
Width: 264
Fore
63 642 m 0
 64 663 78 685 99 684 c 0
 120 683 133 663 133 642 c 0
 133 620 120 596 98 596 c 0
 76 596 62 620 63 642 c 0
EndSplineSet
EndChar
StartChar: ring
Encoding: 251 730
Width: 373
HStem: 540.775 35.3994<169 187> 678.369 35.4347<169 187>
VStem: 91.1165 35.3731<619 637> 229.274 35.5098<619 637>
Fore
123 695 m 0
 160 725 216 719 246 682 c 0
 276 645 270 590 233 560 c 0
 196 530 140 535 110 572 c 0
 80 609 86 665 123 695 c 0
143 665 m 0
 122 645 120 613 140 592 c 0
 160 571 192 570 213 590 c 0
 234 610 236 641 216 662 c 0
 196 683 164 685 143 665 c 0
EndSplineSet
EndChar
StartChar: cedilla
Encoding: 252 184
Width: 333
Fore
222 -50 m 1
 167 -175 l 1
 132 -175 l 1
 157 -50 l 1
 222 -50 l 1
EndSplineSet
EndChar
StartChar: ogonek
Encoding: 254 731
Width: 1000
HStem: -170 44.4165<183 204> -20 20G<123 165>
Fore
123 0 m 1
 165 0 l 1
 129 -6 111 -43 115 -80 c 1
 119 -109 150 -120 180 -125 c 0
 217 -131 244 -119 265 -90 c 1
 285 -115 l 1
 261 -154 230 -171 185 -170 c 0
 130 -169 75 -135 75 -80 c 0
 75 -44 91 -17 123 0 c 1
EndSplineSet
EndChar
StartChar: caron
Encoding: 255 711
Width: 465
Fore
170 782 m 1
 203 782 l 1
 262 738 l 1
 313 782 l 1
 350 782 l 1
 299 699 l 1
 229 699 l 1
 170 782 l 1
EndSplineSet
EndChar
StartChar: longs
Encoding: 256 383
Width: 166
HStem: 0 8<13 17 113 119> 739 11<137 155>
VStem: 36 57<33.0041 690>
Fore
36 44 m 0
 36 20 23 8 14 8 c 0
 11 8 10 7 10 4 c 0
 10 0 13 1 14 0 c 2
 115 0 l 2
 116 0 119 0 119 4 c 0
 119 7 118 8 115 8 c 0
 106 8 93 20 93 44 c 2
 93 44 93 684 93 687 c 0
 93 714 120 739 145 739 c 0
 176 739 213 707 240 675 c 1
 259 702 274 716 277 750 c 1
 211 750 172 750 106 750 c 0
 60 750 36 721 36 684 c 2
 36 684 36 53 36 44 c 0
EndSplineSet
MinimumDistance: x4,-1 x7,4 x7,6 x0,3 x0,1 
EndChar
StartChar: currency
Encoding: 257 164
Width: 544
HStem: 115 50<213 231> 465 50<213 231>
VStem: 25.0459 50.8136<297 331> 374.14 50.4534<297 331>
DStem: 357 159 383 187 409 106 437 134 409 520 437 492 358 469 385 441
Fore
225 165 m 0
 25 165 25 465 225 465 c 0
 425 465 425 165 225 165 c 0
96 472 m 1
 49 520 l 1
 32 520 21 508 22 492 c 1
 22 492 69 446 69 445 c 0
 10 372 9 255 70 183 c 1
 71 183 22 134 22 134 c 1
 21 111 35 103 49 106 c 1
 98 156 l 1
 130 131 172 115 225 115 c 0
 280 115 324 132 357 159 c 1
 409 106 l 1
 438 108 441 114 437 134 c 1
 383 187 l 1
 439 259 439 369 385 441 c 1
 437 492 l 1
 443 512 430 516 409 520 c 1
 358 469 l 1
 326 498 281 515 225 515 c 0
 172 515 128 498 96 472 c 1
EndSplineSet
MinimumDistance: x13,-1 
EndChar
StartChar: minus
Encoding: 258 8722
Width: 355
HStem: 318 30<139 189>
Fore
92 354 m 1
 92 312 l 1
 121 317 138 318 167 318 c 0
 197 318 214 317 244 312 c 1
 244 354 l 1
 214 349 197 348 167 348 c 0
 138 348 121 349 92 354 c 1
EndSplineSet
EndChar
StartChar: apple
Encoding: 259 -1
Width: 854
HStem: -165 137<257 381 471 596> 409 26<115 129 727 741> 435 8<257 265 265.012 274.813 300 308.323 329 335 335.012 344.813 363 369 369.008 379.751 404.008 414.48 472.01 483.372> 478 267.111<297.822 310> 481 0<415 421> 482 67.9062<466 476> 705 40.0889<561 572> 731 14<501.008 517.3>
VStem: 60 107<22 366> 250 19<237 257> 417 20<4 25> 584 20<237 257> 688 110<74 366>
DStem: 427 187 427 281 646 -28 688 19 427 281 427 187 167 23 213 -28 427 187 427 281 646 -28 688 19 427 281 427 187 167 23 213 -28 427 187 427 281 646 -28 688 19 427 281 427 187 167 23 213 -28 427 187 427 281 646 -28 688 19 427 281 427 187 167 23 213 -28 427 187 427 281 646 -28 688 19 427 281 427 187 167 23 213 -28 427 187 427 281 646 -28 688 19 427 281 427 187 167 23 213 -28 427 187 427 281 646 -28 688 19 427 281 427 187 167 23 213 -28 427 187 427 281 646 -28 688 19 427 281 427 187 167 23 213 -28 427 187 427 281 646 -28 688 19 427 281 427 187 167 23 213 -28 427 187 427 281 646 -28 688 19 427 281 427 187 167 23 213 -28 427 187 427 281 646 -28 688 19 427 281 427 187 167 23 213 -28 427 187 427 281 646 -28 688 19 427 281 427 187 167 23 213 -28 427 187 427 281 646 -28 688 19 427 281 427 187 167 23 213 -28 427 187 427 281 646 -28 688 19 427 281 427 187 167 23 213 -28 427 187 427 281 646 -28 688 19 427 281 427 187 167 23 213 -28 427 187 427 281 646 -28 688 19 427 281 427 187 167 23 213 -28 427 187 427 281 646 -28 688 19 427 281 427 187 167 23 213 -28 427 187 427 281 646 -28 688 19 427 281 427 187 167 23 213 -28 427 187 427 281 646 -28 688 19 427 281 427 187 167 23 213 -28 427 187 427 281 646 -28 688 19 427 281 427 187 167 23 213 -28 427 187 427 281 646 -28 688 19 427 281 427 187 167 23 213 -28 427 187 427 281 646 -28 688 19 427 281 427 187 167 23 213 -28 427 187 427 281 646 -28 688 19 427 281 427 187 167 23 213 -28 427 187 427 281 646 -28 688 19 427 281 427 187 167 23 213 -28 427 187 427 281 646 -28 688 19 427 281 427 187 167 23 213 -28 427 187 427 281 646 -28 688 19 427 281 427 187 167 23 213 -28 427 187 427 281 646 -28 688 19 427 281 427 187 167 23 213 -28 427 187 427 281 646 -28 688 19
Fore
646 -28 m 1
 427 187 l 1
 213 -28 l 1
 371 -28 l 2
 387 -28 400 -32 412 -42 c 0
 420 -50 426 -54 432 -65 c 1
 435 -55 440 -49 447 -42 c 0
 463 -28 476 -28 485 -28 c 2
 646 -28 l 1
337 -165 m 2
 265 -165 216 -170 155 -129 c 0
 57 -63 60 47 60 169 c 2
 60 412 l 2
 60 533 54 643 155 709 c 0
 216 749 265 745 337 745 c 2
 520 745 l 2
 592 745 641 749 702 709 c 0
 804 643 798 534 798 412 c 2
 798 169 l 2
 798 47 804 -63 702 -129 c 0
 641 -169 592 -165 520 -165 c 2
 337 -165 l 2
688 364 m 2
 688 379 694 388 706 398 c 0
 717 406 727 410 741 409 c 1
 741 435 l 1
 115 435 l 1
 115 409 l 1
 129 410 139 406 150 398 c 0
 161 388 168 379 168 364 c 1
 167 23 l 1
 427 281 l 1
 688 19 l 1
 688 364 l 2
422 481 m 1
 415 481 l 1
 422 481 l 1
461 482 m 1
 459 482 l 2
 457 482 455 481 453 480 c 0
 450 480 449 480 446 479 c 1
 443 480 439 480 435 480 c 0
 431 481 428 481 424 481 c 2
 422 481 l 1
 419 485 417 487 416 491 c 1
 409 509 396 531 411 543 c 0
 415 546 419 546 424 546 c 0
 432 548 436 549 445 548 c 1
 441 544 439 540 437 535 c 1
 433 521 445 513 451 500 c 0
 454 493 457 489 461 482 c 1
404 477 m 1
 400 476 397 474 394 470 c 1
 389 476 384 478 377 478 c 0
 369 478 365 476 359 470 c 1
 354 476 350 478 343 478 c 0
 335 479 328 476 324 470 c 1
 319 476 314 478 307 478 c 0
 299 479 293 476 288 470 c 1
 283 475 280 476 273 477 c 0
 265 478 257 475 252 468 c 0
 248 462 246 457 248 450 c 0
 250 444 258 443 265 443 c 0
 273 442 280 445 285 450 c 1
 290 446 294 444 300 443 c 0
 308 443 313 445 319 450 c 1
 324 445 328 443 335 443 c 0
 343 442 350 445 355 450 c 1
 359 446 363 443 369 443 c 0
 377 442 384 444 389 450 c 1
 392 446 398 443 404 442 c 0
 413 441 418 443 424 450 c 1
 427 446 432 443 439 442 c 0
 447 441 454 443 459 450 c 1
 463 445 466 443 472 442 c 0
 481 440 488 443 493 450 c 1
 497 445 501 443 507 442 c 0
 516 441 522 443 527 450 c 1
 531 445 535 443 543 442 c 0
 551 441 557 443 563 450 c 1
 567 445 572 443 579 442 c 0
 587 441 595 444 600 451 c 0
 604 457 606 462 604 469 c 0
 602 476 594 477 586 478 c 0
 578 479 572 476 567 470 c 1
 562 476 557 478 550 478 c 0
 543 479 536 476 531 470 c 1
 527 476 522 477 515 478 c 0
 507 479 502 476 497 470 c 1
 494 474 491 476 487 477 c 1
 495 477 l 1
 489 480 486 480 480 481 c 0
 475 482 472 482 468 482 c 2
 466 482 l 1
 461 494 458 501 454 513 c 1
 452 522 445 528 448 536 c 0
 458 562 481 543 503 546 c 0
 528 550 540 571 541 588 c 1
 544 661 487 645 485 681 c 1
 484 690 494 691 502 694 c 0
 512 698 519 691 530 691 c 0
 546 690 557 691 572 694 c 1
 558 699 l 1
 572 705 l 1
 565 705 561 706 554 707 c 0
 546 709 541 710 535 714 c 0
 530 718 530 724 524 728 c 0
 517 731 509 731 501 731 c 0
 473 728 455 697 461 670 c 1
 464 654 490 652 488 635 c 1
 487 628 483 627 477 625 c 0
 454 620 452 640 414 641 c 0
 381 642 374 599 350 612 c 0
 340 617 337 622 331 631 c 0
 328 635 326 639 324 643 c 1
 320 639 319 636 318 631 c 0
 315 617 334 607 333 596 c 1
 332 587 326 566 322 561 c 1
 328 568 345 574 354 573 c 0
 362 572 365 566 373 562 c 0
 383 557 391 554 401 551 c 1
 398 547 395 545 394 539 c 1
 388 523 400 512 408 497 c 0
 411 491 413 487 415 481 c 1
 413 481 411 480 409 480 c 0
 405 479 403 478 399 477 c 1
 404 477 l 1
439 477 m 1
 435 476 431 474 428 470 c 1
 425 474 422 476 418 477 c 1
 439 477 l 1
474 477 m 1
 470 476 466 474 463 470 c 1
 460 474 457 476 452 477 c 1
 474 477 l 1
594 325 m 1
 639 297 l 1
 604 297 l 1
 639 277 l 1
 604 277 l 1
 636 257 l 1
 604 257 l 1
 604 237 l 1
 584 237 l 1
 584 257 l 1
 552 257 l 1
 584 277 l 1
 552 277 l 1
 584 297 l 1
 554 297 l 1
 594 325 l 1
427 91 m 1
 472 64 l 1
 437 64 l 1
 472 43 l 1
 437 43 l 1
 469 24 l 1
 437 24 l 1
 437 4 l 1
 417 4 l 1
 417 24 l 1
 385 24 l 1
 417 43 l 1
 385 43 l 1
 417 64 l 1
 386 64 l 1
 427 91 l 1
259 325 m 1
 304 297 l 1
 269 297 l 1
 304 277 l 1
 269 277 l 1
 302 257 l 1
 269 257 l 1
 269 237 l 1
 250 237 l 1
 250 257 l 1
 217 257 l 1
 250 277 l 1
 217 277 l 1
 250 297 l 1
 219 297 l 1
 259 325 l 1
EndSplineSet
MinimumDistance: x16,-1 
EndChar
